{"glyphs":{"0":{"ha":967,"x_min":56,"x_max":911,"o":"m 485 -14 q 318 13 396 -14 q 181 99 240 40 q 89 255 122 158 q 56 492 56 351 q 89 727 56 631 q 181 883 122 824 q 318 970 240 943 q 485 997 396 997 q 699 947 603 997 q 853 787 796 897 q 911 492 911 676 q 853 196 911 307 q 699 35 796 85 q 485 -14 603 -14 m 485 285 q 569 329 546 285 q 593 492 593 374 q 569 653 593 608 q 485 699 546 699 q 399 653 425 699 q 374 492 374 607 q 399 330 374 375 q 485 285 425 285 z "},"1":{"ha":617,"x_min":42,"x_max":533,"o":"m 208 0 l 208 665 l 42 665 l 42 928 l 519 983 l 533 900 l 519 761 l 519 0 l 208 0 z "},"2":{"ha":903,"x_min":56,"x_max":847,"o":"m 56 0 l 56 221 q 91 240 56 221 q 185 298 126 260 q 315 389 244 336 q 435 488 390 446 q 499 566 479 529 q 519 644 519 603 q 492 704 519 689 q 415 719 465 719 q 293 706 357 719 q 174 674 229 693 q 85 638 119 656 l 85 915 q 167 951 108 933 q 309 981 226 968 q 486 993 392 993 q 847 703 847 993 q 819 570 847 629 q 743 466 790 511 q 641 387 696 421 q 533 330 586 353 q 440 292 481 307 l 447 264 l 847 292 l 847 0 l 56 0 z "},"3":{"ha":929,"x_min":56,"x_max":874,"o":"m 444 -14 q 347 -11 400 -14 q 258 -3 293 -8 l 56 76 l 139 325 l 431 264 q 526 281 497 264 q 556 324 556 299 q 529 362 556 353 q 440 371 503 371 l 268 369 l 268 622 l 424 622 q 499 633 471 622 q 528 674 528 644 q 506 710 528 701 q 440 719 483 719 q 276 701 363 719 q 111 654 189 683 l 111 918 q 278 973 186 950 q 511 996 369 996 q 749 927 668 996 q 831 733 831 858 q 801 615 831 661 q 736 540 771 568 q 834 462 794 514 q 874 318 874 410 q 444 -14 874 -14 z "},"4":{"ha":1024,"x_min":14,"x_max":1010,"o":"m 518 0 l 518 139 l 14 139 l 14 350 l 413 983 l 829 983 l 857 899 l 829 760 l 829 392 l 1010 392 l 1010 153 l 829 139 l 829 0 l 518 0 m 368 392 l 518 392 l 518 667 l 493 667 l 368 392 z "},"5":{"ha":965,"x_min":56,"x_max":896,"o":"m 468 -14 q 370 -11 415 -14 q 286 -3 325 -8 l 56 75 l 125 338 l 440 261 q 538 284 507 261 q 568 350 568 307 q 537 402 568 379 q 428 425 506 425 l 111 425 l 111 983 l 840 983 l 840 749 l 493 763 l 435 763 l 435 657 l 528 657 q 808 575 721 657 q 896 338 896 493 q 788 80 896 174 q 468 -14 679 -14 z "},"6":{"ha":1011,"x_min":69,"x_max":942,"o":"m 517 -14 q 281 36 382 -14 q 125 192 181 86 q 69 463 69 297 q 109 720 69 617 q 216 884 149 824 q 367 971 283 944 q 540 997 451 997 q 641 992 588 997 q 740 978 694 986 q 806 961 785 971 l 932 849 l 821 633 l 554 721 q 431 677 464 721 q 397 563 397 633 l 544 604 q 689 590 618 604 q 817 540 760 575 q 908 447 874 506 q 942 301 942 389 q 890 135 942 207 q 744 25 839 64 q 517 -14 649 -14 m 515 267 q 599 289 576 267 q 622 338 622 311 q 599 393 622 369 q 518 417 575 417 q 447 409 479 417 q 404 389 415 401 q 437 301 406 335 q 515 267 468 267 z "},"7":{"ha":867,"x_min":42,"x_max":825,"o":"m 181 0 l 413 575 l 486 721 l 444 721 l 42 693 l 42 983 l 825 983 l 825 774 l 596 222 l 526 0 l 181 0 z "},"8":{"ha":1024,"x_min":69,"x_max":954,"o":"m 528 -14 q 371 1 451 -14 q 222 49 290 15 q 112 142 154 83 q 69 288 69 200 q 107 427 69 369 q 206 514 144 485 q 133 603 156 550 q 111 724 111 657 q 164 865 111 804 q 310 962 217 926 q 525 997 404 997 q 808 926 703 997 q 913 724 913 856 q 890 600 913 643 q 831 517 867 557 q 923 427 892 476 q 954 288 954 378 q 917 144 954 203 q 817 51 879 86 q 680 1 756 17 q 528 -14 604 -14 m 514 592 q 578 610 564 592 q 593 653 593 629 q 579 697 593 675 q 514 719 565 719 q 446 699 463 719 q 429 653 429 679 q 447 608 429 625 q 514 592 464 592 m 514 264 q 611 284 588 264 q 635 326 635 304 q 606 385 635 363 q 528 417 576 407 q 421 429 481 428 q 403 395 411 418 q 396 349 396 372 q 417 289 396 314 q 514 264 439 264 z "},"9":{"ha":1010,"x_min":69,"x_max":940,"o":"m 457 -14 q 354 -9 401 -14 q 278 1 307 -4 l 94 104 l 176 325 l 456 264 q 569 305 529 264 q 608 406 608 346 l 422 364 q 244 388 324 364 q 117 474 164 411 q 69 653 69 536 q 113 823 69 744 q 247 949 156 901 q 479 997 338 997 q 715 947 611 997 q 880 787 819 897 q 940 492 940 676 q 903 260 940 356 q 799 103 865 164 q 644 15 732 43 q 457 -14 557 -14 m 492 567 q 553 569 533 567 q 583 574 572 571 q 608 581 593 578 q 575 681 608 644 q 481 717 542 717 q 410 695 433 717 q 388 638 388 674 q 413 587 388 607 q 492 567 438 567 z "},"\r":{"ha":333,"x_min":0,"x_max":0,"o":""}," ":{"ha":333,"x_min":0,"x_max":0,"o":""},"A":{"ha":1154,"x_min":14,"x_max":1140,"o":"m 14 0 l 81 235 l 81 411 l 183 453 l 378 982 l 796 982 l 1033 360 l 1140 163 l 1140 0 l 839 0 l 769 207 l 393 207 l 333 0 l 14 0 m 485 450 l 693 450 l 601 726 l 572 726 l 485 450 z "},"Æ":{"ha":1525,"x_min":14,"x_max":1511,"o":"m 14 0 l 81 235 l 81 411 l 169 467 l 307 1010 l 514 982 l 653 982 l 653 983 l 1368 983 l 1438 942 l 1346 706 l 1221 719 l 961 719 l 961 608 l 1304 608 l 1304 379 l 1113 379 l 961 393 l 961 264 l 1346 264 l 1511 89 l 1429 0 l 653 0 l 625 83 l 653 222 l 393 222 l 333 0 l 14 0 m 485 492 l 653 471 l 653 760 l 550 760 l 485 492 z "},"Ǽ":{"ha":1525,"x_min":14,"x_max":1511,"o":"m 14 0 l 81 235 l 81 411 l 169 467 l 307 1010 l 514 982 l 653 982 l 653 983 l 1368 983 l 1438 942 l 1346 706 l 1221 719 l 961 719 l 961 608 l 1304 608 l 1304 379 l 1113 379 l 961 393 l 961 264 l 1346 264 l 1511 89 l 1429 0 l 653 0 l 625 83 l 653 222 l 393 222 l 333 0 l 14 0 m 485 492 l 653 471 l 653 760 l 550 760 l 485 492 m 639 1044 l 731 1311 l 929 1311 l 929 1226 l 738 1044 l 639 1044 z "},"Á":{"ha":1154,"x_min":14,"x_max":1140,"o":"m 14 0 l 81 235 l 81 411 l 183 453 l 378 982 l 796 982 l 1033 360 l 1140 163 l 1140 0 l 839 0 l 769 207 l 393 207 l 333 0 l 14 0 m 485 450 l 693 450 l 601 726 l 572 726 l 485 450 m 461 1044 l 553 1311 l 751 1311 l 751 1226 l 560 1044 l 461 1044 z "},"Ă":{"ha":1154,"x_min":14,"x_max":1140,"o":"m 14 0 l 81 235 l 81 411 l 183 453 l 378 982 l 796 982 l 1033 360 l 1140 163 l 1140 0 l 839 0 l 769 207 l 393 207 l 333 0 l 14 0 m 485 450 l 693 450 l 601 726 l 572 726 l 485 450 m 583 1072 q 406 1127 458 1072 q 354 1294 354 1182 l 464 1294 q 469 1266 464 1282 q 500 1238 475 1250 q 583 1225 525 1225 q 666 1238 642 1225 q 695 1266 690 1250 q 700 1294 700 1282 l 813 1294 q 760 1126 813 1181 q 583 1072 708 1072 z "},"Ắ":{"ha":1154,"x_min":14,"x_max":1140,"o":"m 14 0 l 81 235 l 81 411 l 183 453 l 378 982 l 796 982 l 1033 360 l 1140 163 l 1140 0 l 839 0 l 769 207 l 393 207 l 333 0 l 14 0 m 485 450 l 693 450 l 601 726 l 572 726 l 485 450 z "},"Ặ":{"ha":1154,"x_min":14,"x_max":1140,"o":"m 14 0 l 81 235 l 81 411 l 183 453 l 378 982 l 796 982 l 1033 360 l 1140 163 l 1140 0 l 839 0 l 769 207 l 393 207 l 333 0 l 14 0 m 485 450 l 693 450 l 601 726 l 572 726 l 485 450 m 583 1072 q 406 1127 458 1072 q 354 1294 354 1182 l 464 1294 q 469 1266 464 1282 q 500 1238 475 1250 q 583 1225 525 1225 q 666 1238 642 1225 q 695 1266 690 1250 q 700 1294 700 1282 l 813 1294 q 760 1126 813 1181 q 583 1072 708 1072 z "},"Ằ":{"ha":1154,"x_min":14,"x_max":1140,"o":"m 14 0 l 81 235 l 81 411 l 183 453 l 378 982 l 796 982 l 1033 360 l 1140 163 l 1140 0 l 839 0 l 769 207 l 393 207 l 333 0 l 14 0 m 485 450 l 693 450 l 601 726 l 572 726 l 485 450 z "},"Ẳ":{"ha":1154,"x_min":14,"x_max":1140,"o":"m 14 0 l 81 235 l 81 411 l 183 453 l 378 982 l 796 982 l 1033 360 l 1140 163 l 1140 0 l 839 0 l 769 207 l 393 207 l 333 0 l 14 0 m 485 450 l 693 450 l 601 726 l 572 726 l 485 450 z "},"Ẵ":{"ha":1154,"x_min":14,"x_max":1140,"o":"m 14 0 l 81 235 l 81 411 l 183 453 l 378 982 l 796 982 l 1033 360 l 1140 163 l 1140 0 l 839 0 l 769 207 l 393 207 l 333 0 l 14 0 m 485 450 l 693 450 l 601 726 l 572 726 l 485 450 z "},"Â":{"ha":1154,"x_min":14,"x_max":1140,"o":"m 14 0 l 81 235 l 81 411 l 183 453 l 378 982 l 796 982 l 1033 360 l 1140 163 l 1140 0 l 839 0 l 769 207 l 393 207 l 333 0 l 14 0 m 485 450 l 693 450 l 601 726 l 572 726 l 485 450 m 354 1086 l 506 1308 l 646 1308 l 796 1086 l 656 1086 l 576 1167 l 493 1086 l 354 1086 z "},"Ấ":{"ha":1154,"x_min":14,"x_max":1140,"o":"m 14 0 l 81 235 l 81 411 l 183 453 l 378 982 l 796 982 l 1033 360 l 1140 163 l 1140 0 l 839 0 l 769 207 l 393 207 l 333 0 l 14 0 m 485 450 l 693 450 l 601 726 l 572 726 l 485 450 z "},"Ậ":{"ha":1154,"x_min":14,"x_max":1140,"o":"m 14 0 l 81 235 l 81 411 l 183 453 l 378 982 l 796 982 l 1033 360 l 1140 163 l 1140 0 l 839 0 l 769 207 l 393 207 l 333 0 l 14 0 m 485 450 l 693 450 l 601 726 l 572 726 l 485 450 m 354 1086 l 506 1308 l 646 1308 l 796 1086 l 656 1086 l 576 1167 l 493 1086 l 354 1086 z "},"Ầ":{"ha":1154,"x_min":14,"x_max":1140,"o":"m 14 0 l 81 235 l 81 411 l 183 453 l 378 982 l 796 982 l 1033 360 l 1140 163 l 1140 0 l 839 0 l 769 207 l 393 207 l 333 0 l 14 0 m 485 450 l 693 450 l 601 726 l 572 726 l 485 450 z "},"Ẩ":{"ha":1154,"x_min":14,"x_max":1140,"o":"m 14 0 l 81 235 l 81 411 l 183 453 l 378 982 l 796 982 l 1033 360 l 1140 163 l 1140 0 l 839 0 l 769 207 l 393 207 l 333 0 l 14 0 m 485 450 l 693 450 l 601 726 l 572 726 l 485 450 z "},"Ẫ":{"ha":1154,"x_min":14,"x_max":1140,"o":"m 14 0 l 81 235 l 81 411 l 183 453 l 378 982 l 796 982 l 1033 360 l 1140 163 l 1140 0 l 839 0 l 769 207 l 393 207 l 333 0 l 14 0 m 485 450 l 693 450 l 601 726 l 572 726 l 485 450 z "},"Ȁ":{"ha":1154,"x_min":14,"x_max":1140,"o":"m 14 0 l 81 235 l 81 411 l 183 453 l 378 982 l 796 982 l 1033 360 l 1140 163 l 1140 0 l 839 0 l 769 207 l 393 207 l 333 0 l 14 0 m 485 450 l 693 450 l 601 726 l 572 726 l 485 450 z "},"Ä":{"ha":1154,"x_min":14,"x_max":1140,"o":"m 14 0 l 81 235 l 81 411 l 183 453 l 378 982 l 796 982 l 1033 360 l 1140 163 l 1140 0 l 839 0 l 769 207 l 393 207 l 333 0 l 14 0 m 485 450 l 693 450 l 601 726 l 572 726 l 485 450 z "},"Ạ":{"ha":1154,"x_min":14,"x_max":1140,"o":"m 14 0 l 81 235 l 81 411 l 183 453 l 378 982 l 796 982 l 1033 360 l 1140 163 l 1140 0 l 839 0 l 769 207 l 393 207 l 333 0 l 14 0 m 485 450 l 693 450 l 601 726 l 572 726 l 485 450 z "},"À":{"ha":1154,"x_min":14,"x_max":1140,"o":"m 14 0 l 81 235 l 81 411 l 183 453 l 378 982 l 796 982 l 1033 360 l 1140 163 l 1140 0 l 839 0 l 769 207 l 393 207 l 333 0 l 14 0 m 485 450 l 693 450 l 601 726 l 572 726 l 485 450 m 583 1044 l 392 1226 l 392 1311 l 590 1311 l 682 1044 l 583 1044 z "},"Ả":{"ha":1154,"x_min":14,"x_max":1140,"o":"m 14 0 l 81 235 l 81 411 l 183 453 l 378 982 l 796 982 l 1033 360 l 1140 163 l 1140 0 l 839 0 l 769 207 l 393 207 l 333 0 l 14 0 m 485 450 l 693 450 l 601 726 l 572 726 l 485 450 m 514 1044 l 514 1058 q 529 1116 514 1092 q 565 1158 544 1140 q 601 1188 586 1175 q 617 1214 617 1201 q 613 1222 617 1219 q 599 1225 610 1225 q 541 1207 572 1225 q 493 1169 510 1189 l 431 1281 q 499 1325 450 1300 q 631 1350 547 1350 q 729 1323 694 1350 q 764 1246 764 1296 q 747 1178 764 1206 q 708 1131 731 1151 q 668 1092 685 1111 q 651 1044 651 1072 l 514 1044 z "},"Ȃ":{"ha":1154,"x_min":14,"x_max":1140,"o":"m 14 0 l 81 235 l 81 411 l 183 453 l 378 982 l 796 982 l 1033 360 l 1140 163 l 1140 0 l 839 0 l 769 207 l 393 207 l 333 0 l 14 0 m 485 450 l 693 450 l 601 726 l 572 726 l 485 450 z "},"Ā":{"ha":1154,"x_min":14,"x_max":1140,"o":"m 14 0 l 81 235 l 81 411 l 183 453 l 378 982 l 796 982 l 1033 360 l 1140 163 l 1140 0 l 839 0 l 769 207 l 393 207 l 333 0 l 14 0 m 485 450 l 693 450 l 601 726 l 572 726 l 485 450 m 333 1100 l 333 1239 l 833 1239 l 833 1100 l 333 1100 z "},"Ą":{"ha":1154,"x_min":14,"x_max":1140,"o":"m 14 0 l 81 235 l 81 411 l 183 453 l 378 982 l 796 982 l 1033 360 l 1140 163 l 1140 0 l 839 0 l 769 207 l 393 207 l 333 0 l 14 0 m 485 450 l 693 450 l 601 726 l 572 726 l 485 450 m 936 -265 q 820 -226 864 -265 q 776 -122 776 -186 l 840 3 l 979 3 l 950 -76 q 949 -101 944 -90 q 968 -112 954 -112 q 1022 -103 993 -112 q 1071 -76 1051 -93 l 1131 -174 q 1092 -210 1118 -187 q 1026 -249 1065 -232 q 936 -265 988 -265 z "},"Å":{"ha":1154,"x_min":14,"x_max":1140,"o":"m 14 0 l 81 235 l 81 411 l 183 453 l 378 982 l 796 982 l 1033 360 l 1140 163 l 1140 0 l 839 0 l 769 207 l 393 207 l 333 0 l 14 0 m 485 450 l 693 450 l 601 726 l 572 726 l 485 450 m 581 1044 q 499 1067 536 1044 q 440 1126 463 1089 q 418 1207 418 1163 q 440 1288 418 1251 q 499 1347 463 1325 q 581 1369 536 1369 q 662 1347 625 1369 q 721 1288 699 1325 q 743 1207 743 1251 q 721 1126 743 1163 q 662 1067 699 1089 q 581 1044 625 1044 m 581 1171 q 606 1182 596 1171 q 617 1207 617 1193 q 606 1233 617 1222 q 581 1243 596 1243 q 556 1233 567 1243 q 544 1207 544 1222 q 556 1182 544 1193 q 581 1171 567 1171 z "},"Ǻ":{"ha":1154,"x_min":14,"x_max":1140,"o":"m 14 0 l 81 235 l 81 411 l 183 453 l 378 982 l 796 982 l 1033 360 l 1140 163 l 1140 0 l 839 0 l 769 207 l 393 207 l 333 0 l 14 0 m 485 450 l 693 450 l 601 726 l 572 726 l 485 450 m 581 1044 q 499 1067 536 1044 q 440 1126 463 1089 q 418 1207 418 1163 q 440 1288 418 1251 q 499 1347 463 1325 q 581 1369 536 1369 q 662 1347 625 1369 q 721 1288 699 1325 q 743 1207 743 1251 q 721 1126 743 1163 q 662 1067 699 1089 q 581 1044 625 1044 m 581 1171 q 606 1182 596 1171 q 617 1207 617 1193 q 606 1233 617 1222 q 581 1243 596 1243 q 556 1233 567 1243 q 544 1207 544 1222 q 556 1182 544 1193 q 581 1171 567 1171 m 461 1429 l 553 1696 l 751 1696 l 751 1611 l 560 1429 l 461 1429 z "},"Ã":{"ha":1154,"x_min":14,"x_max":1140,"o":"m 14 0 l 81 235 l 81 411 l 183 453 l 378 982 l 796 982 l 1033 360 l 1140 163 l 1140 0 l 839 0 l 769 207 l 393 207 l 333 0 l 14 0 m 485 450 l 693 450 l 601 726 l 572 726 l 485 450 m 694 1058 q 610 1076 649 1058 q 542 1110 572 1093 q 486 1128 511 1128 l 446 1072 l 333 1072 q 347 1191 333 1138 q 390 1276 360 1244 q 472 1308 421 1308 q 555 1288 517 1308 q 625 1246 593 1267 q 682 1225 657 1225 l 722 1294 l 835 1294 q 805 1122 835 1186 q 694 1058 775 1058 z "},"B":{"ha":1138,"x_min":83,"x_max":1082,"o":"m 111 0 l 111 761 l 83 900 l 111 983 l 639 983 q 890 922 796 983 q 985 736 985 861 q 960 624 985 668 q 899 550 936 581 q 988 509 946 539 q 1056 430 1029 479 q 1082 308 1082 381 q 997 81 1082 163 q 722 0 911 0 l 111 0 m 417 601 l 581 601 q 649 616 628 601 q 669 661 669 631 q 639 706 669 693 q 567 719 608 719 l 417 719 l 417 601 m 417 264 l 653 264 q 731 281 708 264 q 753 328 753 299 q 667 394 753 394 l 417 394 l 417 264 z "},"C":{"ha":993,"x_min":47,"x_max":951,"o":"m 547 -14 q 362 8 451 -14 q 201 86 272 31 q 89 240 131 142 q 47 492 47 339 q 88 726 47 629 q 197 882 128 822 q 357 969 267 942 q 547 997 447 997 q 685 986 618 997 q 783 961 753 975 l 951 821 l 813 592 l 547 714 q 459 688 500 714 q 392 613 418 663 q 367 492 367 564 q 395 351 367 400 q 477 283 424 301 q 604 265 531 265 q 738 280 675 265 q 850 314 801 294 q 924 347 899 333 l 924 69 q 845 35 896 56 q 720 1 794 15 q 547 -14 646 -14 z "},"Ć":{"ha":993,"x_min":47,"x_max":951,"o":"m 547 -14 q 362 8 451 -14 q 201 86 272 31 q 89 240 131 142 q 47 492 47 339 q 88 726 47 629 q 197 882 128 822 q 357 969 267 942 q 547 997 447 997 q 685 986 618 997 q 783 961 753 975 l 951 821 l 813 592 l 547 714 q 459 688 500 714 q 392 613 418 663 q 367 492 367 564 q 395 351 367 400 q 477 283 424 301 q 604 265 531 265 q 738 280 675 265 q 850 314 801 294 q 924 347 899 333 l 924 69 q 845 35 896 56 q 720 1 794 15 q 547 -14 646 -14 m 426 1056 l 518 1322 l 717 1322 l 717 1238 l 525 1056 l 426 1056 z "},"Č":{"ha":993,"x_min":47,"x_max":951,"o":"m 547 -14 q 362 8 451 -14 q 201 86 272 31 q 89 240 131 142 q 47 492 47 339 q 88 726 47 629 q 197 882 128 822 q 357 969 267 942 q 547 997 447 997 q 685 986 618 997 q 783 961 753 975 l 951 821 l 813 592 l 547 714 q 459 688 500 714 q 392 613 418 663 q 367 492 367 564 q 395 351 367 400 q 477 283 424 301 q 604 265 531 265 q 738 280 675 265 q 850 314 801 294 q 924 347 899 333 l 924 69 q 845 35 896 56 q 720 1 794 15 q 547 -14 646 -14 z "},"Ç":{"ha":993,"x_min":47,"x_max":951,"o":"m 547 -14 q 362 8 451 -14 q 201 86 272 31 q 89 240 131 142 q 47 492 47 339 q 88 726 47 629 q 197 882 128 822 q 357 969 267 942 q 547 997 447 997 q 685 986 618 997 q 783 961 753 975 l 951 821 l 813 592 l 547 714 q 459 688 500 714 q 392 613 418 663 q 367 492 367 564 q 395 351 367 400 q 477 283 424 301 q 604 265 531 265 q 738 280 675 265 q 850 314 801 294 q 924 347 899 333 l 924 69 q 845 35 896 56 q 720 1 794 15 q 547 -14 646 -14 m 539 -306 q 433 -288 471 -306 q 394 -271 394 -271 l 394 -132 q 410 -140 394 -132 q 453 -158 426 -149 q 514 -167 481 -167 q 550 -158 532 -167 q 568 -136 568 -150 l 478 -97 l 519 0 l 643 0 l 629 -58 l 728 -132 q 700 -225 728 -186 q 628 -285 672 -264 q 539 -306 585 -306 z "},"Ĉ":{"ha":993,"x_min":47,"x_max":951,"o":"m 547 -14 q 362 8 451 -14 q 201 86 272 31 q 89 240 131 142 q 47 492 47 339 q 88 726 47 629 q 197 882 128 822 q 357 969 267 942 q 547 997 447 997 q 685 986 618 997 q 783 961 753 975 l 951 821 l 813 592 l 547 714 q 459 688 500 714 q 392 613 418 663 q 367 492 367 564 q 395 351 367 400 q 477 283 424 301 q 604 265 531 265 q 738 280 675 265 q 850 314 801 294 q 924 347 899 333 l 924 69 q 845 35 896 56 q 720 1 794 15 q 547 -14 646 -14 m 319 1097 l 471 1319 l 611 1319 l 761 1097 l 621 1097 l 542 1178 l 458 1097 l 319 1097 z "},"Ċ":{"ha":993,"x_min":47,"x_max":951,"o":"m 547 -14 q 362 8 451 -14 q 201 86 272 31 q 89 240 131 142 q 47 492 47 339 q 88 726 47 629 q 197 882 128 822 q 357 969 267 942 q 547 997 447 997 q 685 986 618 997 q 783 961 753 975 l 951 821 l 813 592 l 547 714 q 459 688 500 714 q 392 613 418 663 q 367 492 367 564 q 395 351 367 400 q 477 283 424 301 q 604 265 531 265 q 738 280 675 265 q 850 314 801 294 q 924 347 899 333 l 924 69 q 845 35 896 56 q 720 1 794 15 q 547 -14 646 -14 z "},"D":{"ha":1153,"x_min":83,"x_max":1097,"o":"m 111 0 l 111 760 l 83 899 l 111 983 l 582 983 q 773 965 681 983 q 938 894 865 946 q 1054 747 1011 843 q 1097 499 1097 651 q 1053 248 1097 346 q 936 96 1010 150 q 771 21 863 42 q 582 0 679 0 l 111 0 m 419 264 l 525 264 q 663 282 607 264 q 749 351 719 300 q 778 499 778 401 q 748 644 778 597 q 662 705 718 690 q 525 719 606 719 l 419 719 l 419 264 z "},"Ǳ":{"ha":2067,"x_min":83,"x_max":2025,"o":"m 111 0 l 111 760 l 83 899 l 111 983 l 582 983 q 773 965 681 983 q 938 894 865 946 q 1054 747 1011 843 q 1097 499 1097 651 q 1053 248 1097 346 q 936 96 1010 150 q 771 21 863 42 q 582 0 679 0 l 111 0 m 419 264 l 525 264 q 663 282 607 264 q 749 351 719 300 q 778 499 778 401 q 748 644 778 597 q 662 705 718 690 q 525 719 606 719 l 419 719 l 419 264 m 1224 0 l 1181 83 l 1614 721 l 1224 721 l 1224 983 l 2022 983 l 2022 819 l 1660 263 l 1703 263 l 2025 290 l 2025 0 l 1224 0 z "},"Ǆ":{"ha":2067,"x_min":83,"x_max":2025,"o":"m 111 0 l 111 760 l 83 899 l 111 983 l 582 983 q 773 965 681 983 q 938 894 865 946 q 1054 747 1011 843 q 1097 499 1097 651 q 1053 248 1097 346 q 936 96 1010 150 q 771 21 863 42 q 582 0 679 0 l 111 0 m 419 264 l 525 264 q 663 282 607 264 q 749 351 719 300 q 778 499 778 401 q 748 644 778 597 q 662 705 718 690 q 525 719 606 719 l 419 719 l 419 264 m 1224 0 l 1181 83 l 1614 721 l 1224 721 l 1224 983 l 2022 983 l 2022 819 l 1660 263 l 1703 263 l 2025 290 l 2025 0 l 1224 0 z "},"Ď":{"ha":1153,"x_min":83,"x_max":1097,"o":"m 111 0 l 111 760 l 83 899 l 111 983 l 582 983 q 773 965 681 983 q 938 894 865 946 q 1054 747 1011 843 q 1097 499 1097 651 q 1053 248 1097 346 q 936 96 1010 150 q 771 21 863 42 q 582 0 679 0 l 111 0 m 419 264 l 525 264 q 663 282 607 264 q 749 351 719 300 q 778 499 778 401 q 748 644 778 597 q 662 705 718 690 q 525 719 606 719 l 419 719 l 419 264 z "},"Đ":{"ha":1153,"x_min":-17,"x_max":1097,"o":"z "},"Δ":{"ha":1138,"x_min":14,"x_max":1124,"o":"m 14 0 l 521 1049 l 622 1049 l 1124 0 l 14 0 m 418 263 l 721 263 l 572 624 l 569 624 l 418 263 z "},"ǲ":{"ha":1914,"x_min":83,"x_max":1886,"o":"m 111 0 l 111 760 l 83 899 l 111 983 l 582 983 q 773 965 681 983 q 938 894 865 946 q 1054 747 1011 843 q 1097 499 1097 651 q 1053 248 1097 346 q 936 96 1010 150 q 771 21 863 42 q 582 0 679 0 l 111 0 m 419 264 l 525 264 q 663 282 607 264 q 749 351 719 300 q 778 499 778 401 q 748 644 778 597 q 662 705 718 690 q 525 719 606 719 l 419 719 l 419 264 m 1181 0 l 1181 125 l 1469 435 l 1182 435 l 1182 657 l 1861 657 l 1861 526 l 1669 301 l 1586 222 l 1628 222 l 1886 250 l 1886 0 l 1181 0 z "},"ǅ":{"ha":1914,"x_min":83,"x_max":1886,"o":"m 111 0 l 111 760 l 83 899 l 111 983 l 582 983 q 773 965 681 983 q 938 894 865 946 q 1054 747 1011 843 q 1097 499 1097 651 q 1053 248 1097 346 q 936 96 1010 150 q 771 21 863 42 q 582 0 679 0 l 111 0 m 419 264 l 525 264 q 663 282 607 264 q 749 351 719 300 q 778 499 778 401 q 748 644 778 597 q 662 705 718 690 q 525 719 606 719 l 419 719 l 419 264 z "},"E":{"ha":969,"x_min":83,"x_max":969,"o":"m 111 0 l 83 83 l 111 222 l 111 983 l 826 983 l 896 942 l 804 706 l 679 719 l 419 719 l 419 608 l 763 608 l 763 379 l 571 379 l 419 393 l 419 264 l 804 264 l 969 89 l 888 0 l 111 0 z "},"É":{"ha":969,"x_min":83,"x_max":969,"o":"m 111 0 l 83 83 l 111 222 l 111 983 l 826 983 l 896 942 l 804 706 l 679 719 l 419 719 l 419 608 l 763 608 l 763 379 l 571 379 l 419 393 l 419 264 l 804 264 l 969 89 l 888 0 l 111 0 m 397 1044 l 489 1311 l 688 1311 l 688 1226 l 496 1044 l 397 1044 z "},"Ĕ":{"ha":969,"x_min":83,"x_max":969,"o":"m 111 0 l 83 83 l 111 222 l 111 983 l 826 983 l 896 942 l 804 706 l 679 719 l 419 719 l 419 608 l 763 608 l 763 379 l 571 379 l 419 393 l 419 264 l 804 264 l 969 89 l 888 0 l 111 0 m 519 1072 q 342 1127 394 1072 q 290 1294 290 1182 l 400 1294 q 406 1266 400 1282 q 436 1238 411 1250 q 519 1225 461 1225 q 602 1238 578 1225 q 631 1266 626 1250 q 636 1294 636 1282 l 749 1294 q 697 1126 749 1181 q 519 1072 644 1072 z "},"Ě":{"ha":969,"x_min":83,"x_max":969,"o":"m 111 0 l 83 83 l 111 222 l 111 983 l 826 983 l 896 942 l 804 706 l 679 719 l 419 719 l 419 608 l 763 608 l 763 379 l 571 379 l 419 393 l 419 264 l 804 264 l 969 89 l 888 0 l 111 0 z "},"Ê":{"ha":969,"x_min":83,"x_max":969,"o":"m 111 0 l 83 83 l 111 222 l 111 983 l 826 983 l 896 942 l 804 706 l 679 719 l 419 719 l 419 608 l 763 608 l 763 379 l 571 379 l 419 393 l 419 264 l 804 264 l 969 89 l 888 0 l 111 0 m 290 1086 l 442 1308 l 582 1308 l 732 1086 l 592 1086 l 513 1167 l 429 1086 l 290 1086 z "},"Ế":{"ha":969,"x_min":83,"x_max":969,"o":"m 111 0 l 83 83 l 111 222 l 111 983 l 826 983 l 896 942 l 804 706 l 679 719 l 419 719 l 419 608 l 763 608 l 763 379 l 571 379 l 419 393 l 419 264 l 804 264 l 969 89 l 888 0 l 111 0 z "},"Ệ":{"ha":969,"x_min":83,"x_max":969,"o":"m 111 0 l 83 83 l 111 222 l 111 983 l 826 983 l 896 942 l 804 706 l 679 719 l 419 719 l 419 608 l 763 608 l 763 379 l 571 379 l 419 393 l 419 264 l 804 264 l 969 89 l 888 0 l 111 0 m 290 1086 l 442 1308 l 582 1308 l 732 1086 l 592 1086 l 513 1167 l 429 1086 l 290 1086 z "},"Ề":{"ha":969,"x_min":83,"x_max":969,"o":"m 111 0 l 83 83 l 111 222 l 111 983 l 826 983 l 896 942 l 804 706 l 679 719 l 419 719 l 419 608 l 763 608 l 763 379 l 571 379 l 419 393 l 419 264 l 804 264 l 969 89 l 888 0 l 111 0 z "},"Ể":{"ha":969,"x_min":83,"x_max":969,"o":"m 111 0 l 83 83 l 111 222 l 111 983 l 826 983 l 896 942 l 804 706 l 679 719 l 419 719 l 419 608 l 763 608 l 763 379 l 571 379 l 419 393 l 419 264 l 804 264 l 969 89 l 888 0 l 111 0 z "},"Ễ":{"ha":969,"x_min":83,"x_max":969,"o":"m 111 0 l 83 83 l 111 222 l 111 983 l 826 983 l 896 942 l 804 706 l 679 719 l 419 719 l 419 608 l 763 608 l 763 379 l 571 379 l 419 393 l 419 264 l 804 264 l 969 89 l 888 0 l 111 0 z "},"Ȅ":{"ha":969,"x_min":83,"x_max":969,"o":"m 111 0 l 83 83 l 111 222 l 111 983 l 826 983 l 896 942 l 804 706 l 679 719 l 419 719 l 419 608 l 763 608 l 763 379 l 571 379 l 419 393 l 419 264 l 804 264 l 969 89 l 888 0 l 111 0 z "},"Ë":{"ha":969,"x_min":83,"x_max":969,"o":"m 111 0 l 83 83 l 111 222 l 111 983 l 826 983 l 896 942 l 804 706 l 679 719 l 419 719 l 419 608 l 763 608 l 763 379 l 571 379 l 419 393 l 419 264 l 804 264 l 969 89 l 888 0 l 111 0 z "},"Ė":{"ha":969,"x_min":83,"x_max":969,"o":"m 111 0 l 83 83 l 111 222 l 111 983 l 826 983 l 896 942 l 804 706 l 679 719 l 419 719 l 419 608 l 763 608 l 763 379 l 571 379 l 419 393 l 419 264 l 804 264 l 969 89 l 888 0 l 111 0 z "},"Ẹ":{"ha":969,"x_min":83,"x_max":969,"o":"m 111 0 l 83 83 l 111 222 l 111 983 l 826 983 l 896 942 l 804 706 l 679 719 l 419 719 l 419 608 l 763 608 l 763 379 l 571 379 l 419 393 l 419 264 l 804 264 l 969 89 l 888 0 l 111 0 z "},"È":{"ha":969,"x_min":83,"x_max":969,"o":"m 111 0 l 83 83 l 111 222 l 111 983 l 826 983 l 896 942 l 804 706 l 679 719 l 419 719 l 419 608 l 763 608 l 763 379 l 571 379 l 419 393 l 419 264 l 804 264 l 969 89 l 888 0 l 111 0 m 519 1044 l 328 1226 l 328 1311 l 526 1311 l 618 1044 l 519 1044 z "},"Ẻ":{"ha":969,"x_min":83,"x_max":969,"o":"m 111 0 l 83 83 l 111 222 l 111 983 l 826 983 l 896 942 l 804 706 l 679 719 l 419 719 l 419 608 l 763 608 l 763 379 l 571 379 l 419 393 l 419 264 l 804 264 l 969 89 l 888 0 l 111 0 m 450 1044 l 450 1058 q 465 1116 450 1092 q 501 1158 481 1140 q 538 1188 522 1175 q 553 1214 553 1201 q 549 1222 553 1219 q 535 1225 546 1225 q 477 1207 508 1225 q 429 1169 446 1189 l 367 1281 q 435 1325 386 1300 q 567 1350 483 1350 q 665 1323 631 1350 q 700 1246 700 1296 q 683 1178 700 1206 q 644 1131 667 1151 q 604 1092 621 1111 q 588 1044 588 1072 l 450 1044 z "},"Ȇ":{"ha":969,"x_min":83,"x_max":969,"o":"m 111 0 l 83 83 l 111 222 l 111 983 l 826 983 l 896 942 l 804 706 l 679 719 l 419 719 l 419 608 l 763 608 l 763 379 l 571 379 l 419 393 l 419 264 l 804 264 l 969 89 l 888 0 l 111 0 z "},"Ē":{"ha":969,"x_min":83,"x_max":969,"o":"m 111 0 l 83 83 l 111 222 l 111 983 l 826 983 l 896 942 l 804 706 l 679 719 l 419 719 l 419 608 l 763 608 l 763 379 l 571 379 l 419 393 l 419 264 l 804 264 l 969 89 l 888 0 l 111 0 m 269 1100 l 269 1239 l 769 1239 l 769 1100 l 269 1100 z "},"Ŋ":{"ha":1156,"x_min":83,"x_max":1072,"o":"m 111 0 l 111 760 l 83 899 l 111 982 l 390 982 l 671 632 l 738 517 l 751 517 l 751 982 l 1072 982 l 1072 899 l 1058 760 l 1058 -32 q 1019 -203 1058 -135 q 909 -306 979 -272 q 749 -340 839 -340 l 569 -287 l 625 -51 l 692 -69 q 751 0 751 -69 q 742 44 751 22 q 717 89 732 67 l 433 475 l 419 475 l 419 392 l 433 0 l 111 0 z "},"Ę":{"ha":969,"x_min":83,"x_max":1043,"o":"m 111 0 l 83 83 l 111 222 l 111 983 l 826 983 l 896 942 l 804 706 l 679 719 l 419 719 l 419 608 l 763 608 l 763 379 l 571 379 l 419 393 l 419 264 l 804 264 l 969 89 l 888 0 l 111 0 m 849 -264 q 733 -224 776 -264 q 689 -121 689 -185 l 753 4 l 892 4 l 863 -75 q 862 -100 857 -89 q 881 -111 867 -111 q 935 -101 906 -111 q 983 -75 964 -92 l 1043 -172 q 1004 -208 1031 -186 q 939 -247 978 -231 q 849 -264 900 -264 z "},"Ð":{"ha":1153,"x_min":-17,"x_max":1097,"o":"m 111 0 l 111 760 l 83 899 l 111 983 l 582 983 q 773 965 681 983 q 938 894 865 946 q 1054 747 1011 843 q 1097 499 1097 651 q 1053 248 1097 346 q 936 96 1010 150 q 771 21 863 42 q 582 0 679 0 l 111 0 m 419 264 l 525 264 q 663 282 607 264 q 749 351 719 300 q 778 499 778 401 q 748 644 778 597 q 662 705 718 690 q 525 719 606 719 l 419 719 l 419 264 m -17 428 l -15 539 l 611 539 l 611 428 l -17 428 z "},"Ẽ":{"ha":969,"x_min":83,"x_max":969,"o":"m 111 0 l 83 83 l 111 222 l 111 983 l 826 983 l 896 942 l 804 706 l 679 719 l 419 719 l 419 608 l 763 608 l 763 379 l 571 379 l 419 393 l 419 264 l 804 264 l 969 89 l 888 0 l 111 0 m 631 1058 q 547 1076 585 1058 q 478 1110 508 1093 q 422 1128 447 1128 l 382 1072 l 269 1072 q 283 1191 269 1138 q 326 1276 296 1244 q 408 1308 357 1308 q 491 1288 453 1308 q 561 1246 529 1267 q 618 1225 593 1225 l 658 1294 l 771 1294 q 741 1122 771 1186 q 631 1058 711 1058 z "},"F":{"ha":904,"x_min":83,"x_max":896,"o":"m 111 0 l 111 758 l 83 900 l 111 983 l 826 983 l 896 942 l 804 706 l 679 719 l 403 719 l 417 608 l 763 608 l 763 379 l 567 379 l 417 393 l 417 221 l 432 82 l 417 0 l 111 0 z "},"G":{"ha":1074,"x_min":47,"x_max":1035,"o":"m 603 -14 q 381 8 482 -14 q 204 85 279 29 q 88 239 129 140 q 47 492 47 338 q 90 743 47 644 q 208 897 133 842 q 376 975 282 953 q 574 997 471 997 q 699 990 642 997 q 801 972 756 983 l 990 863 l 893 618 l 586 711 q 476 692 526 711 q 397 626 426 674 q 367 490 367 578 q 424 303 367 357 q 588 250 482 250 q 654 255 628 250 q 699 267 681 260 l 699 343 l 578 343 l 578 563 l 1019 563 l 1035 479 l 1004 336 l 1004 44 q 935 25 989 39 q 797 -1 882 11 q 603 -14 713 -14 z "},"Ğ":{"ha":1074,"x_min":47,"x_max":1035,"o":"m 603 -14 q 381 8 482 -14 q 204 85 279 29 q 88 239 129 140 q 47 492 47 338 q 90 743 47 644 q 208 897 133 842 q 376 975 282 953 q 574 997 471 997 q 699 990 642 997 q 801 972 756 983 l 990 863 l 893 618 l 586 711 q 476 692 526 711 q 397 626 426 674 q 367 490 367 578 q 424 303 367 357 q 588 250 482 250 q 654 255 628 250 q 699 267 681 260 l 699 343 l 578 343 l 578 563 l 1019 563 l 1035 479 l 1004 336 l 1004 44 q 935 25 989 39 q 797 -1 882 11 q 603 -14 713 -14 m 557 1085 q 380 1140 432 1085 q 328 1307 328 1194 l 438 1307 q 443 1278 438 1294 q 474 1250 449 1263 q 557 1238 499 1238 q 640 1250 615 1238 q 669 1278 664 1263 q 674 1307 674 1294 l 786 1307 q 734 1139 786 1193 q 557 1085 682 1085 z "},"Ǧ":{"ha":1074,"x_min":47,"x_max":1035,"o":"m 603 -14 q 381 8 482 -14 q 204 85 279 29 q 88 239 129 140 q 47 492 47 338 q 90 743 47 644 q 208 897 133 842 q 376 975 282 953 q 574 997 471 997 q 699 990 642 997 q 801 972 756 983 l 990 863 l 893 618 l 586 711 q 476 692 526 711 q 397 626 426 674 q 367 490 367 578 q 424 303 367 357 q 588 250 482 250 q 654 255 628 250 q 699 267 681 260 l 699 343 l 578 343 l 578 563 l 1019 563 l 1035 479 l 1004 336 l 1004 44 q 935 25 989 39 q 797 -1 882 11 q 603 -14 713 -14 z "},"Ĝ":{"ha":1074,"x_min":47,"x_max":1035,"o":"m 603 -14 q 381 8 482 -14 q 204 85 279 29 q 88 239 129 140 q 47 492 47 338 q 90 743 47 644 q 208 897 133 842 q 376 975 282 953 q 574 997 471 997 q 699 990 642 997 q 801 972 756 983 l 990 863 l 893 618 l 586 711 q 476 692 526 711 q 397 626 426 674 q 367 490 367 578 q 424 303 367 357 q 588 250 482 250 q 654 255 628 250 q 699 267 681 260 l 699 343 l 578 343 l 578 563 l 1019 563 l 1035 479 l 1004 336 l 1004 44 q 935 25 989 39 q 797 -1 882 11 q 603 -14 713 -14 m 328 1099 l 479 1321 l 619 1321 l 769 1099 l 629 1099 l 550 1179 l 467 1099 l 328 1099 z "},"Ģ":{"ha":1074,"x_min":47,"x_max":1035,"o":"m 603 -14 q 381 8 482 -14 q 204 85 279 29 q 88 239 129 140 q 47 492 47 338 q 90 743 47 644 q 208 897 133 842 q 376 975 282 953 q 574 997 471 997 q 699 990 642 997 q 801 972 756 983 l 990 863 l 893 618 l 586 711 q 476 692 526 711 q 397 626 426 674 q 367 490 367 578 q 424 303 367 357 q 588 250 482 250 q 654 255 628 250 q 699 267 681 260 l 699 343 l 578 343 l 578 563 l 1019 563 l 1035 479 l 1004 336 l 1004 44 q 935 25 989 39 q 797 -1 882 11 q 603 -14 713 -14 z "},"Ġ":{"ha":1074,"x_min":47,"x_max":1035,"o":"m 603 -14 q 381 8 482 -14 q 204 85 279 29 q 88 239 129 140 q 47 492 47 338 q 90 743 47 644 q 208 897 133 842 q 376 975 282 953 q 574 997 471 997 q 699 990 642 997 q 801 972 756 983 l 990 863 l 893 618 l 586 711 q 476 692 526 711 q 397 626 426 674 q 367 490 367 578 q 424 303 367 357 q 588 250 482 250 q 654 255 628 250 q 699 267 681 260 l 699 343 l 578 343 l 578 563 l 1019 563 l 1035 479 l 1004 336 l 1004 44 q 935 25 989 39 q 797 -1 882 11 q 603 -14 713 -14 z "},"ẞ":{"ha":1036,"x_min":83,"x_max":967,"o":"m 644 -14 q 583 -10 611 -14 q 529 0 554 -6 l 414 126 l 483 282 l 606 240 q 643 256 628 240 q 658 293 658 271 q 651 329 658 314 q 624 364 643 344 q 571 415 606 383 q 499 506 521 463 q 476 590 476 550 q 499 665 476 631 q 561 724 522 700 l 554 738 l 508 738 q 413 698 439 738 q 386 551 386 658 l 386 0 l 83 0 l 83 631 q 115 809 83 738 q 203 922 147 881 q 333 981 260 964 q 492 999 407 999 q 703 978 624 999 q 800 946 782 957 l 842 776 l 710 654 q 752 593 717 628 q 842 508 788 558 q 942 377 917 439 q 967 242 967 315 q 933 119 967 178 q 828 24 899 61 q 644 -14 757 -14 z "},"H":{"ha":1096,"x_min":83,"x_max":1013,"o":"m 97 0 l 97 760 l 83 899 l 97 983 l 403 983 l 403 607 l 693 607 l 693 983 l 999 983 l 999 461 l 1013 365 l 1013 0 l 693 0 l 693 353 l 403 353 l 403 256 l 417 0 l 97 0 z "},"Ħ":{"ha":1096,"x_min":83,"x_max":1013,"o":"m 97 0 l 97 760 l 83 899 l 97 983 l 403 983 l 403 607 l 693 607 l 693 983 l 999 983 l 999 461 l 1013 365 l 1013 0 l 693 0 l 693 353 l 403 353 l 403 256 l 417 0 l 97 0 m 183 750 l 185 861 l 886 861 l 886 750 l 183 750 z "},"Ĥ":{"ha":1096,"x_min":83,"x_max":1013,"o":"m 97 0 l 97 760 l 83 899 l 97 983 l 403 983 l 403 607 l 693 607 l 693 983 l 999 983 l 999 461 l 1013 365 l 1013 0 l 693 0 l 693 353 l 403 353 l 403 256 l 417 0 l 97 0 m 319 1082 l 471 1304 l 611 1304 l 761 1082 l 621 1082 l 542 1163 l 458 1082 l 319 1082 z "},"I":{"ha":488,"x_min":83,"x_max":404,"o":"m 97 0 l 97 761 l 83 900 l 97 983 l 404 983 l 404 0 l 97 0 z "},"Ĳ":{"ha":1376,"x_min":83,"x_max":1279,"o":"m 97 0 l 97 761 l 83 900 l 97 983 l 404 983 l 404 0 l 97 0 m 850 -14 q 774 -10 810 -14 q 710 0 739 -6 l 501 97 l 585 336 l 869 247 q 948 284 924 247 q 972 415 972 321 l 972 761 l 943 900 l 957 983 l 1278 983 l 1279 371 q 1168 85 1279 185 q 850 -14 1057 -14 z "},"Í":{"ha":488,"x_min":83,"x_max":414,"o":"m 97 0 l 97 761 l 83 900 l 97 983 l 404 983 l 404 0 l 97 0 m 124 1042 l 215 1308 l 414 1308 l 414 1224 l 222 1042 l 124 1042 z "},"Ĭ":{"ha":488,"x_min":17,"x_max":475,"o":"m 97 0 l 97 761 l 83 900 l 97 983 l 404 983 l 404 0 l 97 0 m 246 1069 q 69 1124 121 1069 q 17 1292 17 1179 l 126 1292 q 132 1263 126 1279 q 163 1235 138 1247 q 246 1222 188 1222 q 328 1235 304 1222 q 358 1263 353 1247 q 363 1292 363 1279 l 475 1292 q 423 1124 475 1178 q 246 1069 371 1069 z "},"Î":{"ha":488,"x_min":17,"x_max":458,"o":"m 97 0 l 97 761 l 83 900 l 97 983 l 404 983 l 404 0 l 97 0 m 17 1083 l 168 1306 l 308 1306 l 458 1083 l 318 1083 l 239 1164 l 156 1083 l 17 1083 z "},"Ȉ":{"ha":488,"x_min":-90,"x_max":478,"o":"m 97 0 l 97 761 l 83 900 l 97 983 l 404 983 l 404 0 l 97 0 z "},"Ï":{"ha":488,"x_min":-65,"x_max":565,"o":"m 97 0 l 97 761 l 83 900 l 97 983 l 404 983 l 404 0 l 97 0 z "},"İ":{"ha":488,"x_min":83,"x_max":404,"o":"m 97 0 l 97 761 l 83 900 l 97 983 l 404 983 l 404 0 l 97 0 z "},"Ị":{"ha":488,"x_min":83,"x_max":404,"o":"m 97 0 l 97 761 l 83 900 l 97 983 l 404 983 l 404 0 l 97 0 z "},"Ì":{"ha":488,"x_min":54,"x_max":404,"o":"m 97 0 l 97 761 l 83 900 l 97 983 l 404 983 l 404 0 l 97 0 m 246 1042 l 54 1224 l 54 1308 l 253 1308 l 344 1042 l 246 1042 z "},"Ỉ":{"ha":488,"x_min":83,"x_max":426,"o":"m 97 0 l 97 761 l 83 900 l 97 983 l 404 983 l 404 0 l 97 0 m 176 1042 l 176 1056 q 192 1113 176 1089 q 228 1155 207 1138 q 264 1185 249 1172 q 279 1211 279 1199 q 276 1219 279 1217 q 261 1222 272 1222 q 203 1204 235 1222 q 156 1167 172 1186 l 93 1278 q 161 1322 113 1297 q 293 1347 210 1347 q 392 1320 357 1347 q 426 1243 426 1293 q 410 1176 426 1203 q 370 1128 393 1149 q 331 1089 347 1108 q 314 1042 314 1069 l 176 1042 z "},"Ȋ":{"ha":488,"x_min":17,"x_max":475,"o":"m 97 0 l 97 761 l 83 900 l 97 983 l 404 983 l 404 0 l 97 0 z "},"Ī":{"ha":488,"x_min":-4,"x_max":496,"o":"m 97 0 l 97 761 l 83 900 l 97 983 l 404 983 l 404 0 l 97 0 m -4 1097 l -4 1236 l 496 1236 l 496 1097 l -4 1097 z "},"Į":{"ha":488,"x_min":83,"x_max":439,"o":"m 97 0 l 97 761 l 83 900 l 97 983 l 404 983 l 404 0 l 97 0 m 244 -264 q 128 -224 172 -264 q 85 -121 85 -185 l 149 4 l 288 4 l 258 -75 q 258 -100 253 -89 q 276 -111 263 -111 q 331 -101 301 -111 q 379 -75 360 -92 l 439 -172 q 400 -208 426 -186 q 335 -247 374 -231 q 244 -264 296 -264 z "},"Ĩ":{"ha":488,"x_min":-4,"x_max":497,"o":"m 97 0 l 97 761 l 83 900 l 97 983 l 404 983 l 404 0 l 97 0 m 357 1056 q 273 1073 311 1056 q 204 1108 235 1090 q 149 1125 174 1125 l 108 1069 l -4 1069 q 9 1188 -4 1135 q 53 1274 22 1242 q 135 1306 83 1306 q 217 1285 179 1306 q 288 1243 256 1264 q 344 1222 319 1222 l 385 1292 l 497 1292 q 467 1119 497 1183 q 357 1056 438 1056 z "},"J":{"ha":889,"x_min":14,"x_max":792,"o":"m 363 -14 q 287 -10 322 -14 q 222 0 251 -6 l 14 97 l 97 336 l 382 247 q 460 284 436 247 q 485 415 485 321 l 485 761 l 456 900 l 469 983 l 790 983 l 792 371 q 681 85 792 185 q 363 -14 569 -14 z "},"Ĵ":{"ha":889,"x_min":14,"x_max":824,"o":"m 363 -14 q 287 -10 322 -14 q 222 0 251 -6 l 14 97 l 97 336 l 382 247 q 460 284 436 247 q 485 415 485 321 l 485 761 l 456 900 l 469 983 l 790 983 l 792 371 q 681 85 792 185 q 363 -14 569 -14 m 382 1097 l 533 1319 l 674 1319 l 824 1097 l 683 1097 l 604 1178 l 521 1097 l 382 1097 z "},"K":{"ha":1096,"x_min":83,"x_max":1082,"o":"m 111 0 l 111 756 l 83 896 l 111 983 l 417 983 l 417 817 l 403 596 l 444 596 l 654 983 l 986 983 l 986 900 l 711 510 l 944 221 l 1082 83 l 1082 0 l 714 0 l 475 340 l 417 326 l 417 167 l 431 83 l 417 0 l 111 0 z "},"Ķ":{"ha":1096,"x_min":83,"x_max":1082,"o":"m 111 0 l 111 756 l 83 896 l 111 983 l 417 983 l 417 817 l 403 596 l 444 596 l 654 983 l 986 983 l 986 900 l 711 510 l 944 221 l 1082 83 l 1082 0 l 714 0 l 475 340 l 417 326 l 417 167 l 431 83 l 417 0 l 111 0 z "},"L":{"ha":900,"x_min":83,"x_max":900,"o":"m 111 0 l 83 83 l 111 222 l 111 983 l 417 983 l 417 454 l 403 264 l 431 264 l 679 278 l 778 292 l 900 89 l 832 0 l 111 0 z "},"Ǉ":{"ha":1663,"x_min":83,"x_max":1565,"o":"m 111 0 l 83 83 l 111 222 l 111 983 l 417 983 l 417 454 l 403 264 l 431 264 l 679 278 l 778 292 l 900 89 l 832 0 l 111 0 m 1136 -14 q 1060 -10 1096 -14 q 996 0 1025 -6 l 788 97 l 871 336 l 1156 247 q 1234 284 1210 247 q 1258 415 1258 321 l 1258 761 l 1229 900 l 1243 983 l 1564 983 l 1565 371 q 1454 85 1565 185 q 1136 -14 1343 -14 z "},"Ĺ":{"ha":900,"x_min":83,"x_max":900,"o":"m 111 0 l 83 83 l 111 222 l 111 983 l 417 983 l 417 454 l 403 264 l 431 264 l 679 278 l 778 292 l 900 89 l 832 0 l 111 0 m 156 1042 l 247 1308 l 446 1308 l 446 1224 l 254 1042 l 156 1042 z "},"Ľ":{"ha":900,"x_min":50,"x_max":900,"o":"m 111 0 l 83 83 l 111 222 l 111 983 l 417 983 l 417 454 l 403 264 l 431 264 l 679 278 l 778 292 l 900 89 l 832 0 l 111 0 z "},"Ļ":{"ha":900,"x_min":83,"x_max":900,"o":"m 111 0 l 83 83 l 111 222 l 111 983 l 417 983 l 417 454 l 403 264 l 431 264 l 679 278 l 778 292 l 900 89 l 832 0 l 111 0 z "},"Ŀ":{"ha":833,"x_min":83,"x_max":903,"o":"m 111 0 l 83 83 l 111 222 l 111 983 l 417 983 l 417 454 l 403 264 l 431 264 l 679 278 l 778 292 l 900 89 l 832 0 l 111 0 z "},"ǈ":{"ha":1493,"x_min":83,"x_max":1453,"o":"m 111 0 l 83 83 l 111 222 l 111 983 l 417 983 l 417 454 l 403 264 l 431 264 l 679 278 l 778 292 l 900 89 l 832 0 l 111 0 m 1247 697 l 1042 875 l 1247 1051 l 1453 875 l 1247 697 m 1067 -337 q 1023 -336 1050 -337 q 969 -332 996 -335 q 925 -325 942 -329 l 858 -257 l 928 -50 l 1049 -97 q 1092 -74 1083 -97 q 1094 1 1101 -51 l 1094 463 l 1065 588 l 1093 657 l 1401 657 l 1401 -58 q 1358 -217 1401 -156 q 1240 -308 1315 -279 q 1067 -337 1165 -337 z "},"Ł":{"ha":900,"x_min":-60,"x_max":900,"o":"m 111 0 l 83 83 l 111 222 l 111 983 l 417 983 l 417 454 l 403 264 l 431 264 l 679 278 l 778 292 l 900 89 l 832 0 l 111 0 m 36 258 l -60 393 l 246 557 l 506 803 l 594 667 l 289 501 l 36 258 z "},"M":{"ha":1390,"x_min":83,"x_max":1307,"o":"m 111 0 l 111 760 l 83 899 l 113 982 l 436 982 l 708 496 l 736 496 l 961 982 l 1293 982 l 1307 899 l 1293 765 l 1293 0 l 986 0 l 990 118 l 990 506 l 975 506 l 922 360 l 822 139 l 600 139 l 436 506 l 422 506 l 422 393 l 436 0 l 111 0 z "},"N":{"ha":1156,"x_min":83,"x_max":1072,"o":"m 111 0 l 111 760 l 83 899 l 111 982 l 390 982 l 671 632 l 738 517 l 751 517 l 751 982 l 1072 982 l 1072 899 l 1058 760 l 1058 0 l 782 0 l 433 475 l 419 475 l 419 392 l 433 0 l 111 0 z "},"Ǌ":{"ha":2044,"x_min":83,"x_max":1947,"o":"m 111 0 l 111 760 l 83 899 l 111 982 l 390 982 l 671 632 l 738 517 l 751 517 l 751 982 l 1072 982 l 1072 899 l 1058 760 l 1058 0 l 782 0 l 433 475 l 419 475 l 419 392 l 433 0 l 111 0 m 1518 -14 q 1442 -10 1478 -14 q 1378 0 1407 -6 l 1169 97 l 1253 336 l 1538 247 q 1616 284 1592 247 q 1640 415 1640 321 l 1640 761 l 1611 900 l 1625 983 l 1946 983 l 1947 371 q 1836 85 1947 185 q 1518 -14 1725 -14 z "},"\u0000":{"ha":0,"x_min":0,"x_max":0,"o":""},"Ń":{"ha":1156,"x_min":83,"x_max":1072,"o":"m 111 0 l 111 760 l 83 899 l 111 982 l 390 982 l 671 632 l 738 517 l 751 517 l 751 982 l 1072 982 l 1072 899 l 1058 760 l 1058 0 l 782 0 l 433 475 l 419 475 l 419 392 l 433 0 l 111 0 m 482 1031 l 574 1297 l 772 1297 l 772 1213 l 581 1031 l 482 1031 z "},"Ň":{"ha":1156,"x_min":83,"x_max":1072,"o":"m 111 0 l 111 760 l 83 899 l 111 982 l 390 982 l 671 632 l 738 517 l 751 517 l 751 982 l 1072 982 l 1072 899 l 1058 760 l 1058 0 l 782 0 l 433 475 l 419 475 l 419 392 l 433 0 l 111 0 z "},"Ņ":{"ha":1156,"x_min":83,"x_max":1072,"o":"m 111 0 l 111 760 l 83 899 l 111 982 l 390 982 l 671 632 l 738 517 l 751 517 l 751 982 l 1072 982 l 1072 899 l 1058 760 l 1058 0 l 782 0 l 433 475 l 419 475 l 419 392 l 433 0 l 111 0 z "},"Ɲ":{"ha":1197,"x_min":-42,"x_max":1114,"o":"m 153 0 l 153 760 l 125 899 l 153 982 l 432 982 l 713 632 l 779 517 l 793 517 l 793 982 l 1114 982 l 1114 899 l 1100 760 l 1100 0 l 824 0 l 475 475 l 461 475 l 461 0 l 460 0 l 460 -75 q 415 -223 460 -164 q 295 -311 371 -282 q 125 -340 219 -340 l -42 -287 l 28 -36 l 94 -69 q 140 -55 126 -69 q 154 0 153 -40 l 153 0 z "},"ǋ":{"ha":1749,"x_min":83,"x_max":1708,"o":"m 111 0 l 111 760 l 83 899 l 111 982 l 390 982 l 671 632 l 738 517 l 751 517 l 751 982 l 1072 982 l 1072 899 l 1058 760 l 1058 0 l 782 0 l 433 475 l 419 475 l 419 392 l 433 0 l 111 0 m 1503 697 l 1297 875 l 1503 1051 l 1708 875 l 1503 697 m 1322 -337 q 1278 -336 1306 -337 q 1224 -332 1251 -335 q 1181 -325 1197 -329 l 1114 -257 l 1183 -50 l 1304 -97 q 1348 -74 1339 -97 q 1350 1 1357 -51 l 1350 463 l 1321 588 l 1349 657 l 1657 657 l 1657 -58 q 1614 -217 1657 -156 q 1496 -308 1571 -279 q 1322 -337 1421 -337 z "},"Ñ":{"ha":1156,"x_min":83,"x_max":1072,"o":"m 111 0 l 111 760 l 83 899 l 111 982 l 390 982 l 671 632 l 738 517 l 751 517 l 751 982 l 1072 982 l 1072 899 l 1058 760 l 1058 0 l 782 0 l 433 475 l 419 475 l 419 392 l 433 0 l 111 0 m 715 1044 q 631 1062 669 1044 q 563 1097 593 1079 q 507 1114 532 1114 l 467 1058 l 354 1058 q 367 1177 354 1124 q 411 1263 381 1231 q 493 1294 442 1294 q 576 1274 538 1294 q 646 1232 614 1253 q 703 1211 678 1211 l 743 1281 l 856 1281 q 826 1108 856 1172 q 715 1044 796 1044 z "},"O":{"ha":1094,"x_min":47,"x_max":1047,"o":"m 547 -14 q 370 8 458 -14 q 209 85 282 29 q 92 239 136 140 q 47 492 47 338 q 92 744 47 646 q 209 899 136 843 q 370 976 282 954 q 547 997 458 997 q 724 975 636 997 q 885 897 813 953 q 1003 743 958 842 q 1047 492 1047 644 q 1003 240 1047 339 q 885 86 958 142 q 724 8 813 31 q 547 -14 636 -14 m 547 264 q 683 319 638 264 q 729 492 729 374 q 683 664 729 608 q 547 719 638 719 q 367 492 367 719 q 412 319 367 375 q 547 264 457 264 z "},"Œ":{"ha":1622,"x_min":69,"x_max":1608,"o":"m 513 -14 q 394 -1 456 -14 q 274 46 332 13 q 170 136 217 79 q 97 281 124 193 q 69 492 69 368 q 97 703 69 615 q 170 847 124 790 q 274 938 217 904 q 394 984 332 971 q 513 997 456 997 q 640 978 579 997 q 750 919 700 960 l 750 983 l 1465 983 l 1535 942 l 1443 706 l 1318 719 l 1058 719 l 1058 608 l 1401 608 l 1401 379 l 1210 379 l 1058 393 l 1058 264 l 1443 264 l 1608 89 l 1526 0 l 750 0 l 733 49 q 630 1 686 17 q 513 -14 574 -14 m 569 264 q 698 309 653 264 q 750 453 743 354 l 750 531 q 569 719 736 719 q 389 492 389 719 q 433 319 389 375 q 569 264 478 264 z "},"Ó":{"ha":1094,"x_min":47,"x_max":1047,"o":"m 547 -14 q 370 8 458 -14 q 209 85 282 29 q 92 239 136 140 q 47 492 47 338 q 92 744 47 646 q 209 899 136 843 q 370 976 282 954 q 547 997 458 997 q 724 975 636 997 q 885 897 813 953 q 1003 743 958 842 q 1047 492 1047 644 q 1003 240 1047 339 q 885 86 958 142 q 724 8 813 31 q 547 -14 636 -14 m 547 264 q 683 319 638 264 q 729 492 729 374 q 683 664 729 608 q 547 719 638 719 q 367 492 367 719 q 412 319 367 375 q 547 264 457 264 m 425 1069 l 517 1336 l 715 1336 l 715 1251 l 524 1069 l 425 1069 z "},"Ŏ":{"ha":1094,"x_min":47,"x_max":1047,"o":"m 547 -14 q 370 8 458 -14 q 209 85 282 29 q 92 239 136 140 q 47 492 47 338 q 92 744 47 646 q 209 899 136 843 q 370 976 282 954 q 547 997 458 997 q 724 975 636 997 q 885 897 813 953 q 1003 743 958 842 q 1047 492 1047 644 q 1003 240 1047 339 q 885 86 958 142 q 724 8 813 31 q 547 -14 636 -14 m 547 264 q 683 319 638 264 q 729 492 729 374 q 683 664 729 608 q 547 719 638 719 q 367 492 367 719 q 412 319 367 375 q 547 264 457 264 m 547 1097 q 370 1152 422 1097 q 318 1319 318 1207 l 428 1319 q 433 1291 428 1307 q 464 1263 439 1275 q 547 1250 489 1250 q 630 1263 606 1250 q 659 1291 654 1275 q 664 1319 664 1307 l 776 1319 q 724 1151 776 1206 q 547 1097 672 1097 z "},"Ô":{"ha":1094,"x_min":47,"x_max":1047,"o":"m 547 -14 q 370 8 458 -14 q 209 85 282 29 q 92 239 136 140 q 47 492 47 338 q 92 744 47 646 q 209 899 136 843 q 370 976 282 954 q 547 997 458 997 q 724 975 636 997 q 885 897 813 953 q 1003 743 958 842 q 1047 492 1047 644 q 1003 240 1047 339 q 885 86 958 142 q 724 8 813 31 q 547 -14 636 -14 m 547 264 q 683 319 638 264 q 729 492 729 374 q 683 664 729 608 q 547 719 638 719 q 367 492 367 719 q 412 319 367 375 q 547 264 457 264 m 318 1111 l 469 1333 l 610 1333 l 760 1111 l 619 1111 l 540 1192 l 457 1111 l 318 1111 z "},"Ố":{"ha":1094,"x_min":47,"x_max":1047,"o":"m 547 -14 q 370 8 458 -14 q 209 85 282 29 q 92 239 136 140 q 47 492 47 338 q 92 744 47 646 q 209 899 136 843 q 370 976 282 954 q 547 997 458 997 q 724 975 636 997 q 885 897 813 953 q 1003 743 958 842 q 1047 492 1047 644 q 1003 240 1047 339 q 885 86 958 142 q 724 8 813 31 q 547 -14 636 -14 m 547 264 q 683 319 638 264 q 729 492 729 374 q 683 664 729 608 q 547 719 638 719 q 367 492 367 719 q 412 319 367 375 q 547 264 457 264 z "},"Ộ":{"ha":1094,"x_min":47,"x_max":1047,"o":"m 547 -14 q 370 8 458 -14 q 209 85 282 29 q 92 239 136 140 q 47 492 47 338 q 92 744 47 646 q 209 899 136 843 q 370 976 282 954 q 547 997 458 997 q 724 975 636 997 q 885 897 813 953 q 1003 743 958 842 q 1047 492 1047 644 q 1003 240 1047 339 q 885 86 958 142 q 724 8 813 31 q 547 -14 636 -14 m 547 264 q 683 319 638 264 q 729 492 729 374 q 683 664 729 608 q 547 719 638 719 q 367 492 367 719 q 412 319 367 375 q 547 264 457 264 m 318 1111 l 469 1333 l 610 1333 l 760 1111 l 619 1111 l 540 1192 l 457 1111 l 318 1111 z "},"Ồ":{"ha":1094,"x_min":47,"x_max":1047,"o":"m 547 -14 q 370 8 458 -14 q 209 85 282 29 q 92 239 136 140 q 47 492 47 338 q 92 744 47 646 q 209 899 136 843 q 370 976 282 954 q 547 997 458 997 q 724 975 636 997 q 885 897 813 953 q 1003 743 958 842 q 1047 492 1047 644 q 1003 240 1047 339 q 885 86 958 142 q 724 8 813 31 q 547 -14 636 -14 m 547 264 q 683 319 638 264 q 729 492 729 374 q 683 664 729 608 q 547 719 638 719 q 367 492 367 719 q 412 319 367 375 q 547 264 457 264 z "},"Ổ":{"ha":1094,"x_min":47,"x_max":1047,"o":"m 547 -14 q 370 8 458 -14 q 209 85 282 29 q 92 239 136 140 q 47 492 47 338 q 92 744 47 646 q 209 899 136 843 q 370 976 282 954 q 547 997 458 997 q 724 975 636 997 q 885 897 813 953 q 1003 743 958 842 q 1047 492 1047 644 q 1003 240 1047 339 q 885 86 958 142 q 724 8 813 31 q 547 -14 636 -14 m 547 264 q 683 319 638 264 q 729 492 729 374 q 683 664 729 608 q 547 719 638 719 q 367 492 367 719 q 412 319 367 375 q 547 264 457 264 z "},"Ỗ":{"ha":1094,"x_min":47,"x_max":1047,"o":"m 547 -14 q 370 8 458 -14 q 209 85 282 29 q 92 239 136 140 q 47 492 47 338 q 92 744 47 646 q 209 899 136 843 q 370 976 282 954 q 547 997 458 997 q 724 975 636 997 q 885 897 813 953 q 1003 743 958 842 q 1047 492 1047 644 q 1003 240 1047 339 q 885 86 958 142 q 724 8 813 31 q 547 -14 636 -14 m 547 264 q 683 319 638 264 q 729 492 729 374 q 683 664 729 608 q 547 719 638 719 q 367 492 367 719 q 412 319 367 375 q 547 264 457 264 z "},"Ȍ":{"ha":1094,"x_min":47,"x_max":1047,"o":"m 547 -14 q 370 8 458 -14 q 209 85 282 29 q 92 239 136 140 q 47 492 47 338 q 92 744 47 646 q 209 899 136 843 q 370 976 282 954 q 547 997 458 997 q 724 975 636 997 q 885 897 813 953 q 1003 743 958 842 q 1047 492 1047 644 q 1003 240 1047 339 q 885 86 958 142 q 724 8 813 31 q 547 -14 636 -14 m 547 264 q 683 319 638 264 q 729 492 729 374 q 683 664 729 608 q 547 719 638 719 q 367 492 367 719 q 412 319 367 375 q 547 264 457 264 z "},"Ö":{"ha":1094,"x_min":47,"x_max":1047,"o":"m 547 -14 q 370 8 458 -14 q 209 85 282 29 q 92 239 136 140 q 47 492 47 338 q 92 744 47 646 q 209 899 136 843 q 370 976 282 954 q 547 997 458 997 q 724 975 636 997 q 885 897 813 953 q 1003 743 958 842 q 1047 492 1047 644 q 1003 240 1047 339 q 885 86 958 142 q 724 8 813 31 q 547 -14 636 -14 m 547 264 q 683 319 638 264 q 729 492 729 374 q 683 664 729 608 q 547 719 638 719 q 367 492 367 719 q 412 319 367 375 q 547 264 457 264 z "},"Ȫ":{"ha":1094,"x_min":47,"x_max":1047,"o":"m 547 -14 q 370 8 458 -14 q 209 85 282 29 q 92 239 136 140 q 47 492 47 338 q 92 744 47 646 q 209 899 136 843 q 370 976 282 954 q 547 997 458 997 q 724 975 636 997 q 885 897 813 953 q 1003 743 958 842 q 1047 492 1047 644 q 1003 240 1047 339 q 885 86 958 142 q 724 8 813 31 q 547 -14 636 -14 m 547 264 q 683 319 638 264 q 729 492 729 374 q 683 664 729 608 q 547 719 638 719 q 367 492 367 719 q 412 319 367 375 q 547 264 457 264 m 301 1468 l 301 1607 l 801 1607 l 801 1468 l 301 1468 z "},"Ȱ":{"ha":1094,"x_min":47,"x_max":1047,"o":"m 547 -14 q 370 8 458 -14 q 209 85 282 29 q 92 239 136 140 q 47 492 47 338 q 92 744 47 646 q 209 899 136 843 q 370 976 282 954 q 547 997 458 997 q 724 975 636 997 q 885 897 813 953 q 1003 743 958 842 q 1047 492 1047 644 q 1003 240 1047 339 q 885 86 958 142 q 724 8 813 31 q 547 -14 636 -14 m 547 264 q 683 319 638 264 q 729 492 729 374 q 683 664 729 608 q 547 719 638 719 q 367 492 367 719 q 412 319 367 375 q 547 264 457 264 m 297 1468 l 297 1607 l 797 1607 l 797 1468 l 297 1468 z "},"Ọ":{"ha":1094,"x_min":47,"x_max":1047,"o":"m 547 -14 q 370 8 458 -14 q 209 85 282 29 q 92 239 136 140 q 47 492 47 338 q 92 744 47 646 q 209 899 136 843 q 370 976 282 954 q 547 997 458 997 q 724 975 636 997 q 885 897 813 953 q 1003 743 958 842 q 1047 492 1047 644 q 1003 240 1047 339 q 885 86 958 142 q 724 8 813 31 q 547 -14 636 -14 m 547 264 q 683 319 638 264 q 729 492 729 374 q 683 664 729 608 q 547 719 638 719 q 367 492 367 719 q 412 319 367 375 q 547 264 457 264 z "},"Ò":{"ha":1094,"x_min":47,"x_max":1047,"o":"m 547 -14 q 370 8 458 -14 q 209 85 282 29 q 92 239 136 140 q 47 492 47 338 q 92 744 47 646 q 209 899 136 843 q 370 976 282 954 q 547 997 458 997 q 724 975 636 997 q 885 897 813 953 q 1003 743 958 842 q 1047 492 1047 644 q 1003 240 1047 339 q 885 86 958 142 q 724 8 813 31 q 547 -14 636 -14 m 547 264 q 683 319 638 264 q 729 492 729 374 q 683 664 729 608 q 547 719 638 719 q 367 492 367 719 q 412 319 367 375 q 547 264 457 264 m 547 1069 l 356 1251 l 356 1336 l 554 1336 l 646 1069 l 547 1069 z "},"Ỏ":{"ha":1094,"x_min":47,"x_max":1047,"o":"m 547 -14 q 370 8 458 -14 q 209 85 282 29 q 92 239 136 140 q 47 492 47 338 q 92 744 47 646 q 209 899 136 843 q 370 976 282 954 q 547 997 458 997 q 724 975 636 997 q 885 897 813 953 q 1003 743 958 842 q 1047 492 1047 644 q 1003 240 1047 339 q 885 86 958 142 q 724 8 813 31 q 547 -14 636 -14 m 547 264 q 683 319 638 264 q 729 492 729 374 q 683 664 729 608 q 547 719 638 719 q 367 492 367 719 q 412 319 367 375 q 547 264 457 264 m 478 1069 l 478 1083 q 493 1141 478 1117 q 529 1183 508 1165 q 565 1213 550 1200 q 581 1239 581 1226 q 577 1247 581 1244 q 563 1250 574 1250 q 505 1232 536 1250 q 457 1194 474 1214 l 394 1306 q 463 1350 414 1325 q 594 1375 511 1375 q 693 1348 658 1375 q 728 1271 728 1321 q 711 1203 728 1231 q 672 1156 694 1176 q 632 1117 649 1136 q 615 1069 615 1097 l 478 1069 z "},"Ơ":{"ha":1094,"x_min":47,"x_max":1175,"o":"m 547 -14 q 370 8 458 -14 q 209 85 282 29 q 92 239 136 140 q 47 492 47 338 q 92 744 47 646 q 209 899 136 843 q 370 976 282 954 q 547 997 458 997 q 724 975 636 997 q 885 897 813 953 q 1003 743 958 842 q 1047 492 1047 644 q 1003 240 1047 339 q 885 86 958 142 q 724 8 813 31 q 547 -14 636 -14 m 547 264 q 683 319 638 264 q 729 492 729 374 q 683 664 729 608 q 547 719 638 719 q 367 492 367 719 q 412 319 367 375 q 547 264 457 264 m 997 721 q 931 732 954 721 q 908 743 908 743 l 908 818 l 938 818 q 993 845 981 818 q 1006 919 1006 872 l 1006 988 l 1175 988 l 1175 885 q 1149 787 1175 822 q 1083 736 1124 751 q 997 721 1042 721 z "},"Ớ":{"ha":1094,"x_min":47,"x_max":1175,"o":"m 547 -14 q 370 8 458 -14 q 209 85 282 29 q 92 239 136 140 q 47 492 47 338 q 92 744 47 646 q 209 899 136 843 q 370 976 282 954 q 547 997 458 997 q 724 975 636 997 q 885 897 813 953 q 1003 743 958 842 q 1047 492 1047 644 q 1003 240 1047 339 q 885 86 958 142 q 724 8 813 31 q 547 -14 636 -14 m 547 264 q 683 319 638 264 q 729 492 729 374 q 683 664 729 608 q 547 719 638 719 q 367 492 367 719 q 412 319 367 375 q 547 264 457 264 m 997 721 q 931 732 954 721 q 908 743 908 743 l 908 818 l 938 818 q 993 845 981 818 q 1006 919 1006 872 l 1006 988 l 1175 988 l 1175 885 q 1149 787 1175 822 q 1083 736 1124 751 q 997 721 1042 721 m 425 1069 l 517 1336 l 715 1336 l 715 1251 l 524 1069 l 425 1069 z "},"Ợ":{"ha":1094,"x_min":47,"x_max":1175,"o":"m 547 -14 q 370 8 458 -14 q 209 85 282 29 q 92 239 136 140 q 47 492 47 338 q 92 744 47 646 q 209 899 136 843 q 370 976 282 954 q 547 997 458 997 q 724 975 636 997 q 885 897 813 953 q 1003 743 958 842 q 1047 492 1047 644 q 1003 240 1047 339 q 885 86 958 142 q 724 8 813 31 q 547 -14 636 -14 m 547 264 q 683 319 638 264 q 729 492 729 374 q 683 664 729 608 q 547 719 638 719 q 367 492 367 719 q 412 319 367 375 q 547 264 457 264 m 997 721 q 931 732 954 721 q 908 743 908 743 l 908 818 l 938 818 q 993 845 981 818 q 1006 919 1006 872 l 1006 988 l 1175 988 l 1175 885 q 1149 787 1175 822 q 1083 736 1124 751 q 997 721 1042 721 z "},"Ờ":{"ha":1094,"x_min":47,"x_max":1175,"o":"m 547 -14 q 370 8 458 -14 q 209 85 282 29 q 92 239 136 140 q 47 492 47 338 q 92 744 47 646 q 209 899 136 843 q 370 976 282 954 q 547 997 458 997 q 724 975 636 997 q 885 897 813 953 q 1003 743 958 842 q 1047 492 1047 644 q 1003 240 1047 339 q 885 86 958 142 q 724 8 813 31 q 547 -14 636 -14 m 547 264 q 683 319 638 264 q 729 492 729 374 q 683 664 729 608 q 547 719 638 719 q 367 492 367 719 q 412 319 367 375 q 547 264 457 264 m 997 721 q 931 732 954 721 q 908 743 908 743 l 908 818 l 938 818 q 993 845 981 818 q 1006 919 1006 872 l 1006 988 l 1175 988 l 1175 885 q 1149 787 1175 822 q 1083 736 1124 751 q 997 721 1042 721 m 547 1069 l 356 1251 l 356 1336 l 554 1336 l 646 1069 l 547 1069 z "},"Ở":{"ha":1094,"x_min":47,"x_max":1175,"o":"m 547 -14 q 370 8 458 -14 q 209 85 282 29 q 92 239 136 140 q 47 492 47 338 q 92 744 47 646 q 209 899 136 843 q 370 976 282 954 q 547 997 458 997 q 724 975 636 997 q 885 897 813 953 q 1003 743 958 842 q 1047 492 1047 644 q 1003 240 1047 339 q 885 86 958 142 q 724 8 813 31 q 547 -14 636 -14 m 547 264 q 683 319 638 264 q 729 492 729 374 q 683 664 729 608 q 547 719 638 719 q 367 492 367 719 q 412 319 367 375 q 547 264 457 264 m 997 721 q 931 732 954 721 q 908 743 908 743 l 908 818 l 938 818 q 993 845 981 818 q 1006 919 1006 872 l 1006 988 l 1175 988 l 1175 885 q 1149 787 1175 822 q 1083 736 1124 751 q 997 721 1042 721 m 478 1069 l 478 1083 q 493 1141 478 1117 q 529 1183 508 1165 q 565 1213 550 1200 q 581 1239 581 1226 q 577 1247 581 1244 q 563 1250 574 1250 q 505 1232 536 1250 q 457 1194 474 1214 l 394 1306 q 463 1350 414 1325 q 594 1375 511 1375 q 693 1348 658 1375 q 728 1271 728 1321 q 711 1203 728 1231 q 672 1156 694 1176 q 632 1117 649 1136 q 615 1069 615 1097 l 478 1069 z "},"Ỡ":{"ha":1094,"x_min":47,"x_max":1175,"o":"m 547 -14 q 370 8 458 -14 q 209 85 282 29 q 92 239 136 140 q 47 492 47 338 q 92 744 47 646 q 209 899 136 843 q 370 976 282 954 q 547 997 458 997 q 724 975 636 997 q 885 897 813 953 q 1003 743 958 842 q 1047 492 1047 644 q 1003 240 1047 339 q 885 86 958 142 q 724 8 813 31 q 547 -14 636 -14 m 547 264 q 683 319 638 264 q 729 492 729 374 q 683 664 729 608 q 547 719 638 719 q 367 492 367 719 q 412 319 367 375 q 547 264 457 264 m 997 721 q 931 732 954 721 q 908 743 908 743 l 908 818 l 938 818 q 993 845 981 818 q 1006 919 1006 872 l 1006 988 l 1175 988 l 1175 885 q 1149 787 1175 822 q 1083 736 1124 751 q 997 721 1042 721 m 658 1083 q 574 1101 613 1083 q 506 1135 536 1118 q 450 1153 475 1153 l 410 1097 l 297 1097 q 310 1216 297 1163 q 354 1301 324 1269 q 436 1333 385 1333 q 519 1313 481 1333 q 589 1271 557 1292 q 646 1250 621 1250 l 686 1319 l 799 1319 q 769 1147 799 1211 q 658 1083 739 1083 z "},"Ő":{"ha":1094,"x_min":47,"x_max":1047,"o":"m 547 -14 q 370 8 458 -14 q 209 85 282 29 q 92 239 136 140 q 47 492 47 338 q 92 744 47 646 q 209 899 136 843 q 370 976 282 954 q 547 997 458 997 q 724 975 636 997 q 885 897 813 953 q 1003 743 958 842 q 1047 492 1047 644 q 1003 240 1047 339 q 885 86 958 142 q 724 8 813 31 q 547 -14 636 -14 m 547 264 q 683 319 638 264 q 729 492 729 374 q 683 664 729 608 q 547 719 638 719 q 367 492 367 719 q 412 319 367 375 q 547 264 457 264 z "},"Ȏ":{"ha":1094,"x_min":47,"x_max":1047,"o":"m 547 -14 q 370 8 458 -14 q 209 85 282 29 q 92 239 136 140 q 47 492 47 338 q 92 744 47 646 q 209 899 136 843 q 370 976 282 954 q 547 997 458 997 q 724 975 636 997 q 885 897 813 953 q 1003 743 958 842 q 1047 492 1047 644 q 1003 240 1047 339 q 885 86 958 142 q 724 8 813 31 q 547 -14 636 -14 m 547 264 q 683 319 638 264 q 729 492 729 374 q 683 664 729 608 q 547 719 638 719 q 367 492 367 719 q 412 319 367 375 q 547 264 457 264 z "},"Ō":{"ha":1094,"x_min":47,"x_max":1047,"o":"m 547 -14 q 370 8 458 -14 q 209 85 282 29 q 92 239 136 140 q 47 492 47 338 q 92 744 47 646 q 209 899 136 843 q 370 976 282 954 q 547 997 458 997 q 724 975 636 997 q 885 897 813 953 q 1003 743 958 842 q 1047 492 1047 644 q 1003 240 1047 339 q 885 86 958 142 q 724 8 813 31 q 547 -14 636 -14 m 547 264 q 683 319 638 264 q 729 492 729 374 q 683 664 729 608 q 547 719 638 719 q 367 492 367 719 q 412 319 367 375 q 547 264 457 264 m 297 1125 l 297 1264 l 797 1264 l 797 1125 l 297 1125 z "},"Ω":{"ha":1278,"x_min":69,"x_max":1208,"o":"m 126 0 l 69 278 l 210 264 l 290 264 l 294 279 q 231 340 267 300 q 167 441 194 379 q 140 588 140 503 q 199 806 140 714 q 370 947 258 897 q 642 997 482 997 q 1008 888 881 997 q 1135 588 1135 778 q 1110 440 1135 503 q 1051 338 1086 378 q 982 279 1015 299 l 986 264 l 1069 264 l 1208 278 l 1153 0 l 713 0 l 671 206 q 772 325 732 240 q 813 518 813 410 q 807 582 813 547 q 785 648 801 617 q 734 699 768 679 q 642 719 700 719 q 548 699 583 719 q 494 647 513 679 q 469 581 475 615 q 463 518 463 546 q 484 384 463 449 q 540 272 506 319 q 608 206 574 225 l 567 0 l 126 0 z "},"Ǫ":{"ha":1094,"x_min":47,"x_max":1047,"o":"m 547 -14 q 370 8 458 -14 q 209 85 282 29 q 92 239 136 140 q 47 492 47 338 q 92 744 47 646 q 209 899 136 843 q 370 976 282 954 q 547 997 458 997 q 724 975 636 997 q 885 897 813 953 q 1003 743 958 842 q 1047 492 1047 644 q 1003 240 1047 339 q 885 86 958 142 q 724 8 813 31 q 547 -14 636 -14 m 547 264 q 683 319 638 264 q 729 492 729 374 q 683 664 729 608 q 547 719 638 719 q 367 492 367 719 q 412 319 367 375 q 547 264 457 264 m 604 -264 q 488 -224 532 -264 q 444 -121 444 -185 l 508 4 l 647 4 l 618 -75 q 617 -100 613 -89 q 636 -111 622 -111 q 690 -101 661 -111 q 739 -75 719 -92 l 799 -172 q 760 -208 786 -186 q 694 -247 733 -231 q 604 -264 656 -264 z "},"Ø":{"ha":1094,"x_min":47,"x_max":1047,"o":"m 547 -14 q 370 8 458 -14 q 209 85 282 29 q 92 239 136 140 q 47 492 47 338 q 92 744 47 646 q 209 899 136 843 q 370 976 282 954 q 547 997 458 997 q 724 975 636 997 q 885 897 813 953 q 1003 743 958 842 q 1047 492 1047 644 q 1003 240 1047 339 q 885 86 958 142 q 724 8 813 31 q 547 -14 636 -14 m 547 264 q 683 319 638 264 q 729 492 729 374 q 683 664 729 608 q 547 719 638 719 q 367 492 367 719 q 412 319 367 375 q 547 264 457 264 m 132 -46 l 804 1049 l 961 1049 l 289 -46 l 132 -46 z "},"Ǿ":{"ha":1094,"x_min":47,"x_max":1047,"o":"m 547 -14 q 370 8 458 -14 q 209 85 282 29 q 92 239 136 140 q 47 492 47 338 q 92 744 47 646 q 209 899 136 843 q 370 976 282 954 q 547 997 458 997 q 724 975 636 997 q 885 897 813 953 q 1003 743 958 842 q 1047 492 1047 644 q 1003 240 1047 339 q 885 86 958 142 q 724 8 813 31 q 547 -14 636 -14 m 547 264 q 683 319 638 264 q 729 492 729 374 q 683 664 729 608 q 547 719 638 719 q 367 492 367 719 q 412 319 367 375 q 547 264 457 264 m 132 -46 l 804 1049 l 961 1049 l 289 -46 l 132 -46 z "},"Õ":{"ha":1094,"x_min":47,"x_max":1047,"o":"m 547 -14 q 370 8 458 -14 q 209 85 282 29 q 92 239 136 140 q 47 492 47 338 q 92 744 47 646 q 209 899 136 843 q 370 976 282 954 q 547 997 458 997 q 724 975 636 997 q 885 897 813 953 q 1003 743 958 842 q 1047 492 1047 644 q 1003 240 1047 339 q 885 86 958 142 q 724 8 813 31 q 547 -14 636 -14 m 547 264 q 683 319 638 264 q 729 492 729 374 q 683 664 729 608 q 547 719 638 719 q 367 492 367 719 q 412 319 367 375 q 547 264 457 264 m 658 1083 q 574 1101 613 1083 q 506 1135 536 1118 q 450 1153 475 1153 l 410 1097 l 297 1097 q 310 1216 297 1163 q 354 1301 324 1269 q 436 1333 385 1333 q 519 1313 481 1333 q 589 1271 557 1292 q 646 1250 621 1250 l 686 1319 l 799 1319 q 769 1147 799 1211 q 658 1083 739 1083 z "},"Ȭ":{"ha":1094,"x_min":47,"x_max":1047,"o":"m 547 -14 q 370 8 458 -14 q 209 85 282 29 q 92 239 136 140 q 47 492 47 338 q 92 744 47 646 q 209 899 136 843 q 370 976 282 954 q 547 997 458 997 q 724 975 636 997 q 885 897 813 953 q 1003 743 958 842 q 1047 492 1047 644 q 1003 240 1047 339 q 885 86 958 142 q 724 8 813 31 q 547 -14 636 -14 m 547 264 q 683 319 638 264 q 729 492 729 374 q 683 664 729 608 q 547 719 638 719 q 367 492 367 719 q 412 319 367 375 q 547 264 457 264 m 658 1083 q 574 1101 613 1083 q 506 1135 536 1118 q 450 1153 475 1153 l 410 1097 l 297 1097 q 310 1216 297 1163 q 354 1301 324 1269 q 436 1333 385 1333 q 519 1313 481 1333 q 589 1271 557 1292 q 646 1250 621 1250 l 686 1319 l 799 1319 q 769 1147 799 1211 q 658 1083 739 1083 m 297 1400 l 297 1539 l 797 1539 l 797 1400 l 297 1400 z "},"P":{"ha":985,"x_min":83,"x_max":971,"o":"m 111 0 l 111 760 l 83 900 l 111 983 l 611 983 q 804 947 724 983 q 928 831 885 911 q 971 621 971 751 q 866 340 971 425 q 569 254 761 254 l 417 254 l 417 224 l 431 85 l 417 0 l 111 0 m 417 514 l 497 514 q 581 518 546 514 q 636 544 617 522 q 656 614 656 565 q 635 688 656 665 q 577 715 614 710 q 492 719 540 719 l 403 719 l 417 514 z "},"Q":{"ha":1176,"x_min":69,"x_max":1218,"o":"m 181 0 l 153 175 q 92 300 114 224 q 69 490 69 376 q 101 701 69 614 q 186 846 132 789 q 308 936 240 903 q 451 983 376 969 q 596 996 525 996 q 769 974 685 996 q 921 896 853 951 q 1029 742 989 840 q 1069 490 1069 643 q 1060 356 1069 411 q 1033 262 1051 301 q 985 188 1014 222 q 928 131 963 161 q 861 89 893 101 l 864 82 l 972 68 l 1218 -31 l 1093 -256 q 1064 -242 1093 -256 q 988 -208 1035 -229 q 887 -161 942 -186 q 780 -112 832 -136 q 688 -69 728 -87 q 632 -43 649 -50 q 542 -10 583 -19 q 432 0 500 0 l 181 0 m 457 263 l 581 263 q 713 324 678 263 q 749 490 749 385 q 710 658 749 599 q 582 718 671 718 q 435 666 481 718 q 389 490 389 614 q 402 376 389 425 q 432 299 415 328 q 457 263 449 271 z "},"R":{"ha":1025,"x_min":83,"x_max":1011,"o":"m 111 0 l 111 760 l 83 900 l 111 983 l 611 983 q 804 947 724 983 q 928 831 885 911 q 971 621 971 751 q 931 422 971 500 q 813 304 890 344 l 836 285 l 932 154 l 1011 83 l 1011 0 l 643 0 l 490 254 l 417 254 l 417 224 l 431 85 l 417 0 l 111 0 m 417 514 l 497 514 q 581 518 546 514 q 636 544 617 522 q 656 614 656 565 q 635 688 656 665 q 577 715 614 710 q 492 719 540 719 l 403 719 l 417 514 z "},"Ŕ":{"ha":1025,"x_min":83,"x_max":1011,"o":"m 111 0 l 111 760 l 83 900 l 111 983 l 611 983 q 804 947 724 983 q 928 831 885 911 q 971 621 971 751 q 931 422 971 500 q 813 304 890 344 l 836 285 l 932 154 l 1011 83 l 1011 0 l 643 0 l 490 254 l 417 254 l 417 224 l 431 85 l 417 0 l 111 0 m 417 514 l 497 514 q 581 518 546 514 q 636 544 617 522 q 656 614 656 565 q 635 688 656 665 q 577 715 614 710 q 492 719 540 719 l 403 719 l 417 514 m 390 1042 l 482 1308 l 681 1308 l 681 1224 l 489 1042 l 390 1042 z "},"Ř":{"ha":1025,"x_min":83,"x_max":1011,"o":"m 111 0 l 111 760 l 83 900 l 111 983 l 611 983 q 804 947 724 983 q 928 831 885 911 q 971 621 971 751 q 931 422 971 500 q 813 304 890 344 l 836 285 l 932 154 l 1011 83 l 1011 0 l 643 0 l 490 254 l 417 254 l 417 224 l 431 85 l 417 0 l 111 0 m 417 514 l 497 514 q 581 518 546 514 q 636 544 617 522 q 656 614 656 565 q 635 688 656 665 q 577 715 614 710 q 492 719 540 719 l 403 719 l 417 514 z "},"Ŗ":{"ha":1025,"x_min":83,"x_max":1011,"o":"m 111 0 l 111 760 l 83 900 l 111 983 l 611 983 q 804 947 724 983 q 928 831 885 911 q 971 621 971 751 q 931 422 971 500 q 813 304 890 344 l 836 285 l 932 154 l 1011 83 l 1011 0 l 643 0 l 490 254 l 417 254 l 417 224 l 431 85 l 417 0 l 111 0 m 417 514 l 497 514 q 581 518 546 514 q 636 544 617 522 q 656 614 656 565 q 635 688 656 665 q 577 715 614 710 q 492 719 540 719 l 403 719 l 417 514 z "},"Ȑ":{"ha":1025,"x_min":83,"x_max":1011,"o":"m 111 0 l 111 760 l 83 900 l 111 983 l 611 983 q 804 947 724 983 q 928 831 885 911 q 971 621 971 751 q 931 422 971 500 q 813 304 890 344 l 836 285 l 932 154 l 1011 83 l 1011 0 l 643 0 l 490 254 l 417 254 l 417 224 l 431 85 l 417 0 l 111 0 m 417 514 l 497 514 q 581 518 546 514 q 636 544 617 522 q 656 614 656 565 q 635 688 656 665 q 577 715 614 710 q 492 719 540 719 l 403 719 l 417 514 z "},"Ȓ":{"ha":1025,"x_min":83,"x_max":1011,"o":"m 111 0 l 111 760 l 83 900 l 111 983 l 611 983 q 804 947 724 983 q 928 831 885 911 q 971 621 971 751 q 931 422 971 500 q 813 304 890 344 l 836 285 l 932 154 l 1011 83 l 1011 0 l 643 0 l 490 254 l 417 254 l 417 224 l 431 85 l 417 0 l 111 0 m 417 514 l 497 514 q 581 518 546 514 q 636 544 617 522 q 656 614 656 565 q 635 688 656 665 q 577 715 614 710 q 492 719 540 719 l 403 719 l 417 514 z "},"S":{"ha":938,"x_min":63,"x_max":879,"o":"m 451 -14 q 301 -1 375 -14 q 169 33 226 13 q 88 75 113 54 l 88 365 q 206 313 140 336 q 338 276 271 289 q 467 263 406 263 q 551 301 551 263 q 534 334 551 321 q 474 363 517 347 q 351 401 431 378 q 195 463 260 431 q 97 544 131 494 q 63 678 63 594 q 178 910 63 822 q 515 997 293 997 q 610 994 560 997 q 692 985 661 990 l 863 869 l 793 658 l 438 749 q 382 711 382 749 q 417 663 382 682 q 546 613 453 644 q 742 527 669 571 q 847 428 815 483 q 879 296 879 372 q 772 72 879 157 q 451 -14 665 -14 z "},"Ś":{"ha":938,"x_min":63,"x_max":879,"o":"m 451 -14 q 301 -1 375 -14 q 169 33 226 13 q 88 75 113 54 l 88 365 q 206 313 140 336 q 338 276 271 289 q 467 263 406 263 q 551 301 551 263 q 534 334 551 321 q 474 363 517 347 q 351 401 431 378 q 195 463 260 431 q 97 544 131 494 q 63 678 63 594 q 178 910 63 822 q 515 997 293 997 q 610 994 560 997 q 692 985 661 990 l 863 869 l 793 658 l 438 749 q 382 711 382 749 q 417 663 382 682 q 546 613 453 644 q 742 527 669 571 q 847 428 815 483 q 879 296 879 372 q 772 72 879 157 q 451 -14 665 -14 m 340 1044 l 432 1311 l 631 1311 l 631 1226 l 439 1044 l 340 1044 z "},"Š":{"ha":938,"x_min":63,"x_max":879,"o":"m 451 -14 q 301 -1 375 -14 q 169 33 226 13 q 88 75 113 54 l 88 365 q 206 313 140 336 q 338 276 271 289 q 467 263 406 263 q 551 301 551 263 q 534 334 551 321 q 474 363 517 347 q 351 401 431 378 q 195 463 260 431 q 97 544 131 494 q 63 678 63 594 q 178 910 63 822 q 515 997 293 997 q 610 994 560 997 q 692 985 661 990 l 863 869 l 793 658 l 438 749 q 382 711 382 749 q 417 663 382 682 q 546 613 453 644 q 742 527 669 571 q 847 428 815 483 q 879 296 879 372 q 772 72 879 157 q 451 -14 665 -14 z "},"Ş":{"ha":938,"x_min":63,"x_max":879,"o":"m 451 -14 q 301 -1 375 -14 q 169 33 226 13 q 88 75 113 54 l 88 365 q 206 313 140 336 q 338 276 271 289 q 467 263 406 263 q 551 301 551 263 q 534 334 551 321 q 474 363 517 347 q 351 401 431 378 q 195 463 260 431 q 97 544 131 494 q 63 678 63 594 q 178 910 63 822 q 515 997 293 997 q 610 994 560 997 q 692 985 661 990 l 863 869 l 793 658 l 438 749 q 382 711 382 749 q 417 663 382 682 q 546 613 453 644 q 742 527 669 571 q 847 428 815 483 q 879 296 879 372 q 772 72 879 157 q 451 -14 665 -14 m 461 -306 q 355 -288 393 -306 q 317 -271 317 -271 l 317 -132 q 333 -140 317 -132 q 376 -158 349 -149 q 436 -167 403 -167 q 472 -158 454 -167 q 490 -136 490 -150 l 400 -97 l 442 0 l 565 0 l 551 -58 l 650 -132 q 622 -225 650 -186 q 551 -285 594 -264 q 461 -306 507 -306 z "},"Ə":{"ha":992,"x_min":42,"x_max":936,"o":"m 496 -14 q 244 42 346 -14 q 92 196 143 97 q 42 422 42 294 l 42 553 l 617 553 q 602 653 617 613 q 549 716 588 694 q 433 738 510 738 q 290 724 357 738 q 178 693 224 710 q 118 667 132 676 l 118 906 q 177 937 131 918 q 303 970 224 956 q 492 985 383 985 q 745 923 647 985 q 890 751 843 861 q 936 493 936 640 q 881 211 936 324 q 728 42 826 99 q 496 -14 629 -14 m 467 247 q 585 281 553 247 q 617 378 617 314 l 343 378 l 343 358 q 374 278 343 308 q 467 247 406 247 z "},"Ŝ":{"ha":938,"x_min":63,"x_max":879,"o":"m 451 -14 q 301 -1 375 -14 q 169 33 226 13 q 88 75 113 54 l 88 365 q 206 313 140 336 q 338 276 271 289 q 467 263 406 263 q 551 301 551 263 q 534 334 551 321 q 474 363 517 347 q 351 401 431 378 q 195 463 260 431 q 97 544 131 494 q 63 678 63 594 q 178 910 63 822 q 515 997 293 997 q 610 994 560 997 q 692 985 661 990 l 863 869 l 793 658 l 438 749 q 382 711 382 749 q 417 663 382 682 q 546 613 453 644 q 742 527 669 571 q 847 428 815 483 q 879 296 879 372 q 772 72 879 157 q 451 -14 665 -14 m 233 1086 l 385 1308 l 525 1308 l 675 1086 l 535 1086 l 456 1167 l 372 1086 l 233 1086 z "},"Ș":{"ha":938,"x_min":63,"x_max":879,"o":"m 451 -14 q 301 -1 375 -14 q 169 33 226 13 q 88 75 113 54 l 88 365 q 206 313 140 336 q 338 276 271 289 q 467 263 406 263 q 551 301 551 263 q 534 334 551 321 q 474 363 517 347 q 351 401 431 378 q 195 463 260 431 q 97 544 131 494 q 63 678 63 594 q 178 910 63 822 q 515 997 293 997 q 610 994 560 997 q 692 985 661 990 l 863 869 l 793 658 l 438 749 q 382 711 382 749 q 417 663 382 682 q 546 613 453 644 q 742 527 669 571 q 847 428 815 483 q 879 296 879 372 q 772 72 879 157 q 451 -14 665 -14 z "},"T":{"ha":924,"x_min":28,"x_max":896,"o":"m 306 0 l 306 718 l 28 704 l 28 983 l 896 983 l 896 704 l 611 718 l 611 222 l 626 83 l 611 0 l 306 0 z "},"Ŧ":{"ha":924,"x_min":28,"x_max":896,"o":"m 306 0 l 306 718 l 28 704 l 28 983 l 896 983 l 896 704 l 611 718 l 611 222 l 626 83 l 611 0 l 306 0 m 144 417 l 146 528 l 772 528 l 772 417 l 144 417 z "},"Ť":{"ha":924,"x_min":28,"x_max":896,"o":"m 306 0 l 306 718 l 28 704 l 28 983 l 896 983 l 896 704 l 611 718 l 611 222 l 626 83 l 611 0 l 306 0 z "},"Ţ":{"ha":924,"x_min":28,"x_max":896,"o":"m 306 0 l 306 718 l 28 704 l 28 983 l 896 983 l 896 704 l 611 718 l 611 222 l 626 83 l 611 0 l 306 0 m 442 -292 q 335 -274 374 -292 q 297 -257 297 -257 l 297 -118 q 313 -126 297 -118 q 356 -144 329 -135 q 417 -153 383 -153 q 453 -144 435 -153 q 471 -122 471 -136 l 381 -83 l 422 14 l 546 14 l 532 -44 l 631 -118 q 603 -211 631 -172 q 531 -271 575 -250 q 442 -292 488 -292 z "},"Ț":{"ha":924,"x_min":28,"x_max":896,"o":"m 306 0 l 306 718 l 28 704 l 28 983 l 896 983 l 896 704 l 611 718 l 611 222 l 626 83 l 611 0 l 306 0 z "},"Þ":{"ha":943,"x_min":83,"x_max":874,"o":"m 83 0 l 83 983 l 389 983 l 389 844 l 514 844 q 697 813 615 844 q 826 708 778 782 q 874 503 874 633 q 822 297 874 372 q 680 189 771 221 q 472 157 589 157 l 389 157 l 389 0 l 83 0 m 389 418 l 428 418 q 529 437 500 418 q 558 503 558 456 q 527 566 558 551 q 422 581 496 581 l 389 581 l 389 418 z "},"U":{"ha":1053,"x_min":69,"x_max":983,"o":"m 526 -14 q 176 84 283 -14 q 69 399 69 182 l 69 760 l 71 900 l 69 983 l 381 983 l 381 468 q 390 355 381 404 q 432 278 400 306 q 529 250 464 250 q 628 275 596 250 q 669 349 660 300 q 679 468 679 397 l 679 983 l 983 983 l 983 399 q 938 166 983 257 q 792 31 892 75 q 526 -14 692 -14 z "},"Ú":{"ha":1053,"x_min":69,"x_max":983,"o":"m 526 -14 q 176 84 283 -14 q 69 399 69 182 l 69 760 l 71 900 l 69 983 l 381 983 l 381 468 q 390 355 381 404 q 432 278 400 306 q 529 250 464 250 q 628 275 596 250 q 669 349 660 300 q 679 468 679 397 l 679 983 l 983 983 l 983 399 q 938 166 983 257 q 792 31 892 75 q 526 -14 692 -14 m 407 1042 l 499 1308 l 697 1308 l 697 1224 l 506 1042 l 407 1042 z "},"Ŭ":{"ha":1053,"x_min":69,"x_max":983,"o":"m 526 -14 q 176 84 283 -14 q 69 399 69 182 l 69 760 l 71 900 l 69 983 l 381 983 l 381 468 q 390 355 381 404 q 432 278 400 306 q 529 250 464 250 q 628 275 596 250 q 669 349 660 300 q 679 468 679 397 l 679 983 l 983 983 l 983 399 q 938 166 983 257 q 792 31 892 75 q 526 -14 692 -14 m 529 1069 q 352 1124 404 1069 q 300 1292 300 1179 l 410 1292 q 415 1263 410 1279 q 446 1235 421 1247 q 529 1222 471 1222 q 612 1235 588 1222 q 641 1263 636 1247 q 646 1292 646 1279 l 758 1292 q 706 1124 758 1178 q 529 1069 654 1069 z "},"Û":{"ha":1053,"x_min":69,"x_max":983,"o":"m 526 -14 q 176 84 283 -14 q 69 399 69 182 l 69 760 l 71 900 l 69 983 l 381 983 l 381 468 q 390 355 381 404 q 432 278 400 306 q 529 250 464 250 q 628 275 596 250 q 669 349 660 300 q 679 468 679 397 l 679 983 l 983 983 l 983 399 q 938 166 983 257 q 792 31 892 75 q 526 -14 692 -14 m 300 1083 l 451 1306 l 592 1306 l 742 1083 l 601 1083 l 522 1164 l 439 1083 l 300 1083 z "},"Ȕ":{"ha":1053,"x_min":69,"x_max":983,"o":"m 526 -14 q 176 84 283 -14 q 69 399 69 182 l 69 760 l 71 900 l 69 983 l 381 983 l 381 468 q 390 355 381 404 q 432 278 400 306 q 529 250 464 250 q 628 275 596 250 q 669 349 660 300 q 679 468 679 397 l 679 983 l 983 983 l 983 399 q 938 166 983 257 q 792 31 892 75 q 526 -14 692 -14 z "},"Ü":{"ha":1053,"x_min":69,"x_max":983,"o":"m 526 -14 q 176 84 283 -14 q 69 399 69 182 l 69 760 l 71 900 l 69 983 l 381 983 l 381 468 q 390 355 381 404 q 432 278 400 306 q 529 250 464 250 q 628 275 596 250 q 669 349 660 300 q 679 468 679 397 l 679 983 l 983 983 l 983 399 q 938 166 983 257 q 792 31 892 75 q 526 -14 692 -14 z "},"Ụ":{"ha":1053,"x_min":69,"x_max":983,"o":"m 526 -14 q 176 84 283 -14 q 69 399 69 182 l 69 760 l 71 900 l 69 983 l 381 983 l 381 468 q 390 355 381 404 q 432 278 400 306 q 529 250 464 250 q 628 275 596 250 q 669 349 660 300 q 679 468 679 397 l 679 983 l 983 983 l 983 399 q 938 166 983 257 q 792 31 892 75 q 526 -14 692 -14 z "},"Ù":{"ha":1053,"x_min":69,"x_max":983,"o":"m 526 -14 q 176 84 283 -14 q 69 399 69 182 l 69 760 l 71 900 l 69 983 l 381 983 l 381 468 q 390 355 381 404 q 432 278 400 306 q 529 250 464 250 q 628 275 596 250 q 669 349 660 300 q 679 468 679 397 l 679 983 l 983 983 l 983 399 q 938 166 983 257 q 792 31 892 75 q 526 -14 692 -14 m 529 1042 l 338 1224 l 338 1308 l 536 1308 l 628 1042 l 529 1042 z "},"Ủ":{"ha":1053,"x_min":69,"x_max":983,"o":"m 526 -14 q 176 84 283 -14 q 69 399 69 182 l 69 760 l 71 900 l 69 983 l 381 983 l 381 468 q 390 355 381 404 q 432 278 400 306 q 529 250 464 250 q 628 275 596 250 q 669 349 660 300 q 679 468 679 397 l 679 983 l 983 983 l 983 399 q 938 166 983 257 q 792 31 892 75 q 526 -14 692 -14 m 460 1042 l 460 1056 q 475 1113 460 1089 q 511 1155 490 1138 q 547 1185 532 1172 q 563 1211 563 1199 q 559 1219 563 1217 q 544 1222 556 1222 q 487 1204 518 1222 q 439 1167 456 1186 l 376 1278 q 444 1322 396 1297 q 576 1347 493 1347 q 675 1320 640 1347 q 710 1243 710 1293 q 693 1176 710 1203 q 653 1128 676 1149 q 614 1089 631 1108 q 597 1042 597 1069 l 460 1042 z "},"Ư":{"ha":1053,"x_min":69,"x_max":1168,"o":"m 526 -14 q 176 84 283 -14 q 69 399 69 182 l 69 760 l 71 900 l 69 983 l 381 983 l 381 468 q 390 355 381 404 q 432 278 400 306 q 529 250 464 250 q 628 275 596 250 q 669 349 660 300 q 679 468 679 397 l 679 983 l 983 983 l 983 399 q 938 166 983 257 q 792 31 892 75 q 526 -14 692 -14 m 990 886 q 924 897 947 886 q 901 908 901 908 l 901 983 l 931 983 q 986 1010 974 983 q 999 1085 999 1038 l 999 1153 l 1168 1153 l 1168 1050 q 1142 952 1168 988 q 1076 901 1117 917 q 990 886 1035 886 z "},"Ứ":{"ha":1053,"x_min":69,"x_max":1168,"o":"m 526 -14 q 176 84 283 -14 q 69 399 69 182 l 69 760 l 71 900 l 69 983 l 381 983 l 381 468 q 390 355 381 404 q 432 278 400 306 q 529 250 464 250 q 628 275 596 250 q 669 349 660 300 q 679 468 679 397 l 679 983 l 983 983 l 983 399 q 938 166 983 257 q 792 31 892 75 q 526 -14 692 -14 m 990 886 q 924 897 947 886 q 901 908 901 908 l 901 983 l 931 983 q 986 1010 974 983 q 999 1085 999 1038 l 999 1153 l 1168 1153 l 1168 1050 q 1142 952 1168 988 q 1076 901 1117 917 q 990 886 1035 886 m 407 1042 l 499 1308 l 697 1308 l 697 1224 l 506 1042 l 407 1042 z "},"Ự":{"ha":1053,"x_min":69,"x_max":1168,"o":"m 526 -14 q 176 84 283 -14 q 69 399 69 182 l 69 760 l 71 900 l 69 983 l 381 983 l 381 468 q 390 355 381 404 q 432 278 400 306 q 529 250 464 250 q 628 275 596 250 q 669 349 660 300 q 679 468 679 397 l 679 983 l 983 983 l 983 399 q 938 166 983 257 q 792 31 892 75 q 526 -14 692 -14 m 990 886 q 924 897 947 886 q 901 908 901 908 l 901 983 l 931 983 q 986 1010 974 983 q 999 1085 999 1038 l 999 1153 l 1168 1153 l 1168 1050 q 1142 952 1168 988 q 1076 901 1117 917 q 990 886 1035 886 z "},"Ừ":{"ha":1053,"x_min":69,"x_max":1168,"o":"m 526 -14 q 176 84 283 -14 q 69 399 69 182 l 69 760 l 71 900 l 69 983 l 381 983 l 381 468 q 390 355 381 404 q 432 278 400 306 q 529 250 464 250 q 628 275 596 250 q 669 349 660 300 q 679 468 679 397 l 679 983 l 983 983 l 983 399 q 938 166 983 257 q 792 31 892 75 q 526 -14 692 -14 m 990 886 q 924 897 947 886 q 901 908 901 908 l 901 983 l 931 983 q 986 1010 974 983 q 999 1085 999 1038 l 999 1153 l 1168 1153 l 1168 1050 q 1142 952 1168 988 q 1076 901 1117 917 q 990 886 1035 886 m 529 1042 l 338 1224 l 338 1308 l 536 1308 l 628 1042 l 529 1042 z "},"Ử":{"ha":1053,"x_min":69,"x_max":1168,"o":"m 526 -14 q 176 84 283 -14 q 69 399 69 182 l 69 760 l 71 900 l 69 983 l 381 983 l 381 468 q 390 355 381 404 q 432 278 400 306 q 529 250 464 250 q 628 275 596 250 q 669 349 660 300 q 679 468 679 397 l 679 983 l 983 983 l 983 399 q 938 166 983 257 q 792 31 892 75 q 526 -14 692 -14 m 990 886 q 924 897 947 886 q 901 908 901 908 l 901 983 l 931 983 q 986 1010 974 983 q 999 1085 999 1038 l 999 1153 l 1168 1153 l 1168 1050 q 1142 952 1168 988 q 1076 901 1117 917 q 990 886 1035 886 m 460 1042 l 460 1056 q 475 1113 460 1089 q 511 1155 490 1138 q 547 1185 532 1172 q 563 1211 563 1199 q 559 1219 563 1217 q 544 1222 556 1222 q 487 1204 518 1222 q 439 1167 456 1186 l 376 1278 q 444 1322 396 1297 q 576 1347 493 1347 q 675 1320 640 1347 q 710 1243 710 1293 q 693 1176 710 1203 q 653 1128 676 1149 q 614 1089 631 1108 q 597 1042 597 1069 l 460 1042 z "},"Ữ":{"ha":1053,"x_min":69,"x_max":1168,"o":"m 526 -14 q 176 84 283 -14 q 69 399 69 182 l 69 760 l 71 900 l 69 983 l 381 983 l 381 468 q 390 355 381 404 q 432 278 400 306 q 529 250 464 250 q 628 275 596 250 q 669 349 660 300 q 679 468 679 397 l 679 983 l 983 983 l 983 399 q 938 166 983 257 q 792 31 892 75 q 526 -14 692 -14 m 990 886 q 924 897 947 886 q 901 908 901 908 l 901 983 l 931 983 q 986 1010 974 983 q 999 1085 999 1038 l 999 1153 l 1168 1153 l 1168 1050 q 1142 952 1168 988 q 1076 901 1117 917 q 990 886 1035 886 m 640 1056 q 556 1073 594 1056 q 488 1108 518 1090 q 432 1125 457 1125 l 392 1069 l 279 1069 q 292 1188 279 1135 q 336 1274 306 1242 q 418 1306 367 1306 q 501 1285 463 1306 q 571 1243 539 1264 q 628 1222 603 1222 l 668 1292 l 781 1292 q 751 1119 781 1183 q 640 1056 721 1056 z "},"Ű":{"ha":1053,"x_min":69,"x_max":983,"o":"m 526 -14 q 176 84 283 -14 q 69 399 69 182 l 69 760 l 71 900 l 69 983 l 381 983 l 381 468 q 390 355 381 404 q 432 278 400 306 q 529 250 464 250 q 628 275 596 250 q 669 349 660 300 q 679 468 679 397 l 679 983 l 983 983 l 983 399 q 938 166 983 257 q 792 31 892 75 q 526 -14 692 -14 z "},"Ȗ":{"ha":1053,"x_min":69,"x_max":983,"o":"m 526 -14 q 176 84 283 -14 q 69 399 69 182 l 69 760 l 71 900 l 69 983 l 381 983 l 381 468 q 390 355 381 404 q 432 278 400 306 q 529 250 464 250 q 628 275 596 250 q 669 349 660 300 q 679 468 679 397 l 679 983 l 983 983 l 983 399 q 938 166 983 257 q 792 31 892 75 q 526 -14 692 -14 z "},"Ū":{"ha":1053,"x_min":69,"x_max":983,"o":"m 526 -14 q 176 84 283 -14 q 69 399 69 182 l 69 760 l 71 900 l 69 983 l 381 983 l 381 468 q 390 355 381 404 q 432 278 400 306 q 529 250 464 250 q 628 275 596 250 q 669 349 660 300 q 679 468 679 397 l 679 983 l 983 983 l 983 399 q 938 166 983 257 q 792 31 892 75 q 526 -14 692 -14 m 279 1097 l 279 1236 l 779 1236 l 779 1097 l 279 1097 z "},"Ų":{"ha":1053,"x_min":69,"x_max":983,"o":"m 526 -14 q 176 84 283 -14 q 69 399 69 182 l 69 760 l 71 900 l 69 983 l 381 983 l 381 468 q 390 355 381 404 q 432 278 400 306 q 529 250 464 250 q 628 275 596 250 q 669 349 660 300 q 679 468 679 397 l 679 983 l 983 983 l 983 399 q 938 166 983 257 q 792 31 892 75 q 526 -14 692 -14 m 500 -264 q 384 -224 428 -264 q 340 -121 340 -185 l 404 4 l 543 4 l 514 -75 q 513 -100 508 -89 q 532 -111 518 -111 q 586 -101 557 -111 q 635 -75 615 -92 l 694 -172 q 656 -208 682 -186 q 590 -247 629 -231 q 500 -264 551 -264 z "},"Ů":{"ha":1053,"x_min":69,"x_max":983,"o":"m 526 -14 q 176 84 283 -14 q 69 399 69 182 l 69 760 l 71 900 l 69 983 l 381 983 l 381 468 q 390 355 381 404 q 432 278 400 306 q 529 250 464 250 q 628 275 596 250 q 669 349 660 300 q 679 468 679 397 l 679 983 l 983 983 l 983 399 q 938 166 983 257 q 792 31 892 75 q 526 -14 692 -14 m 526 1042 q 445 1064 482 1042 q 386 1123 408 1086 q 364 1204 364 1160 q 386 1285 364 1249 q 445 1344 408 1322 q 526 1367 482 1367 q 608 1344 571 1367 q 667 1285 644 1322 q 689 1204 689 1249 q 667 1123 689 1160 q 608 1064 644 1086 q 526 1042 571 1042 m 526 1168 q 552 1179 542 1168 q 563 1204 563 1190 q 552 1230 563 1219 q 526 1240 542 1240 q 501 1230 513 1240 q 490 1204 490 1219 q 501 1179 490 1190 q 526 1168 513 1168 z "},"Ũ":{"ha":1053,"x_min":69,"x_max":983,"o":"m 526 -14 q 176 84 283 -14 q 69 399 69 182 l 69 760 l 71 900 l 69 983 l 381 983 l 381 468 q 390 355 381 404 q 432 278 400 306 q 529 250 464 250 q 628 275 596 250 q 669 349 660 300 q 679 468 679 397 l 679 983 l 983 983 l 983 399 q 938 166 983 257 q 792 31 892 75 q 526 -14 692 -14 m 640 1056 q 556 1073 594 1056 q 488 1108 518 1090 q 432 1125 457 1125 l 392 1069 l 279 1069 q 292 1188 279 1135 q 336 1274 306 1242 q 418 1306 367 1306 q 501 1285 463 1306 q 571 1243 539 1264 q 628 1222 603 1222 l 668 1292 l 781 1292 q 751 1119 781 1183 q 640 1056 721 1056 z "},"V":{"ha":1042,"x_min":21,"x_max":1021,"o":"m 313 0 l 63 763 l 21 900 l 21 983 l 343 983 l 510 281 l 538 281 l 703 983 l 1021 983 l 1021 900 l 979 763 l 731 0 l 313 0 z "},"W":{"ha":1667,"x_min":28,"x_max":1639,"o":"m 292 0 l 69 763 l 28 900 l 28 983 l 350 983 l 494 308 l 522 308 l 626 983 l 1047 983 l 1128 471 l 1150 308 l 1178 308 l 1322 983 l 1639 983 l 1639 900 l 1597 763 l 1376 0 l 963 0 l 847 683 l 818 683 l 794 529 l 708 0 l 292 0 z "},"Ẃ":{"ha":1667,"x_min":28,"x_max":1639,"o":"m 292 0 l 69 763 l 28 900 l 28 983 l 350 983 l 494 308 l 522 308 l 626 983 l 1047 983 l 1128 471 l 1150 308 l 1178 308 l 1322 983 l 1639 983 l 1639 900 l 1597 763 l 1376 0 l 963 0 l 847 683 l 818 683 l 794 529 l 708 0 l 292 0 m 719 1042 l 811 1308 l 1010 1308 l 1010 1224 l 818 1042 l 719 1042 z "},"Ŵ":{"ha":1667,"x_min":28,"x_max":1639,"o":"m 292 0 l 69 763 l 28 900 l 28 983 l 350 983 l 494 308 l 522 308 l 626 983 l 1047 983 l 1128 471 l 1150 308 l 1178 308 l 1322 983 l 1639 983 l 1639 900 l 1597 763 l 1376 0 l 963 0 l 847 683 l 818 683 l 794 529 l 708 0 l 292 0 m 613 1083 l 764 1306 l 904 1306 l 1054 1083 l 914 1083 l 835 1164 l 751 1083 l 613 1083 z "},"Ẅ":{"ha":1667,"x_min":28,"x_max":1639,"o":"m 292 0 l 69 763 l 28 900 l 28 983 l 350 983 l 494 308 l 522 308 l 626 983 l 1047 983 l 1128 471 l 1150 308 l 1178 308 l 1322 983 l 1639 983 l 1639 900 l 1597 763 l 1376 0 l 963 0 l 847 683 l 818 683 l 794 529 l 708 0 l 292 0 z "},"Ẁ":{"ha":1667,"x_min":28,"x_max":1639,"o":"m 292 0 l 69 763 l 28 900 l 28 983 l 350 983 l 494 308 l 522 308 l 626 983 l 1047 983 l 1128 471 l 1150 308 l 1178 308 l 1322 983 l 1639 983 l 1639 900 l 1597 763 l 1376 0 l 963 0 l 847 683 l 818 683 l 794 529 l 708 0 l 292 0 m 842 1042 l 650 1224 l 650 1308 l 849 1308 l 940 1042 l 842 1042 z "},"X":{"ha":1069,"x_min":21,"x_max":1049,"o":"m 21 0 l 274 499 l 35 900 l 35 983 l 383 983 l 522 635 l 550 635 l 688 983 l 1049 983 l 794 494 l 1035 83 l 1035 0 l 693 0 l 550 332 l 522 332 l 372 0 l 21 0 z "},"Y":{"ha":1042,"x_min":21,"x_max":1021,"o":"m 365 0 l 365 403 l 21 900 l 21 983 l 369 983 l 508 697 l 536 697 l 674 983 l 1021 983 l 1021 900 l 667 394 l 675 254 l 675 0 l 365 0 z "},"Ý":{"ha":1042,"x_min":21,"x_max":1021,"o":"m 365 0 l 365 403 l 21 900 l 21 983 l 369 983 l 508 697 l 536 697 l 674 983 l 1021 983 l 1021 900 l 667 394 l 675 254 l 675 0 l 365 0 m 399 1042 l 490 1308 l 689 1308 l 689 1224 l 497 1042 l 399 1042 z "},"Ŷ":{"ha":1042,"x_min":21,"x_max":1021,"o":"m 365 0 l 365 403 l 21 900 l 21 983 l 369 983 l 508 697 l 536 697 l 674 983 l 1021 983 l 1021 900 l 667 394 l 675 254 l 675 0 l 365 0 m 292 1083 l 443 1306 l 583 1306 l 733 1083 l 593 1083 l 514 1164 l 431 1083 l 292 1083 z "},"Ÿ":{"ha":1042,"x_min":21,"x_max":1021,"o":"m 365 0 l 365 403 l 21 900 l 21 983 l 369 983 l 508 697 l 536 697 l 674 983 l 1021 983 l 1021 900 l 667 394 l 675 254 l 675 0 l 365 0 z "},"Ỵ":{"ha":1042,"x_min":21,"x_max":1021,"o":"m 365 0 l 365 403 l 21 900 l 21 983 l 369 983 l 508 697 l 536 697 l 674 983 l 1021 983 l 1021 900 l 667 394 l 675 254 l 675 0 l 365 0 z "},"Ỳ":{"ha":1042,"x_min":21,"x_max":1021,"o":"m 365 0 l 365 403 l 21 900 l 21 983 l 369 983 l 508 697 l 536 697 l 674 983 l 1021 983 l 1021 900 l 667 394 l 675 254 l 675 0 l 365 0 m 521 1042 l 329 1224 l 329 1308 l 528 1308 l 619 1042 l 521 1042 z "},"Ỷ":{"ha":1042,"x_min":21,"x_max":1021,"o":"m 365 0 l 365 403 l 21 900 l 21 983 l 369 983 l 508 697 l 536 697 l 674 983 l 1021 983 l 1021 900 l 667 394 l 675 254 l 675 0 l 365 0 m 451 1042 l 451 1056 q 467 1113 451 1089 q 503 1155 482 1138 q 539 1185 524 1172 q 554 1211 554 1199 q 551 1219 554 1217 q 536 1222 547 1222 q 478 1204 510 1222 q 431 1167 447 1186 l 368 1278 q 436 1322 388 1297 q 568 1347 485 1347 q 667 1320 632 1347 q 701 1243 701 1293 q 685 1176 701 1203 q 645 1128 668 1149 q 606 1089 622 1108 q 589 1042 589 1069 l 451 1042 z "},"Ȳ":{"ha":1042,"x_min":21,"x_max":1021,"o":"m 365 0 l 365 403 l 21 900 l 21 983 l 369 983 l 508 697 l 536 697 l 674 983 l 1021 983 l 1021 900 l 667 394 l 675 254 l 675 0 l 365 0 m 271 1097 l 271 1236 l 771 1236 l 771 1097 l 271 1097 z "},"Ỹ":{"ha":1042,"x_min":21,"x_max":1021,"o":"m 365 0 l 365 403 l 21 900 l 21 983 l 369 983 l 508 697 l 536 697 l 674 983 l 1021 983 l 1021 900 l 667 394 l 675 254 l 675 0 l 365 0 m 632 1056 q 548 1073 586 1056 q 479 1108 510 1090 q 424 1125 449 1125 l 383 1069 l 271 1069 q 284 1188 271 1135 q 328 1274 297 1242 q 410 1306 358 1306 q 492 1285 454 1306 q 563 1243 531 1264 q 619 1222 594 1222 l 660 1292 l 772 1292 q 742 1119 772 1183 q 632 1056 713 1056 z "},"Z":{"ha":914,"x_min":28,"x_max":872,"o":"m 71 0 l 28 83 l 461 721 l 71 721 l 71 983 l 869 983 l 869 819 l 507 263 l 550 263 l 872 290 l 872 0 l 71 0 z "},"Ź":{"ha":914,"x_min":28,"x_max":872,"o":"m 71 0 l 28 83 l 461 721 l 71 721 l 71 983 l 869 983 l 869 819 l 507 263 l 550 263 l 872 290 l 872 0 l 71 0 m 340 1042 l 432 1308 l 631 1308 l 631 1224 l 439 1042 l 340 1042 z "},"Ž":{"ha":914,"x_min":28,"x_max":872,"o":"m 71 0 l 28 83 l 461 721 l 71 721 l 71 983 l 869 983 l 869 819 l 507 263 l 550 263 l 872 290 l 872 0 l 71 0 z "},"Ż":{"ha":914,"x_min":28,"x_max":872,"o":"m 71 0 l 28 83 l 461 721 l 71 721 l 71 983 l 869 983 l 869 819 l 507 263 l 550 263 l 872 290 l 872 0 l 71 0 z "},"a":{"ha":826,"x_min":42,"x_max":793,"o":"m 250 -14 q 99 30 157 -14 q 42 183 42 74 q 109 337 42 285 q 292 389 176 389 q 392 377 354 389 q 449 354 429 365 l 458 361 q 443 426 458 404 q 369 447 428 447 q 265 437 318 447 q 164 410 211 426 q 83 376 117 394 l 83 626 q 154 643 106 633 q 271 660 203 653 q 417 668 339 668 q 624 637 547 668 q 733 547 700 606 q 765 406 765 488 l 765 221 l 793 81 l 765 -1 l 472 -1 l 472 67 l 458 74 q 383 14 436 42 q 250 -14 329 -14 m 407 168 q 442 175 428 168 q 458 183 456 182 l 458 214 q 446 250 458 235 q 408 265 433 265 q 367 253 386 265 q 347 213 347 242 q 407 168 347 168 z "},"á":{"ha":826,"x_min":42,"x_max":793,"o":"m 250 -14 q 99 30 157 -14 q 42 183 42 74 q 109 337 42 285 q 292 389 176 389 q 392 377 354 389 q 449 354 429 365 l 458 361 q 443 426 458 404 q 369 447 428 447 q 265 437 318 447 q 164 410 211 426 q 83 376 117 394 l 83 626 q 154 643 106 633 q 271 660 203 653 q 417 668 339 668 q 624 637 547 668 q 733 547 700 606 q 765 406 765 488 l 765 221 l 793 81 l 765 -1 l 472 -1 l 472 67 l 458 74 q 383 14 436 42 q 250 -14 329 -14 m 407 168 q 442 175 428 168 q 458 183 456 182 l 458 214 q 446 250 458 235 q 408 265 433 265 q 367 253 386 265 q 347 213 347 242 q 407 168 347 168 m 294 724 l 386 990 l 585 990 l 585 906 l 393 724 l 294 724 z "},"ă":{"ha":826,"x_min":42,"x_max":793,"o":"m 250 -14 q 99 30 157 -14 q 42 183 42 74 q 109 337 42 285 q 292 389 176 389 q 392 377 354 389 q 449 354 429 365 l 458 361 q 443 426 458 404 q 369 447 428 447 q 265 437 318 447 q 164 410 211 426 q 83 376 117 394 l 83 626 q 154 643 106 633 q 271 660 203 653 q 417 668 339 668 q 624 637 547 668 q 733 547 700 606 q 765 406 765 488 l 765 221 l 793 81 l 765 -1 l 472 -1 l 472 67 l 458 74 q 383 14 436 42 q 250 -14 329 -14 m 407 168 q 442 175 428 168 q 458 183 456 182 l 458 214 q 446 250 458 235 q 408 265 433 265 q 367 253 386 265 q 347 213 347 242 q 407 168 347 168 m 417 751 q 240 806 292 751 q 188 974 188 861 l 297 974 q 303 945 297 961 q 333 917 308 929 q 417 904 358 904 q 499 917 475 904 q 528 945 524 929 q 533 974 533 961 l 646 974 q 594 806 646 860 q 417 751 542 751 z "},"ắ":{"ha":826,"x_min":42,"x_max":793,"o":"m 250 -14 q 99 30 157 -14 q 42 183 42 74 q 109 337 42 285 q 292 389 176 389 q 392 377 354 389 q 449 354 429 365 l 458 361 q 443 426 458 404 q 369 447 428 447 q 265 437 318 447 q 164 410 211 426 q 83 376 117 394 l 83 626 q 154 643 106 633 q 271 660 203 653 q 417 668 339 668 q 624 637 547 668 q 733 547 700 606 q 765 406 765 488 l 765 221 l 793 81 l 765 -1 l 472 -1 l 472 67 l 458 74 q 383 14 436 42 q 250 -14 329 -14 m 407 168 q 442 175 428 168 q 458 183 456 182 l 458 214 q 446 250 458 235 q 408 265 433 265 q 367 253 386 265 q 347 213 347 242 q 407 168 347 168 z "},"ặ":{"ha":826,"x_min":42,"x_max":793,"o":"m 250 -14 q 99 30 157 -14 q 42 183 42 74 q 109 337 42 285 q 292 389 176 389 q 392 377 354 389 q 449 354 429 365 l 458 361 q 443 426 458 404 q 369 447 428 447 q 265 437 318 447 q 164 410 211 426 q 83 376 117 394 l 83 626 q 154 643 106 633 q 271 660 203 653 q 417 668 339 668 q 624 637 547 668 q 733 547 700 606 q 765 406 765 488 l 765 221 l 793 81 l 765 -1 l 472 -1 l 472 67 l 458 74 q 383 14 436 42 q 250 -14 329 -14 m 407 168 q 442 175 428 168 q 458 183 456 182 l 458 214 q 446 250 458 235 q 408 265 433 265 q 367 253 386 265 q 347 213 347 242 q 407 168 347 168 m 417 751 q 240 806 292 751 q 188 974 188 861 l 297 974 q 303 945 297 961 q 333 917 308 929 q 417 904 358 904 q 499 917 475 904 q 528 945 524 929 q 533 974 533 961 l 646 974 q 594 806 646 860 q 417 751 542 751 z "},"ằ":{"ha":826,"x_min":42,"x_max":793,"o":"m 250 -14 q 99 30 157 -14 q 42 183 42 74 q 109 337 42 285 q 292 389 176 389 q 392 377 354 389 q 449 354 429 365 l 458 361 q 443 426 458 404 q 369 447 428 447 q 265 437 318 447 q 164 410 211 426 q 83 376 117 394 l 83 626 q 154 643 106 633 q 271 660 203 653 q 417 668 339 668 q 624 637 547 668 q 733 547 700 606 q 765 406 765 488 l 765 221 l 793 81 l 765 -1 l 472 -1 l 472 67 l 458 74 q 383 14 436 42 q 250 -14 329 -14 m 407 168 q 442 175 428 168 q 458 183 456 182 l 458 214 q 446 250 458 235 q 408 265 433 265 q 367 253 386 265 q 347 213 347 242 q 407 168 347 168 z "},"ẳ":{"ha":826,"x_min":42,"x_max":793,"o":"m 250 -14 q 99 30 157 -14 q 42 183 42 74 q 109 337 42 285 q 292 389 176 389 q 392 377 354 389 q 449 354 429 365 l 458 361 q 443 426 458 404 q 369 447 428 447 q 265 437 318 447 q 164 410 211 426 q 83 376 117 394 l 83 626 q 154 643 106 633 q 271 660 203 653 q 417 668 339 668 q 624 637 547 668 q 733 547 700 606 q 765 406 765 488 l 765 221 l 793 81 l 765 -1 l 472 -1 l 472 67 l 458 74 q 383 14 436 42 q 250 -14 329 -14 m 407 168 q 442 175 428 168 q 458 183 456 182 l 458 214 q 446 250 458 235 q 408 265 433 265 q 367 253 386 265 q 347 213 347 242 q 407 168 347 168 z "},"ẵ":{"ha":826,"x_min":42,"x_max":793,"o":"m 250 -14 q 99 30 157 -14 q 42 183 42 74 q 109 337 42 285 q 292 389 176 389 q 392 377 354 389 q 449 354 429 365 l 458 361 q 443 426 458 404 q 369 447 428 447 q 265 437 318 447 q 164 410 211 426 q 83 376 117 394 l 83 626 q 154 643 106 633 q 271 660 203 653 q 417 668 339 668 q 624 637 547 668 q 733 547 700 606 q 765 406 765 488 l 765 221 l 793 81 l 765 -1 l 472 -1 l 472 67 l 458 74 q 383 14 436 42 q 250 -14 329 -14 m 407 168 q 442 175 428 168 q 458 183 456 182 l 458 214 q 446 250 458 235 q 408 265 433 265 q 367 253 386 265 q 347 213 347 242 q 407 168 347 168 z "},"â":{"ha":826,"x_min":42,"x_max":793,"o":"m 250 -14 q 99 30 157 -14 q 42 183 42 74 q 109 337 42 285 q 292 389 176 389 q 392 377 354 389 q 449 354 429 365 l 458 361 q 443 426 458 404 q 369 447 428 447 q 265 437 318 447 q 164 410 211 426 q 83 376 117 394 l 83 626 q 154 643 106 633 q 271 660 203 653 q 417 668 339 668 q 624 637 547 668 q 733 547 700 606 q 765 406 765 488 l 765 221 l 793 81 l 765 -1 l 472 -1 l 472 67 l 458 74 q 383 14 436 42 q 250 -14 329 -14 m 407 168 q 442 175 428 168 q 458 183 456 182 l 458 214 q 446 250 458 235 q 408 265 433 265 q 367 253 386 265 q 347 213 347 242 q 407 168 347 168 m 188 765 l 339 988 l 479 988 l 629 765 l 489 765 l 410 846 l 326 765 l 188 765 z "},"ấ":{"ha":826,"x_min":42,"x_max":793,"o":"m 250 -14 q 99 30 157 -14 q 42 183 42 74 q 109 337 42 285 q 292 389 176 389 q 392 377 354 389 q 449 354 429 365 l 458 361 q 443 426 458 404 q 369 447 428 447 q 265 437 318 447 q 164 410 211 426 q 83 376 117 394 l 83 626 q 154 643 106 633 q 271 660 203 653 q 417 668 339 668 q 624 637 547 668 q 733 547 700 606 q 765 406 765 488 l 765 221 l 793 81 l 765 -1 l 472 -1 l 472 67 l 458 74 q 383 14 436 42 q 250 -14 329 -14 m 407 168 q 442 175 428 168 q 458 183 456 182 l 458 214 q 446 250 458 235 q 408 265 433 265 q 367 253 386 265 q 347 213 347 242 q 407 168 347 168 z "},"ậ":{"ha":826,"x_min":42,"x_max":793,"o":"m 250 -14 q 99 30 157 -14 q 42 183 42 74 q 109 337 42 285 q 292 389 176 389 q 392 377 354 389 q 449 354 429 365 l 458 361 q 443 426 458 404 q 369 447 428 447 q 265 437 318 447 q 164 410 211 426 q 83 376 117 394 l 83 626 q 154 643 106 633 q 271 660 203 653 q 417 668 339 668 q 624 637 547 668 q 733 547 700 606 q 765 406 765 488 l 765 221 l 793 81 l 765 -1 l 472 -1 l 472 67 l 458 74 q 383 14 436 42 q 250 -14 329 -14 m 407 168 q 442 175 428 168 q 458 183 456 182 l 458 214 q 446 250 458 235 q 408 265 433 265 q 367 253 386 265 q 347 213 347 242 q 407 168 347 168 m 188 765 l 339 988 l 479 988 l 629 765 l 489 765 l 410 846 l 326 765 l 188 765 z "},"ầ":{"ha":826,"x_min":42,"x_max":793,"o":"m 250 -14 q 99 30 157 -14 q 42 183 42 74 q 109 337 42 285 q 292 389 176 389 q 392 377 354 389 q 449 354 429 365 l 458 361 q 443 426 458 404 q 369 447 428 447 q 265 437 318 447 q 164 410 211 426 q 83 376 117 394 l 83 626 q 154 643 106 633 q 271 660 203 653 q 417 668 339 668 q 624 637 547 668 q 733 547 700 606 q 765 406 765 488 l 765 221 l 793 81 l 765 -1 l 472 -1 l 472 67 l 458 74 q 383 14 436 42 q 250 -14 329 -14 m 407 168 q 442 175 428 168 q 458 183 456 182 l 458 214 q 446 250 458 235 q 408 265 433 265 q 367 253 386 265 q 347 213 347 242 q 407 168 347 168 z "},"ẩ":{"ha":826,"x_min":42,"x_max":793,"o":"m 250 -14 q 99 30 157 -14 q 42 183 42 74 q 109 337 42 285 q 292 389 176 389 q 392 377 354 389 q 449 354 429 365 l 458 361 q 443 426 458 404 q 369 447 428 447 q 265 437 318 447 q 164 410 211 426 q 83 376 117 394 l 83 626 q 154 643 106 633 q 271 660 203 653 q 417 668 339 668 q 624 637 547 668 q 733 547 700 606 q 765 406 765 488 l 765 221 l 793 81 l 765 -1 l 472 -1 l 472 67 l 458 74 q 383 14 436 42 q 250 -14 329 -14 m 407 168 q 442 175 428 168 q 458 183 456 182 l 458 214 q 446 250 458 235 q 408 265 433 265 q 367 253 386 265 q 347 213 347 242 q 407 168 347 168 z "},"ẫ":{"ha":826,"x_min":42,"x_max":793,"o":"m 250 -14 q 99 30 157 -14 q 42 183 42 74 q 109 337 42 285 q 292 389 176 389 q 392 377 354 389 q 449 354 429 365 l 458 361 q 443 426 458 404 q 369 447 428 447 q 265 437 318 447 q 164 410 211 426 q 83 376 117 394 l 83 626 q 154 643 106 633 q 271 660 203 653 q 417 668 339 668 q 624 637 547 668 q 733 547 700 606 q 765 406 765 488 l 765 221 l 793 81 l 765 -1 l 472 -1 l 472 67 l 458 74 q 383 14 436 42 q 250 -14 329 -14 m 407 168 q 442 175 428 168 q 458 183 456 182 l 458 214 q 446 250 458 235 q 408 265 433 265 q 367 253 386 265 q 347 213 347 242 q 407 168 347 168 z "},"´":{"ha":374,"x_min":42,"x_max":332,"o":"m 42 708 l 133 975 l 332 975 l 332 890 l 140 708 l 42 708 z "},"́":{"ha":0,"x_min":-486,"x_max":-196,"o":"m -486 708 l -394 975 l -196 975 l -196 890 l -387 708 l -486 708 z "},"ȁ":{"ha":826,"x_min":42,"x_max":793,"o":"m 250 -14 q 99 30 157 -14 q 42 183 42 74 q 109 337 42 285 q 292 389 176 389 q 392 377 354 389 q 449 354 429 365 l 458 361 q 443 426 458 404 q 369 447 428 447 q 265 437 318 447 q 164 410 211 426 q 83 376 117 394 l 83 626 q 154 643 106 633 q 271 660 203 653 q 417 668 339 668 q 624 637 547 668 q 733 547 700 606 q 765 406 765 488 l 765 221 l 793 81 l 765 -1 l 472 -1 l 472 67 l 458 74 q 383 14 436 42 q 250 -14 329 -14 m 407 168 q 442 175 428 168 q 458 183 456 182 l 458 214 q 446 250 458 235 q 408 265 433 265 q 367 253 386 265 q 347 213 347 242 q 407 168 347 168 z "},"ä":{"ha":826,"x_min":42,"x_max":793,"o":"m 250 -14 q 99 30 157 -14 q 42 183 42 74 q 109 337 42 285 q 292 389 176 389 q 392 377 354 389 q 449 354 429 365 l 458 361 q 443 426 458 404 q 369 447 428 447 q 265 437 318 447 q 164 410 211 426 q 83 376 117 394 l 83 626 q 154 643 106 633 q 271 660 203 653 q 417 668 339 668 q 624 637 547 668 q 733 547 700 606 q 765 406 765 488 l 765 221 l 793 81 l 765 -1 l 472 -1 l 472 67 l 458 74 q 383 14 436 42 q 250 -14 329 -14 m 407 168 q 442 175 428 168 q 458 183 456 182 l 458 214 q 446 250 458 235 q 408 265 433 265 q 367 253 386 265 q 347 213 347 242 q 407 168 347 168 z "},"ạ":{"ha":826,"x_min":42,"x_max":793,"o":"m 250 -14 q 99 30 157 -14 q 42 183 42 74 q 109 337 42 285 q 292 389 176 389 q 392 377 354 389 q 449 354 429 365 l 458 361 q 443 426 458 404 q 369 447 428 447 q 265 437 318 447 q 164 410 211 426 q 83 376 117 394 l 83 626 q 154 643 106 633 q 271 660 203 653 q 417 668 339 668 q 624 637 547 668 q 733 547 700 606 q 765 406 765 488 l 765 221 l 793 81 l 765 -1 l 472 -1 l 472 67 l 458 74 q 383 14 436 42 q 250 -14 329 -14 m 407 168 q 442 175 428 168 q 458 183 456 182 l 458 214 q 446 250 458 235 q 408 265 433 265 q 367 253 386 265 q 347 213 347 242 q 407 168 347 168 z "},"æ":{"ha":1249,"x_min":42,"x_max":1193,"o":"m 250 -14 q 147 3 194 -14 q 70 64 99 21 q 42 183 42 107 q 76 297 42 251 q 171 365 111 342 q 306 389 231 389 q 389 380 356 389 q 449 354 422 371 l 458 363 q 442 419 458 406 q 369 433 425 433 q 260 424 318 433 q 155 402 203 415 q 83 376 107 389 l 83 626 q 213 655 126 642 q 417 668 300 668 q 524 653 478 668 q 604 613 571 638 q 710 656 653 642 q 826 669 767 669 q 973 658 914 669 q 1068 633 1032 647 q 1124 608 1104 619 l 1193 388 l 1165 301 l 763 301 q 803 235 768 263 q 924 208 838 208 q 1060 226 1006 208 q 1138 254 1114 244 l 1138 40 q 1061 13 1110 25 q 955 -7 1013 0 q 840 -14 897 -14 q 688 3 758 -14 q 567 61 618 21 q 415 1 503 17 q 250 -14 328 -14 m 758 392 l 900 418 l 888 463 q 840 474 868 474 q 776 449 794 474 q 758 392 757 424 m 410 168 q 442 175 431 168 q 458 188 453 182 l 458 214 q 446 250 458 235 q 408 265 433 265 q 361 213 361 265 q 410 168 361 168 z "},"ǽ":{"ha":1249,"x_min":42,"x_max":1193,"o":"m 250 -14 q 147 3 194 -14 q 70 64 99 21 q 42 183 42 107 q 76 297 42 251 q 171 365 111 342 q 306 389 231 389 q 389 380 356 389 q 449 354 422 371 l 458 363 q 442 419 458 406 q 369 433 425 433 q 260 424 318 433 q 155 402 203 415 q 83 376 107 389 l 83 626 q 213 655 126 642 q 417 668 300 668 q 524 653 478 668 q 604 613 571 638 q 710 656 653 642 q 826 669 767 669 q 973 658 914 669 q 1068 633 1032 647 q 1124 608 1104 619 l 1193 388 l 1165 301 l 763 301 q 803 235 768 263 q 924 208 838 208 q 1060 226 1006 208 q 1138 254 1114 244 l 1138 40 q 1061 13 1110 25 q 955 -7 1013 0 q 840 -14 897 -14 q 688 3 758 -14 q 567 61 618 21 q 415 1 503 17 q 250 -14 328 -14 m 758 392 l 900 418 l 888 463 q 840 474 868 474 q 776 449 794 474 q 758 392 757 424 m 410 168 q 442 175 431 168 q 458 188 453 182 l 458 214 q 446 250 458 235 q 408 265 433 265 q 361 213 361 265 q 410 168 361 168 m 479 708 l 571 975 l 769 975 l 769 890 l 578 708 l 479 708 z "},"à":{"ha":826,"x_min":42,"x_max":793,"o":"m 250 -14 q 99 30 157 -14 q 42 183 42 74 q 109 337 42 285 q 292 389 176 389 q 392 377 354 389 q 449 354 429 365 l 458 361 q 443 426 458 404 q 369 447 428 447 q 265 437 318 447 q 164 410 211 426 q 83 376 117 394 l 83 626 q 154 643 106 633 q 271 660 203 653 q 417 668 339 668 q 624 637 547 668 q 733 547 700 606 q 765 406 765 488 l 765 221 l 793 81 l 765 -1 l 472 -1 l 472 67 l 458 74 q 383 14 436 42 q 250 -14 329 -14 m 407 168 q 442 175 428 168 q 458 183 456 182 l 458 214 q 446 250 458 235 q 408 265 433 265 q 367 253 386 265 q 347 213 347 242 q 407 168 347 168 m 417 724 l 225 906 l 225 990 l 424 990 l 515 724 l 417 724 z "},"ả":{"ha":826,"x_min":42,"x_max":793,"o":"m 250 -14 q 99 30 157 -14 q 42 183 42 74 q 109 337 42 285 q 292 389 176 389 q 392 377 354 389 q 449 354 429 365 l 458 361 q 443 426 458 404 q 369 447 428 447 q 265 437 318 447 q 164 410 211 426 q 83 376 117 394 l 83 626 q 154 643 106 633 q 271 660 203 653 q 417 668 339 668 q 624 637 547 668 q 733 547 700 606 q 765 406 765 488 l 765 221 l 793 81 l 765 -1 l 472 -1 l 472 67 l 458 74 q 383 14 436 42 q 250 -14 329 -14 m 407 168 q 442 175 428 168 q 458 183 456 182 l 458 214 q 446 250 458 235 q 408 265 433 265 q 367 253 386 265 q 347 213 347 242 q 407 168 347 168 m 347 724 l 347 738 q 363 795 347 771 q 399 837 378 819 q 435 867 419 854 q 450 893 450 881 q 447 901 450 899 q 432 904 443 904 q 374 886 406 904 q 326 849 343 868 l 264 960 q 332 1004 283 979 q 464 1029 381 1029 q 563 1002 528 1029 q 597 925 597 975 q 581 858 597 885 q 541 810 564 831 q 501 771 518 790 q 485 724 485 751 l 347 724 z "},"ȃ":{"ha":826,"x_min":42,"x_max":793,"o":"m 250 -14 q 99 30 157 -14 q 42 183 42 74 q 109 337 42 285 q 292 389 176 389 q 392 377 354 389 q 449 354 429 365 l 458 361 q 443 426 458 404 q 369 447 428 447 q 265 437 318 447 q 164 410 211 426 q 83 376 117 394 l 83 626 q 154 643 106 633 q 271 660 203 653 q 417 668 339 668 q 624 637 547 668 q 733 547 700 606 q 765 406 765 488 l 765 221 l 793 81 l 765 -1 l 472 -1 l 472 67 l 458 74 q 383 14 436 42 q 250 -14 329 -14 m 407 168 q 442 175 428 168 q 458 183 456 182 l 458 214 q 446 250 458 235 q 408 265 433 265 q 367 253 386 265 q 347 213 347 242 q 407 168 347 168 z "},"ā":{"ha":826,"x_min":42,"x_max":793,"o":"m 250 -14 q 99 30 157 -14 q 42 183 42 74 q 109 337 42 285 q 292 389 176 389 q 392 377 354 389 q 449 354 429 365 l 458 361 q 443 426 458 404 q 369 447 428 447 q 265 437 318 447 q 164 410 211 426 q 83 376 117 394 l 83 626 q 154 643 106 633 q 271 660 203 653 q 417 668 339 668 q 624 637 547 668 q 733 547 700 606 q 765 406 765 488 l 765 221 l 793 81 l 765 -1 l 472 -1 l 472 67 l 458 74 q 383 14 436 42 q 250 -14 329 -14 m 407 168 q 442 175 428 168 q 458 183 456 182 l 458 214 q 446 250 458 235 q 408 265 433 265 q 367 253 386 265 q 347 213 347 242 q 407 168 347 168 m 167 779 l 167 918 l 667 918 l 667 779 l 167 779 z "},"&":{"ha":1179,"x_min":69,"x_max":1138,"o":"m 369 -14 q 150 60 231 -14 q 69 274 69 135 q 93 395 69 344 q 152 478 117 446 q 225 528 188 510 q 292 553 263 546 q 258 597 278 569 q 224 663 239 624 q 210 757 210 703 q 261 900 210 847 q 397 983 313 953 q 484 999 433 996 q 586 1001 535 1003 q 678 994 638 999 q 733 985 718 989 l 843 874 l 758 703 l 621 732 q 567 715 581 731 q 553 671 553 699 q 565 631 553 653 q 606 581 578 608 l 771 415 l 785 431 l 753 572 l 767 656 l 1099 628 l 1099 414 l 932 261 l 1035 165 l 1138 83 l 1138 0 l 813 0 l 726 89 q 648 42 693 65 q 536 2 603 18 q 369 -14 469 -14 m 442 250 q 501 260 478 250 q 536 278 525 271 l 433 374 q 404 343 419 360 q 389 299 389 326 q 403 263 389 276 q 442 250 418 250 z "},"ą":{"ha":826,"x_min":42,"x_max":793,"o":"m 250 -14 q 99 30 157 -14 q 42 183 42 74 q 109 337 42 285 q 292 389 176 389 q 392 377 354 389 q 449 354 429 365 l 458 361 q 443 426 458 404 q 369 447 428 447 q 265 437 318 447 q 164 410 211 426 q 83 376 117 394 l 83 626 q 154 643 106 633 q 271 660 203 653 q 417 668 339 668 q 624 637 547 668 q 733 547 700 606 q 765 406 765 488 l 765 221 l 793 81 l 765 -1 l 472 -1 l 472 67 l 458 74 q 383 14 436 42 q 250 -14 329 -14 m 407 168 q 442 175 428 168 q 458 183 456 182 l 458 214 q 446 250 458 235 q 408 265 433 265 q 367 253 386 265 q 347 213 347 242 q 407 168 347 168 m 571 -264 q 455 -224 499 -264 q 411 -121 411 -185 l 475 4 l 614 4 l 585 -75 q 584 -100 579 -89 q 603 -111 589 -111 q 657 -101 628 -111 q 706 -75 686 -92 l 765 -172 q 726 -208 753 -186 q 661 -247 700 -231 q 571 -264 622 -264 z "},"ʼ":{"ha":375,"x_min":69,"x_max":306,"o":"m 97 722 l 69 771 q 125 810 97 782 q 153 876 153 838 q 133 930 153 915 q 81 944 114 944 l 81 979 q 110 1038 81 1019 q 181 1056 139 1056 q 276 1013 247 1056 q 306 917 306 969 q 272 817 306 860 q 191 749 239 774 q 97 722 143 725 z "},"":{"ha":6063,"x_min":28,"x_max":5993,"o":"m 2693 993 q 2731 991 2713 993 q 2767 982 2749 989 q 2847 925 2822 964 q 2871 840 2871 886 q 2832 739 2871 776 q 2736 701 2793 701 q 2667 720 2692 701 q 2637 763 2642 739 q 2647 803 2632 788 q 2652 821 2656 811 q 2625 831 2649 831 l 2622 831 q 2548 796 2585 829 q 2511 689 2511 763 q 2499 678 2511 678 q 2473 692 2489 678 q 2453 732 2457 706 q 2464 847 2442 793 q 2536 943 2486 901 q 2606 979 2564 965 q 2693 993 2647 993 m 4343 939 q 4356 891 4354 921 q 4354 832 4358 861 q 4339 786 4350 803 q 4295 745 4324 763 q 4206 728 4267 728 q 4107 731 4163 728 q 3997 740 4051 735 q 3899 749 3942 746 q 3839 753 3857 753 l 3839 124 l 3865 0 l 3619 0 l 3631 93 l 3631 628 q 3650 713 3631 683 q 3682 753 3669 742 l 3682 763 q 3619 765 3654 763 q 3547 767 3585 767 q 3479 764 3514 767 q 3413 753 3444 761 q 3344 721 3363 740 q 3325 701 3325 701 q 3344 647 3325 676 q 3389 592 3363 618 q 3428 559 3407 574 q 3464 535 3449 544 q 3479 526 3479 526 q 3474 510 3479 526 q 3455 471 3468 493 q 3417 432 3442 449 q 3354 415 3393 415 q 3257 451 3297 415 q 3217 563 3217 488 q 3230 657 3217 611 q 3269 729 3243 703 q 3310 793 3301 761 q 3332 850 3319 825 q 3400 913 3357 899 q 3504 928 3443 928 q 3697 923 3589 928 q 3920 913 3806 918 q 4135 907 4035 907 l 4343 939 m 339 846 q 434 844 381 846 q 537 842 488 843 q 619 839 586 840 q 651 838 651 838 l 651 718 l 815 375 l 1003 819 l 1229 840 l 1229 124 l 1260 0 l 1013 0 l 1024 93 l 1024 550 l 1013 550 l 886 124 l 783 0 l 549 496 l 538 496 l 538 125 l 567 0 l 394 0 l 406 93 l 406 603 q 413 648 406 628 q 426 674 421 668 l 426 683 l 369 683 q 294 681 335 683 q 226 671 254 679 q 158 638 178 656 q 139 619 139 619 q 144 597 139 614 q 171 560 149 581 q 210 536 188 543 q 249 528 232 529 q 265 526 265 526 q 263 506 265 526 q 251 458 261 485 q 218 411 240 432 q 156 390 196 390 q 62 426 96 390 q 28 513 28 461 q 40 578 28 540 q 86 650 51 615 q 135 713 118 682 q 167 768 153 743 q 233 831 190 817 q 339 846 276 846 m 2128 640 q 2178 640 2143 640 q 2247 640 2213 640 q 2299 639 2282 639 q 2375 631 2336 639 q 2447 601 2414 622 q 2501 542 2481 581 q 2522 440 2522 503 q 2501 336 2522 378 q 2449 268 2479 294 q 2354 217 2410 233 q 2238 200 2299 200 q 2174 185 2193 200 q 2156 150 2156 171 q 2165 126 2156 136 q 2203 110 2174 115 q 2296 104 2233 104 q 2434 90 2371 104 q 2535 38 2497 76 q 2572 -71 2572 0 q 2528 -203 2572 -149 q 2408 -286 2483 -258 q 2243 -314 2333 -314 q 2042 -274 2118 -314 q 1967 -167 1967 -235 q 1990 -112 1967 -135 q 2042 -69 2013 -89 q 2092 -31 2072 -50 q 2105 6 2107 -15 q 2088 43 2103 26 q 2044 91 2063 68 q 2025 144 2025 114 q 2047 202 2025 176 q 2086 244 2069 228 q 2044 292 2064 268 q 2011 353 2024 317 q 1999 443 1999 389 q 2018 519 1999 483 q 2063 583 2038 556 q 2108 625 2089 610 q 2128 640 2128 640 m 5710 639 q 5850 612 5783 639 q 5949 529 5917 585 q 5988 409 5982 469 q 5993 278 5993 349 l 5740 278 q 5719 285 5722 278 q 5724 301 5715 293 l 5797 389 q 5765 455 5789 432 q 5715 487 5742 478 q 5669 496 5689 496 q 5653 481 5669 496 q 5621 431 5638 467 q 5604 328 5604 394 q 5631 217 5604 263 q 5703 147 5658 171 q 5800 124 5747 124 l 5968 174 l 5968 0 q 5911 -12 5956 -4 q 5771 -21 5867 -21 q 5502 63 5596 -21 q 5408 311 5408 147 q 5451 492 5408 419 q 5562 602 5493 565 q 5710 639 5631 639 m 5065 631 q 5201 598 5140 631 q 5297 499 5261 565 q 5332 332 5332 433 q 5256 74 5332 168 q 5047 -21 5179 -21 q 4976 -14 5008 -21 q 4924 0 4943 -7 l 4924 -81 q 4905 -203 4924 -162 q 4860 -256 4886 -243 q 4811 -269 4833 -269 l 4704 -269 l 4736 -82 l 4736 526 l 4725 619 l 4864 629 l 4915 599 q 4972 618 4939 606 q 5065 631 5006 631 m 1493 629 l 1654 629 q 1837 572 1782 629 q 1892 371 1892 515 l 1892 124 l 1924 0 l 1797 0 q 1748 17 1765 0 q 1724 65 1731 35 l 1549 -21 q 1400 19 1447 -21 q 1353 124 1353 60 q 1365 182 1353 151 q 1404 238 1378 213 q 1485 292 1436 269 q 1592 328 1535 315 q 1706 340 1650 340 l 1706 371 q 1684 476 1706 443 q 1631 517 1663 508 q 1571 526 1600 526 l 1571 399 q 1553 396 1571 399 q 1510 393 1535 393 q 1459 398 1485 393 q 1418 418 1433 403 q 1392 465 1397 440 q 1387 508 1386 490 q 1388 526 1388 526 l 1493 629 m 2825 629 l 2825 124 l 2856 0 l 2628 0 l 2638 93 l 2638 533 l 2628 604 q 2648 602 2631 604 q 2690 600 2665 600 q 2758 606 2721 600 q 2825 629 2794 611 m 3167 628 q 3172 554 3174 593 q 3151 468 3169 515 q 3133 402 3140 438 q 3125 321 3125 367 q 3150 215 3125 260 q 3217 147 3175 171 q 3308 124 3260 124 l 3433 164 l 3433 0 q 3396 -8 3426 -3 q 3324 -16 3365 -12 q 3242 -19 3283 -19 q 3009 64 3090 -19 q 2928 310 2928 147 q 2981 494 2928 424 q 3106 599 3033 565 q 3138 615 3124 607 q 3167 628 3153 622 m 4596 619 l 4585 496 l 4585 168 q 4576 -72 4585 21 q 4548 -222 4568 -165 q 4492 -318 4528 -278 q 4356 -414 4435 -385 q 4176 -443 4278 -443 q 4045 -415 4106 -443 q 3948 -337 3985 -386 q 3911 -229 3911 -289 q 3953 -119 3911 -165 q 4075 -74 3994 -74 q 4120 -78 4097 -74 q 4151 -85 4143 -82 q 4162 -42 4164 -71 q 4111 24 4160 -12 q 4039 120 4063 61 q 4015 272 4015 179 l 4015 478 q 4016 544 4015 511 q 4017 598 4017 576 q 4017 619 4017 619 l 4214 619 l 4201 515 l 4201 269 q 4234 154 4201 185 q 4310 124 4267 124 q 4377 140 4354 124 q 4400 156 4400 156 l 4400 619 l 4596 619 m 2281 310 q 2313 350 2299 329 q 2326 414 2326 371 q 2300 498 2326 469 q 2238 526 2274 526 q 2168 496 2199 526 l 2168 485 q 2186 394 2168 433 q 2230 332 2204 354 q 2281 310 2256 310 m 5057 124 l 5068 124 q 5108 184 5088 144 q 5128 304 5128 224 q 5108 395 5128 351 q 5057 467 5089 439 q 4989 496 5025 496 q 4946 467 4968 482 q 4924 451 4924 451 l 4924 164 q 4969 137 4943 146 q 5019 126 4994 128 q 5057 124 5043 124 m 1611 124 q 1665 133 1636 124 q 1706 156 1694 143 l 1706 228 l 1572 249 q 1544 185 1544 221 q 1563 141 1544 158 q 1611 124 1581 124 m 4233 -239 q 4205 -231 4215 -239 q 4175 -224 4194 -224 q 4145 -233 4158 -224 q 4132 -261 4132 -243 q 4156 -303 4132 -287 q 4218 -319 4179 -319 q 4313 -285 4272 -319 q 4378 -193 4354 -251 q 4401 -62 4401 -135 l 4401 21 q 4359 -3 4394 14 q 4267 -21 4324 -21 q 4210 -53 4224 -21 q 4238 -139 4197 -86 q 4256 -170 4249 -154 q 4264 -203 4264 -186 q 4256 -228 4264 -218 q 4233 -239 4249 -239 m 2249 -156 q 2343 -104 2343 -156 q 2316 -53 2343 -78 q 2250 -14 2289 -29 q 2172 1 2211 1 q 2164 -19 2172 1 q 2156 -71 2156 -39 q 2181 -131 2156 -106 q 2249 -156 2206 -156 m 5090 -293 q 5179 -312 5138 -293 q 5247 -366 5221 -331 q 5274 -454 5274 -401 q 5228 -574 5274 -521 q 5109 -656 5182 -626 q 4951 -686 5036 -686 q 4864 -677 4907 -686 q 4765 -642 4821 -668 q 4626 -564 4710 -615 q 4527 -502 4560 -522 q 4467 -464 4494 -482 q 4460 -449 4458 -458 q 4478 -433 4463 -440 q 4522 -420 4497 -424 q 4571 -417 4546 -417 q 4634 -423 4603 -417 q 4711 -447 4665 -429 q 4828 -503 4757 -465 q 4992 -567 4922 -551 q 5097 -582 5063 -582 q 5115 -534 5114 -565 q 5095 -477 5115 -503 q 5028 -451 5075 -451 q 4947 -457 4993 -451 q 4872 -462 4901 -462 l 4856 -462 q 4892 -405 4863 -444 q 4964 -333 4921 -365 q 5090 -293 5019 -293 m 4743 -693 q 4740 -767 4726 -731 q 4785 -819 4753 -803 q 4823 -837 4810 -832 q 4840 -847 4836 -842 q 4813 -918 4840 -892 q 4746 -944 4786 -944 q 4664 -910 4690 -944 q 4638 -837 4638 -876 q 4676 -744 4638 -782 q 4715 -708 4696 -724 q 4743 -693 4735 -693 z "},"≈":{"ha":722,"x_min":69,"x_max":653,"o":"m 504 472 q 408 493 457 472 q 312 535 358 514 q 225 556 265 556 q 135 531 178 556 q 69 488 92 507 l 69 653 q 88 670 69 653 q 141 705 106 688 q 225 722 176 722 q 315 701 267 722 q 412 660 363 681 q 504 639 461 639 q 568 652 538 639 q 622 681 599 665 q 653 707 644 697 l 653 542 q 637 524 653 542 q 588 490 621 507 q 504 472 556 472 m 504 139 q 408 160 457 139 q 312 201 358 181 q 225 222 265 222 q 135 198 178 222 q 69 154 92 174 l 69 319 q 88 337 69 319 q 141 372 106 354 q 225 389 176 389 q 315 368 267 389 q 412 326 363 347 q 504 306 461 306 q 568 319 538 306 q 622 348 599 332 q 653 374 644 364 l 653 208 q 637 191 653 208 q 588 156 621 174 q 504 139 556 139 z "},"å":{"ha":826,"x_min":42,"x_max":793,"o":"m 250 -14 q 99 30 157 -14 q 42 183 42 74 q 109 337 42 285 q 292 389 176 389 q 392 377 354 389 q 449 354 429 365 l 458 361 q 443 426 458 404 q 369 447 428 447 q 265 437 318 447 q 164 410 211 426 q 83 376 117 394 l 83 626 q 154 643 106 633 q 271 660 203 653 q 417 668 339 668 q 624 637 547 668 q 733 547 700 606 q 765 406 765 488 l 765 221 l 793 81 l 765 -1 l 472 -1 l 472 67 l 458 74 q 383 14 436 42 q 250 -14 329 -14 m 407 168 q 442 175 428 168 q 458 183 456 182 l 458 214 q 446 250 458 235 q 408 265 433 265 q 367 253 386 265 q 347 213 347 242 q 407 168 347 168 m 414 724 q 333 746 369 724 q 274 805 296 768 q 251 886 251 842 q 274 967 251 931 q 333 1026 296 1004 q 414 1049 369 1049 q 495 1026 458 1049 q 554 967 532 1004 q 576 886 576 931 q 554 805 576 842 q 495 746 532 768 q 414 724 458 724 m 414 850 q 440 861 429 850 q 450 886 450 872 q 440 912 450 901 q 414 922 429 922 q 389 912 400 922 q 378 886 378 901 q 389 861 378 872 q 414 850 400 850 z "},"ǻ":{"ha":826,"x_min":42,"x_max":793,"o":"m 250 -14 q 99 30 157 -14 q 42 183 42 74 q 109 337 42 285 q 292 389 176 389 q 392 377 354 389 q 449 354 429 365 l 458 361 q 443 426 458 404 q 369 447 428 447 q 265 437 318 447 q 164 410 211 426 q 83 376 117 394 l 83 626 q 154 643 106 633 q 271 660 203 653 q 417 668 339 668 q 624 637 547 668 q 733 547 700 606 q 765 406 765 488 l 765 221 l 793 81 l 765 -1 l 472 -1 l 472 67 l 458 74 q 383 14 436 42 q 250 -14 329 -14 m 407 168 q 442 175 428 168 q 458 183 456 182 l 458 214 q 446 250 458 235 q 408 265 433 265 q 367 253 386 265 q 347 213 347 242 q 407 168 347 168 m 414 724 q 333 746 369 724 q 274 805 296 768 q 251 886 251 842 q 274 967 251 931 q 333 1026 296 1004 q 414 1049 369 1049 q 495 1026 458 1049 q 554 967 532 1004 q 576 886 576 931 q 554 805 576 842 q 495 746 532 768 q 414 724 458 724 m 414 850 q 440 861 429 850 q 450 886 450 872 q 440 912 450 901 q 414 922 429 922 q 389 912 400 922 q 378 886 378 901 q 389 861 378 872 q 414 850 400 850 m 294 1108 l 386 1375 l 585 1375 l 585 1290 l 393 1108 l 294 1108 z "},"^":{"ha":586,"x_min":69,"x_max":517,"o":"m 69 653 l 213 986 l 382 986 l 517 653 l 404 653 l 297 817 l 182 653 l 69 653 z "},"~":{"ha":585,"x_min":42,"x_max":543,"o":"z "},"*":{"ha":525,"x_min":42,"x_max":483,"o":"m 211 632 l 76 729 l 115 786 l 203 821 l 106 807 l 42 829 l 93 988 l 158 968 l 226 894 l 178 983 l 178 1050 l 344 1050 l 344 983 l 301 894 l 367 969 l 432 988 l 483 831 l 421 807 l 331 819 l 414 786 l 453 731 l 318 633 l 276 688 l 265 776 l 253 686 l 211 632 z "},"@":{"ha":1349,"x_min":42,"x_max":1307,"o":"m 681 -267 q 340 -185 483 -267 q 119 40 196 -104 q 42 372 42 183 q 124 695 42 558 q 356 908 207 832 q 706 983 506 983 q 967 939 854 983 q 1155 815 1079 894 q 1269 633 1231 736 q 1307 414 1307 531 q 1265 190 1307 272 q 1155 71 1222 107 q 1011 35 1088 35 q 892 65 939 35 q 819 163 846 96 q 740 86 793 121 q 601 51 686 51 q 379 335 379 51 l 379 369 q 438 581 379 510 q 601 653 496 653 q 693 631 661 653 q 735 589 725 608 l 749 646 l 946 646 l 946 300 q 965 213 946 238 q 1013 188 983 188 q 1076 238 1047 188 q 1106 400 1106 288 q 1067 611 1106 517 q 940 761 1028 706 q 706 817 851 817 q 460 762 564 817 q 300 607 357 707 q 243 372 243 507 q 300 124 243 229 q 461 -40 357 18 q 706 -97 565 -97 q 823 -89 779 -97 q 890 -71 867 -81 q 922 -57 914 -61 l 922 -207 q 822 -251 889 -236 q 681 -267 754 -267 m 692 243 q 735 274 725 243 q 746 356 746 306 q 697 464 746 464 q 656 439 668 464 q 644 369 644 414 l 644 351 q 658 269 644 296 q 692 243 672 243 z "},"ã":{"ha":826,"x_min":42,"x_max":793,"o":"m 250 -14 q 99 30 157 -14 q 42 183 42 74 q 109 337 42 285 q 292 389 176 389 q 392 377 354 389 q 449 354 429 365 l 458 361 q 443 426 458 404 q 369 447 428 447 q 265 437 318 447 q 164 410 211 426 q 83 376 117 394 l 83 626 q 154 643 106 633 q 271 660 203 653 q 417 668 339 668 q 624 637 547 668 q 733 547 700 606 q 765 406 765 488 l 765 221 l 793 81 l 765 -1 l 472 -1 l 472 67 l 458 74 q 383 14 436 42 q 250 -14 329 -14 m 407 168 q 442 175 428 168 q 458 183 456 182 l 458 214 q 446 250 458 235 q 408 265 433 265 q 367 253 386 265 q 347 213 347 242 q 407 168 347 168 m 528 738 q 444 755 482 738 q 375 790 406 772 q 319 807 344 807 l 279 751 l 167 751 q 180 870 167 817 q 224 956 193 924 q 306 988 254 988 q 388 967 350 988 q 458 925 426 946 q 515 904 490 904 l 556 974 l 668 974 q 638 801 668 865 q 528 738 608 738 z "},"b":{"ha":828,"x_min":47,"x_max":800,"o":"m 550 -14 q 451 -2 488 -14 q 398 22 414 10 q 382 33 382 33 l 382 -1 l 76 -1 l 76 760 l 47 899 l 76 982 l 382 982 l 382 758 l 368 601 l 382 594 q 420 629 400 613 q 471 658 440 646 q 550 669 501 669 q 737 590 674 669 q 800 340 800 511 q 765 134 800 213 q 672 21 729 56 q 550 -14 615 -14 m 433 221 q 480 247 465 221 q 494 315 494 272 q 469 398 494 368 q 396 428 443 428 l 382 414 l 382 239 q 397 230 382 239 q 433 221 413 221 z "},"\\":{"ha":633,"x_min":0,"x_max":633,"o":"m 633 -149 l 210 983 l 0 983 l 425 -149 l 633 -149 z "},"|":{"ha":431,"x_min":111,"x_max":319,"o":"m 111 -167 l 111 983 l 319 983 l 319 -167 l 111 -167 z "},"{":{"ha":515,"x_min":42,"x_max":474,"o":"m 474 -194 l 474 -56 l 418 -56 q 378 -37 393 -56 q 363 42 363 -19 l 363 318 q 344 413 363 381 q 307 458 325 446 q 289 469 289 469 l 289 472 q 307 485 289 472 q 344 535 325 499 q 363 638 363 571 l 363 888 q 378 967 363 950 q 418 985 394 985 l 474 985 l 474 1124 l 336 1124 q 195 1078 249 1124 q 142 942 142 1033 l 142 656 q 126 576 142 603 q 86 540 110 549 q 42 531 63 531 l 42 404 q 86 397 63 404 q 126 367 110 390 q 142 293 142 343 l 142 -14 q 195 -149 142 -104 q 336 -194 249 -194 l 474 -194 z "},"}":{"ha":515,"x_min":42,"x_max":474,"o":"m 42 -194 l 42 -56 l 97 -56 q 138 -37 122 -56 q 153 42 153 -19 l 153 318 q 172 413 153 381 q 208 458 190 446 q 226 469 226 469 l 226 472 q 208 485 226 472 q 172 535 190 499 q 153 638 153 571 l 153 888 q 137 967 153 950 q 97 985 121 985 l 42 985 l 42 1124 l 179 1124 q 320 1078 267 1124 q 374 942 374 1033 l 374 656 q 390 576 374 603 q 429 540 406 549 q 474 531 453 531 l 474 404 q 429 397 453 404 q 390 367 406 390 q 374 293 374 343 l 374 -14 q 320 -149 374 -104 q 179 -194 267 -194 l 42 -194 z "},"[":{"ha":417,"x_min":42,"x_max":375,"o":"m 375 -194 l 375 -56 l 263 -56 l 263 985 l 375 985 l 375 1124 l 42 1124 l 42 -194 l 375 -194 z "},"]":{"ha":417,"x_min":42,"x_max":375,"o":"m 42 -194 l 42 -56 l 154 -56 l 154 985 l 42 985 l 42 1124 l 375 1124 l 375 -194 l 42 -194 z "},"˘":{"ha":514,"x_min":28,"x_max":486,"o":"m 257 736 q 80 791 132 736 q 28 958 28 846 l 138 958 q 143 930 138 946 q 174 901 149 914 q 257 889 199 889 q 340 901 315 889 q 369 930 364 914 q 374 958 374 946 l 486 958 q 434 790 486 844 q 257 736 382 736 z "},"̮":{"ha":0,"x_min":-542,"x_max":-83,"o":"m -312 -361 q -490 -306 -437 -361 q -542 -139 -542 -251 l -432 -139 q -426 -167 -432 -151 q -396 -196 -421 -183 q -312 -208 -371 -208 q -230 -196 -254 -208 q -201 -167 -206 -183 q -196 -139 -196 -151 l -83 -139 q -135 -307 -83 -253 q -312 -361 -187 -361 z "},"̆":{"ha":0,"x_min":-542,"x_max":-83,"o":"m -312 736 q -490 791 -437 736 q -542 958 -542 846 l -432 958 q -426 930 -432 946 q -396 901 -421 914 q -312 889 -371 889 q -230 901 -254 889 q -201 930 -206 914 q -196 958 -196 946 l -83 958 q -135 790 -83 844 q -312 736 -187 736 z "},"̑":{"ha":0,"x_min":-542,"x_max":-83,"o":"m -312 975 q -490 920 -437 975 q -542 753 -542 865 l -432 753 q -426 781 -432 765 q -396 810 -421 797 q -312 822 -371 822 q -230 810 -254 822 q -201 781 -206 797 q -196 753 -196 765 l -83 753 q -135 921 -83 867 q -312 975 -187 975 z "},"¦":{"ha":431,"x_min":111,"x_max":319,"o":"m 111 525 l 111 983 l 319 983 l 319 525 l 111 525 m 111 -111 l 111 347 l 319 347 l 319 -111 l 111 -111 z "},"•":{"ha":604,"x_min":56,"x_max":549,"o":"m 302 209 l 56 456 l 302 702 l 548 456 l 302 209 z "},"∙":{"ha":681,"x_min":69,"x_max":611,"o":"m 340 171 l 69 442 l 340 713 l 611 442 l 340 171 z "},"c":{"ha":764,"x_min":28,"x_max":708,"o":"m 396 -14 q 209 18 293 -14 q 76 125 125 50 q 28 328 28 200 q 61 492 28 426 q 149 597 94 557 q 267 653 203 636 q 396 669 332 669 q 525 663 472 669 q 600 654 578 657 l 708 532 l 583 353 l 424 433 q 369 411 393 433 q 346 328 346 389 q 374 243 346 264 q 451 222 403 222 q 600 245 538 222 q 693 282 663 268 l 693 40 q 560 0 640 14 q 396 -14 481 -14 z "},"ć":{"ha":764,"x_min":28,"x_max":708,"o":"m 396 -14 q 209 18 293 -14 q 76 125 125 50 q 28 328 28 200 q 61 492 28 426 q 149 597 94 557 q 267 653 203 636 q 396 669 332 669 q 525 663 472 669 q 600 654 578 657 l 708 532 l 583 353 l 424 433 q 369 411 393 433 q 346 328 346 389 q 374 243 346 264 q 451 222 403 222 q 600 245 538 222 q 693 282 663 268 l 693 40 q 560 0 640 14 q 396 -14 481 -14 m 264 708 l 356 975 l 554 975 l 554 890 l 363 708 l 264 708 z "},"ˇ":{"ha":474,"x_min":14,"x_max":456,"o":"z "},"̌":{"ha":0,"x_min":-653,"x_max":-211,"o":"z "},"č":{"ha":764,"x_min":28,"x_max":708,"o":"m 396 -14 q 209 18 293 -14 q 76 125 125 50 q 28 328 28 200 q 61 492 28 426 q 149 597 94 557 q 267 653 203 636 q 396 669 332 669 q 525 663 472 669 q 600 654 578 657 l 708 532 l 583 353 l 424 433 q 369 411 393 433 q 346 328 346 389 q 374 243 346 264 q 451 222 403 222 q 600 245 538 222 q 693 282 663 268 l 693 40 q 560 0 640 14 q 396 -14 481 -14 z "},"ç":{"ha":764,"x_min":28,"x_max":708,"o":"m 396 -14 q 209 18 293 -14 q 76 125 125 50 q 28 328 28 200 q 61 492 28 426 q 149 597 94 557 q 267 653 203 636 q 396 669 332 669 q 525 663 472 669 q 600 654 578 657 l 708 532 l 583 353 l 424 433 q 369 411 393 433 q 346 328 346 389 q 374 243 346 264 q 451 222 403 222 q 600 245 538 222 q 693 282 663 268 l 693 40 q 560 0 640 14 q 396 -14 481 -14 m 371 -306 q 265 -288 303 -306 q 226 -271 226 -271 l 226 -132 q 242 -140 226 -132 q 285 -158 258 -149 q 346 -167 313 -167 q 382 -158 364 -167 q 400 -136 400 -150 l 310 -97 l 351 0 l 475 0 l 461 -58 l 560 -132 q 532 -225 560 -186 q 460 -285 504 -264 q 371 -306 417 -306 z "},"ĉ":{"ha":764,"x_min":28,"x_max":708,"o":"m 396 -14 q 209 18 293 -14 q 76 125 125 50 q 28 328 28 200 q 61 492 28 426 q 149 597 94 557 q 267 653 203 636 q 396 669 332 669 q 525 663 472 669 q 600 654 578 657 l 708 532 l 583 353 l 424 433 q 369 411 393 433 q 346 328 346 389 q 374 243 346 264 q 451 222 403 222 q 600 245 538 222 q 693 282 663 268 l 693 40 q 560 0 640 14 q 396 -14 481 -14 m 157 750 l 308 972 l 449 972 l 599 750 l 458 750 l 379 831 l 296 750 l 157 750 z "},"ċ":{"ha":764,"x_min":28,"x_max":708,"o":"m 396 -14 q 209 18 293 -14 q 76 125 125 50 q 28 328 28 200 q 61 492 28 426 q 149 597 94 557 q 267 653 203 636 q 396 669 332 669 q 525 663 472 669 q 600 654 578 657 l 708 532 l 583 353 l 424 433 q 369 411 393 433 q 346 328 346 389 q 374 243 346 264 q 451 222 403 222 q 600 245 538 222 q 693 282 663 268 l 693 40 q 560 0 640 14 q 396 -14 481 -14 z "},"₵":{"ha":986,"x_min":56,"x_max":931,"o":"m 482 -83 l 486 -14 q 324 10 401 -11 q 187 81 247 31 q 91 221 126 132 q 56 447 56 310 q 92 670 56 582 q 189 809 128 758 q 327 883 250 860 q 486 908 404 906 l 482 983 l 663 983 l 658 897 q 827 843 756 879 q 931 775 899 807 l 847 546 q 812 569 840 551 q 740 608 783 588 q 644 642 696 629 l 635 451 l 644 257 q 799 292 732 268 q 903 333 867 317 l 903 69 q 808 26 867 47 q 658 -6 749 6 l 663 -83 l 482 -83 m 360 447 q 399 310 360 353 q 500 256 438 267 l 510 451 l 500 650 q 396 590 432 638 q 360 447 360 542 z "},"¸":{"ha":375,"x_min":28,"x_max":361,"o":"m 172 -306 q 66 -288 104 -306 q 28 -271 28 -271 l 28 -132 q 44 -140 28 -132 q 87 -158 60 -149 q 147 -167 114 -167 q 183 -158 165 -167 q 201 -136 201 -150 l 111 -97 l 153 0 l 276 0 l 263 -58 l 361 -132 q 333 -225 361 -186 q 262 -285 306 -264 q 172 -306 218 -306 z "},"̧":{"ha":0,"x_min":-472,"x_max":-139,"o":"m -328 -306 q -434 -288 -396 -306 q -472 -271 -472 -271 l -472 -132 q -456 -140 -472 -132 q -413 -158 -440 -149 q -353 -167 -386 -167 q -317 -158 -335 -167 q -299 -136 -299 -150 l -389 -97 l -347 0 l -224 0 l -237 -58 l -139 -132 q -167 -225 -139 -186 q -238 -285 -194 -264 q -328 -306 -282 -306 z "},"¢":{"ha":736,"x_min":28,"x_max":681,"o":"m 353 -14 q 188 18 261 -14 q 71 125 114 50 q 28 328 28 200 q 71 531 28 457 q 188 638 114 606 q 353 669 261 669 q 396 669 375 669 l 396 736 l 521 736 l 521 657 q 617 632 579 647 q 681 601 656 617 l 625 381 q 583 398 611 388 q 521 418 556 408 l 521 228 q 608 242 569 233 q 665 254 647 250 l 665 40 q 521 -3 635 14 l 521 -83 l 396 -83 l 396 -12 q 353 -14 375 -14 m 318 328 q 334 257 318 283 q 396 224 350 231 l 396 433 q 335 406 351 431 q 318 328 318 382 z "},"○":{"ha":1133,"x_min":42,"x_max":1092,"o":"m 567 -14 q 283 55 401 -14 q 103 241 165 124 q 42 504 42 358 q 77 708 42 613 q 180 874 113 803 q 344 986 247 946 q 567 1026 442 1026 q 789 986 692 1026 q 953 874 886 946 q 1056 708 1021 803 q 1092 504 1092 613 q 1030 241 1092 358 q 851 55 968 124 q 567 -14 733 -14 m 567 128 q 768 176 686 128 q 892 310 850 225 q 935 504 935 394 q 892 699 935 613 q 768 835 850 785 q 567 885 686 885 q 367 835 450 885 q 242 699 285 785 q 199 504 199 613 q 242 310 199 394 q 367 176 285 225 q 567 128 450 128 z "},"ˆ":{"ha":474,"x_min":14,"x_max":456,"o":"m 14 750 l 165 972 l 306 972 l 456 750 l 315 750 l 236 831 l 153 750 l 14 750 z "},"̂":{"ha":0,"x_min":-583,"x_max":-142,"o":"m -583 750 l -432 972 l -292 972 l -142 750 l -282 750 l -361 831 l -444 750 l -583 750 z "},":":{"ha":500,"x_min":69,"x_max":431,"o":"m 250 347 l 69 528 l 250 708 l 431 528 l 250 347 m 250 -69 l 69 111 l 250 292 l 431 111 l 250 -69 z "},"₡":{"ha":1028,"x_min":69,"x_max":972,"o":"m 253 -83 l 294 25 q 178 103 229 51 q 99 238 128 154 q 69 447 69 322 q 109 679 69 589 q 215 819 149 769 q 363 890 281 869 q 533 910 446 910 l 544 983 l 725 983 l 697 893 q 758 879 728 888 l 781 983 l 961 983 l 903 824 q 972 775 950 799 l 903 546 q 874 563 897 550 q 818 589 851 575 l 767 450 l 733 265 q 862 299 810 279 q 944 333 914 319 l 944 69 q 843 26 908 47 q 683 -6 778 6 l 669 -83 l 489 -83 l 513 -14 q 450 -11 481 -14 l 433 -83 l 253 -83 m 558 450 l 513 256 q 568 251 538 251 q 601 251 585 251 l 669 453 l 707 631 q 664 642 686 638 q 621 650 642 647 l 558 450 m 374 447 q 383 371 374 403 q 408 317 392 339 l 461 453 l 492 644 q 404 581 435 628 q 374 447 374 533 z "},",":{"ha":486,"x_min":69,"x_max":431,"o":"m 178 -318 l 110 -294 l 194 0 l 69 111 l 240 278 l 431 97 l 178 -318 z "},"̦":{"ha":0,"x_min":-500,"x_max":-139,"o":"m -392 -610 l -460 -586 l -375 -292 l -500 -181 l -329 -14 l -139 -194 l -392 -610 z "},"̒":{"ha":0,"x_min":-485,"x_max":-124,"o":"m -232 1304 l -164 1281 l -249 986 l -124 875 l -294 708 l -485 889 l -232 1304 z "},"⁒":{"ha":944,"x_min":63,"x_max":896,"o":"m 243 778 l 63 958 l 243 1139 l 424 958 l 243 778 m 715 -139 l 535 42 l 715 222 l 896 42 l 715 -139 m 161 -65 l 585 1067 l 794 1067 l 369 -65 l 161 -65 z "},"©":{"ha":1189,"x_min":69,"x_max":1119,"o":"m 594 -14 q 311 55 429 -14 q 131 241 193 124 q 69 504 69 358 q 105 708 69 613 q 208 874 140 803 q 372 986 275 946 q 594 1026 469 1026 q 817 986 719 1026 q 981 874 914 946 q 1084 708 1049 803 q 1119 504 1119 613 q 1058 241 1119 358 q 878 55 996 124 q 594 -14 761 -14 m 594 128 q 796 176 714 128 q 920 310 878 225 q 963 504 963 394 q 920 699 963 613 q 796 835 878 785 q 594 885 714 885 q 395 835 478 885 q 269 699 313 785 q 226 504 226 613 q 269 310 226 394 q 395 176 313 225 q 594 128 478 128 m 593 283 q 468 305 524 283 q 380 376 413 326 q 347 511 347 426 q 385 649 347 599 q 479 719 422 699 q 593 739 536 739 q 678 735 643 739 q 729 729 714 732 l 801 647 l 718 528 l 611 582 q 576 567 592 582 q 560 511 560 551 q 578 456 560 469 q 629 442 597 442 q 728 456 686 442 q 790 481 771 471 l 790 319 q 702 292 756 301 q 593 283 649 283 z "},"¤":{"ha":832,"x_min":69,"x_max":763,"o":"m 186 139 l 69 256 l 147 321 q 99 481 99 383 q 149 647 99 581 l 69 713 l 186 829 l 269 731 q 415 753 332 753 q 563 731 499 753 l 646 829 l 763 713 l 682 647 q 733 481 733 581 q 685 321 733 385 l 763 256 l 646 139 l 561 239 q 415 218 499 218 q 269 239 332 218 l 186 139 m 415 389 q 485 409 464 389 q 507 483 507 429 q 485 562 507 540 q 415 583 463 583 q 346 561 368 583 q 324 482 324 539 q 346 410 324 431 q 415 389 368 389 z "},"d":{"ha":835,"x_min":28,"x_max":779,"o":"m 292 -14 q 166 19 226 -14 q 67 125 106 53 q 28 314 28 197 q 66 521 28 443 q 165 634 104 599 q 292 669 226 669 q 390 658 353 669 q 444 636 428 646 l 431 899 l 444 982 l 751 982 l 751 222 l 779 83 l 751 -1 l 458 -1 l 458 67 l 444 74 q 437 60 444 74 q 412 30 429 47 q 365 -1 394 13 q 292 -14 336 -14 m 431 215 l 444 229 l 444 363 q 431 413 444 394 q 394 432 417 432 q 350 412 367 432 q 333 342 333 392 q 363 247 333 279 q 431 215 392 215 z "},"†":{"ha":772,"x_min":69,"x_max":703,"o":"m 254 -111 l 268 290 l 268 521 l 69 513 l 69 707 l 265 699 l 254 983 l 518 983 l 507 699 l 703 707 l 703 513 l 504 521 l 504 286 l 518 -111 l 254 -111 z "},"‡":{"ha":772,"x_min":69,"x_max":703,"o":"m 69 165 l 69 360 l 268 351 l 268 521 l 69 513 l 69 707 l 265 699 l 254 983 l 518 983 l 507 699 l 703 707 l 703 513 l 504 521 l 504 351 l 703 360 l 703 165 l 507 174 l 518 -111 l 254 -111 l 265 174 l 69 165 z "},"̏":{"ha":0,"x_min":-797,"x_max":-229,"o":"z "},"ď":{"ha":835,"x_min":-50,"x_max":779,"o":"m 292 -14 q 166 19 226 -14 q 67 125 106 53 q 28 314 28 197 q 66 521 28 443 q 165 634 104 599 q 292 669 226 669 q 390 658 353 669 q 444 636 428 646 l 431 899 l 444 982 l 751 982 l 751 222 l 779 83 l 751 -1 l 458 -1 l 458 67 l 444 74 q 437 60 444 74 q 412 30 429 47 q 365 -1 394 13 q 292 -14 336 -14 m 431 215 l 444 229 l 444 363 q 431 413 444 394 q 394 432 417 432 q 350 412 367 432 q 333 342 333 392 q 363 247 333 279 q 431 215 392 215 z "},"đ":{"ha":835,"x_min":28,"x_max":850,"o":"m 292 -14 q 166 19 226 -14 q 67 125 106 53 q 28 314 28 197 q 66 521 28 443 q 165 634 104 599 q 292 669 226 669 q 390 658 353 669 q 444 636 428 646 l 431 899 l 444 982 l 751 982 l 751 222 l 779 83 l 751 -1 l 458 -1 l 458 67 l 444 74 q 437 60 444 74 q 412 30 429 47 q 365 -1 394 13 q 292 -14 336 -14 m 431 215 l 444 229 l 444 363 q 431 413 444 394 q 394 432 417 432 q 350 412 367 432 q 333 342 333 392 q 363 247 333 279 q 431 215 392 215 m 222 728 l 224 839 l 850 839 l 850 728 l 222 728 z "},"°":{"ha":472,"x_min":42,"x_max":431,"o":"m 236 625 q 139 651 183 625 q 68 722 94 678 q 42 819 42 767 q 68 917 42 874 q 139 988 94 961 q 236 1014 183 1014 q 334 988 290 1014 q 404 917 378 961 q 431 819 431 874 q 404 722 431 767 q 334 651 378 678 q 236 625 290 625 m 236 750 q 285 771 264 750 q 306 819 306 792 q 285 868 306 847 q 236 889 264 889 q 188 868 208 889 q 167 819 167 847 q 188 771 167 792 q 236 750 208 750 z "},"¨":{"ha":847,"x_min":108,"x_max":739,"o":"z "},"̤":{"ha":0,"x_min":-804,"x_max":-174,"o":"z "},"̈":{"ha":0,"x_min":-693,"x_max":-62,"o":"m -543 691 l -693 840 l -543 990 l -394 840 l -543 691 m -211 691 l -361 840 l -211 990 l -62 840 l -211 691 z "},"÷":{"ha":722,"x_min":69,"x_max":653,"o":"m 372 11 l 223 160 l 372 309 l 521 160 l 372 11 m 372 520 l 223 670 l 372 819 l 521 670 l 372 520 m 69 333 l 69 500 l 653 500 l 653 333 l 69 333 z "},"∕":{"ha":442,"x_min":-194,"x_max":636,"o":"m -194 -111 l 478 983 l 636 983 l -36 -111 l -194 -111 z "},"$":{"ha":1042,"x_min":69,"x_max":972,"o":"m 403 -83 l 407 -6 q 278 20 340 3 q 167 59 215 38 q 97 103 119 81 l 165 351 q 421 265 282 290 l 426 361 q 231 419 311 385 q 110 508 151 454 q 69 647 69 563 q 113 786 69 732 q 231 869 156 840 q 407 906 307 897 l 403 986 l 639 986 l 635 904 q 804 873 747 894 q 886 838 861 851 l 831 585 q 750 608 803 594 q 621 632 697 622 l 615 539 q 752 511 688 528 q 866 465 817 494 q 944 388 915 436 q 972 268 972 340 q 882 74 972 140 q 635 -8 792 8 l 639 -83 l 403 -83 m 347 604 q 368 578 347 586 q 425 564 389 569 l 421 646 q 408 646 415 646 q 365 636 383 646 q 347 604 347 626 m 686 294 q 669 320 686 313 q 617 332 651 328 l 622 249 q 686 294 686 251 z "},"₫":{"ha":956,"x_min":28,"x_max":888,"o":"m 292 154 q 166 183 226 154 q 67 275 106 213 q 28 438 28 338 q 65 612 28 546 q 162 707 101 678 q 292 736 222 736 q 383 720 350 736 q 431 689 417 704 q 444 674 444 674 l 438 783 l 306 778 l 306 903 l 431 897 l 431 899 l 444 982 l 751 982 l 751 894 l 886 903 l 888 778 l 751 786 l 751 376 l 779 251 l 751 167 l 458 167 l 458 235 l 444 242 q 437 228 444 242 q 412 198 429 215 q 365 167 394 181 q 292 154 336 154 m 408 392 l 444 411 l 444 443 q 431 487 444 475 q 394 499 417 499 q 361 487 375 499 q 347 438 347 475 q 360 403 347 414 q 408 392 374 392 m 158 0 l 158 83 l 769 83 l 769 0 l 158 0 z "},"˙":{"ha":253,"x_min":-25,"x_max":274,"o":"z "},"̇":{"ha":0,"x_min":-469,"x_max":-171,"o":"m -320 733 l -469 882 l -320 1031 l -171 882 l -320 733 z "},"̣":{"ha":0,"x_min":-456,"x_max":-157,"o":"m -306 -344 l -455 -194 l -306 -45 l -157 -194 l -306 -344 z "},"ʺ":{"ha":653,"x_min":69,"x_max":583,"o":"z "},"ǳ":{"ha":1596,"x_min":28,"x_max":1568,"o":"m 292 -14 q 166 19 226 -14 q 67 125 106 53 q 28 314 28 197 q 66 521 28 443 q 165 634 104 599 q 292 669 226 669 q 390 658 353 669 q 444 636 428 646 l 431 899 l 444 982 l 751 982 l 751 222 l 779 83 l 751 -1 l 458 -1 l 458 67 l 444 74 q 437 60 444 74 q 412 30 429 47 q 365 -1 394 13 q 292 -14 336 -14 m 431 215 l 444 229 l 444 363 q 431 413 444 394 q 394 432 417 432 q 350 412 367 432 q 333 342 333 392 q 363 247 333 279 q 431 215 392 215 m 863 0 l 863 125 l 1151 435 l 864 435 l 864 657 l 1543 657 l 1543 526 l 1351 301 l 1268 222 l 1310 222 l 1568 250 l 1568 0 l 863 0 z "},"ǆ":{"ha":1596,"x_min":28,"x_max":1568,"o":"m 292 -14 q 166 19 226 -14 q 67 125 106 53 q 28 314 28 197 q 66 521 28 443 q 165 634 104 599 q 292 669 226 669 q 390 658 353 669 q 444 636 428 646 l 431 899 l 444 982 l 751 982 l 751 222 l 779 83 l 751 -1 l 458 -1 l 458 67 l 444 74 q 437 60 444 74 q 412 30 429 47 q 365 -1 394 13 q 292 -14 336 -14 m 431 215 l 444 229 l 444 363 q 431 413 444 394 q 394 432 417 432 q 350 412 367 432 q 333 342 333 392 q 363 247 333 279 q 431 215 392 215 z "},"e":{"ha":782,"x_min":28,"x_max":763,"o":"m 410 -14 q 216 17 303 -14 q 78 123 129 49 q 28 328 28 197 q 59 485 28 419 q 143 591 90 550 q 261 651 196 632 q 396 669 326 669 q 542 658 483 669 q 638 633 601 647 q 693 608 674 619 l 763 388 l 735 301 l 332 301 q 372 235 338 263 q 493 208 407 208 q 629 226 575 208 q 707 254 683 244 l 707 40 q 631 13 679 25 q 524 -7 582 0 q 410 -14 467 -14 m 328 392 l 469 418 l 457 463 q 410 474 438 474 q 345 449 364 474 q 328 392 326 424 z "},"é":{"ha":782,"x_min":28,"x_max":763,"o":"m 410 -14 q 216 17 303 -14 q 78 123 129 49 q 28 328 28 197 q 59 485 28 419 q 143 591 90 550 q 261 651 196 632 q 396 669 326 669 q 542 658 483 669 q 638 633 601 647 q 693 608 674 619 l 763 388 l 735 301 l 332 301 q 372 235 338 263 q 493 208 407 208 q 629 226 575 208 q 707 254 683 244 l 707 40 q 631 13 679 25 q 524 -7 582 0 q 410 -14 467 -14 m 328 392 l 469 418 l 457 463 q 410 474 438 474 q 345 449 364 474 q 328 392 326 424 m 274 708 l 365 975 l 564 975 l 564 890 l 372 708 l 274 708 z "},"ĕ":{"ha":782,"x_min":28,"x_max":763,"o":"m 410 -14 q 216 17 303 -14 q 78 123 129 49 q 28 328 28 197 q 59 485 28 419 q 143 591 90 550 q 261 651 196 632 q 396 669 326 669 q 542 658 483 669 q 638 633 601 647 q 693 608 674 619 l 763 388 l 735 301 l 332 301 q 372 235 338 263 q 493 208 407 208 q 629 226 575 208 q 707 254 683 244 l 707 40 q 631 13 679 25 q 524 -7 582 0 q 410 -14 467 -14 m 328 392 l 469 418 l 457 463 q 410 474 438 474 q 345 449 364 474 q 328 392 326 424 m 396 736 q 219 791 271 736 q 167 958 167 846 l 276 958 q 282 930 276 946 q 313 901 288 914 q 396 889 338 889 q 478 901 454 889 q 508 930 503 914 q 513 958 513 946 l 625 958 q 573 790 625 844 q 396 736 521 736 z "},"ě":{"ha":782,"x_min":28,"x_max":763,"o":"m 410 -14 q 216 17 303 -14 q 78 123 129 49 q 28 328 28 197 q 59 485 28 419 q 143 591 90 550 q 261 651 196 632 q 396 669 326 669 q 542 658 483 669 q 638 633 601 647 q 693 608 674 619 l 763 388 l 735 301 l 332 301 q 372 235 338 263 q 493 208 407 208 q 629 226 575 208 q 707 254 683 244 l 707 40 q 631 13 679 25 q 524 -7 582 0 q 410 -14 467 -14 m 328 392 l 469 418 l 457 463 q 410 474 438 474 q 345 449 364 474 q 328 392 326 424 z "},"ê":{"ha":782,"x_min":28,"x_max":763,"o":"m 410 -14 q 216 17 303 -14 q 78 123 129 49 q 28 328 28 197 q 59 485 28 419 q 143 591 90 550 q 261 651 196 632 q 396 669 326 669 q 542 658 483 669 q 638 633 601 647 q 693 608 674 619 l 763 388 l 735 301 l 332 301 q 372 235 338 263 q 493 208 407 208 q 629 226 575 208 q 707 254 683 244 l 707 40 q 631 13 679 25 q 524 -7 582 0 q 410 -14 467 -14 m 328 392 l 469 418 l 457 463 q 410 474 438 474 q 345 449 364 474 q 328 392 326 424 m 167 750 l 318 972 l 458 972 l 608 750 l 468 750 l 389 831 l 306 750 l 167 750 z "},"ế":{"ha":782,"x_min":28,"x_max":763,"o":"m 410 -14 q 216 17 303 -14 q 78 123 129 49 q 28 328 28 197 q 59 485 28 419 q 143 591 90 550 q 261 651 196 632 q 396 669 326 669 q 542 658 483 669 q 638 633 601 647 q 693 608 674 619 l 763 388 l 735 301 l 332 301 q 372 235 338 263 q 493 208 407 208 q 629 226 575 208 q 707 254 683 244 l 707 40 q 631 13 679 25 q 524 -7 582 0 q 410 -14 467 -14 m 328 392 l 469 418 l 457 463 q 410 474 438 474 q 345 449 364 474 q 328 392 326 424 m 167 750 l 318 972 l 458 972 l 608 750 l 468 750 l 389 831 l 306 750 l 167 750 m 267 1039 l 358 1306 l 557 1306 l 557 1221 l 365 1039 l 267 1039 z "},"ệ":{"ha":782,"x_min":28,"x_max":763,"o":"m 410 -14 q 216 17 303 -14 q 78 123 129 49 q 28 328 28 197 q 59 485 28 419 q 143 591 90 550 q 261 651 196 632 q 396 669 326 669 q 542 658 483 669 q 638 633 601 647 q 693 608 674 619 l 763 388 l 735 301 l 332 301 q 372 235 338 263 q 493 208 407 208 q 629 226 575 208 q 707 254 683 244 l 707 40 q 631 13 679 25 q 524 -7 582 0 q 410 -14 467 -14 m 328 392 l 469 418 l 457 463 q 410 474 438 474 q 345 449 364 474 q 328 392 326 424 m 391 -344 l 242 -194 l 391 -45 l 541 -194 l 391 -344 m 167 750 l 318 972 l 458 972 l 608 750 l 468 750 l 389 831 l 306 750 l 167 750 z "},"ề":{"ha":782,"x_min":28,"x_max":763,"o":"m 410 -14 q 216 17 303 -14 q 78 123 129 49 q 28 328 28 197 q 59 485 28 419 q 143 591 90 550 q 261 651 196 632 q 396 669 326 669 q 542 658 483 669 q 638 633 601 647 q 693 608 674 619 l 763 388 l 735 301 l 332 301 q 372 235 338 263 q 493 208 407 208 q 629 226 575 208 q 707 254 683 244 l 707 40 q 631 13 679 25 q 524 -7 582 0 q 410 -14 467 -14 m 328 392 l 469 418 l 457 463 q 410 474 438 474 q 345 449 364 474 q 328 392 326 424 m 167 750 l 318 972 l 458 972 l 608 750 l 468 750 l 389 831 l 306 750 l 167 750 m 389 1039 l 197 1221 l 197 1306 l 396 1306 l 488 1039 l 389 1039 z "},"ể":{"ha":782,"x_min":28,"x_max":763,"o":"m 410 -14 q 216 17 303 -14 q 78 123 129 49 q 28 328 28 197 q 59 485 28 419 q 143 591 90 550 q 261 651 196 632 q 396 669 326 669 q 542 658 483 669 q 638 633 601 647 q 693 608 674 619 l 763 388 l 735 301 l 332 301 q 372 235 338 263 q 493 208 407 208 q 629 226 575 208 q 707 254 683 244 l 707 40 q 631 13 679 25 q 524 -7 582 0 q 410 -14 467 -14 m 328 392 l 469 418 l 457 463 q 410 474 438 474 q 345 449 364 474 q 328 392 326 424 m 167 750 l 318 972 l 458 972 l 608 750 l 468 750 l 389 831 l 306 750 l 167 750 m 319 1039 l 319 1053 q 335 1110 319 1086 q 371 1152 350 1135 q 407 1183 392 1169 q 422 1208 422 1196 q 419 1217 422 1214 q 404 1219 415 1219 q 347 1201 378 1219 q 299 1164 315 1183 l 236 1275 q 304 1319 256 1294 q 436 1344 353 1344 q 535 1317 500 1344 q 569 1240 569 1290 q 553 1173 569 1200 q 513 1126 536 1146 q 474 1086 490 1106 q 457 1039 457 1067 l 319 1039 z "},"ễ":{"ha":782,"x_min":28,"x_max":763,"o":"m 410 -14 q 216 17 303 -14 q 78 123 129 49 q 28 328 28 197 q 59 485 28 419 q 143 591 90 550 q 261 651 196 632 q 396 669 326 669 q 542 658 483 669 q 638 633 601 647 q 693 608 674 619 l 763 388 l 735 301 l 332 301 q 372 235 338 263 q 493 208 407 208 q 629 226 575 208 q 707 254 683 244 l 707 40 q 631 13 679 25 q 524 -7 582 0 q 410 -14 467 -14 m 328 392 l 469 418 l 457 463 q 410 474 438 474 q 345 449 364 474 q 328 392 326 424 m 167 750 l 318 972 l 458 972 l 608 750 l 468 750 l 389 831 l 306 750 l 167 750 m 500 1053 q 416 1070 454 1053 q 347 1105 378 1088 q 292 1122 317 1122 l 251 1067 l 139 1067 q 152 1185 139 1132 q 196 1271 165 1239 q 278 1303 226 1303 q 360 1282 322 1303 q 431 1240 399 1261 q 488 1219 463 1219 l 528 1289 l 640 1289 q 610 1117 640 1181 q 500 1053 581 1053 z "},"ȅ":{"ha":782,"x_min":28,"x_max":763,"o":"m 410 -14 q 216 17 303 -14 q 78 123 129 49 q 28 328 28 197 q 59 485 28 419 q 143 591 90 550 q 261 651 196 632 q 396 669 326 669 q 542 658 483 669 q 638 633 601 647 q 693 608 674 619 l 763 388 l 735 301 l 332 301 q 372 235 338 263 q 493 208 407 208 q 629 226 575 208 q 707 254 683 244 l 707 40 q 631 13 679 25 q 524 -7 582 0 q 410 -14 467 -14 m 328 392 l 469 418 l 457 463 q 410 474 438 474 q 345 449 364 474 q 328 392 326 424 z "},"ë":{"ha":782,"x_min":28,"x_max":763,"o":"m 410 -14 q 216 17 303 -14 q 78 123 129 49 q 28 328 28 197 q 59 485 28 419 q 143 591 90 550 q 261 651 196 632 q 396 669 326 669 q 542 658 483 669 q 638 633 601 647 q 693 608 674 619 l 763 388 l 735 301 l 332 301 q 372 235 338 263 q 493 208 407 208 q 629 226 575 208 q 707 254 683 244 l 707 40 q 631 13 679 25 q 524 -7 582 0 q 410 -14 467 -14 m 328 392 l 469 418 l 457 463 q 410 474 438 474 q 345 449 364 474 q 328 392 326 424 m 234 719 l 85 868 l 234 1017 l 384 868 l 234 719 m 566 719 l 417 868 l 566 1017 l 716 868 l 566 719 z "},"ė":{"ha":782,"x_min":28,"x_max":763,"o":"m 410 -14 q 216 17 303 -14 q 78 123 129 49 q 28 328 28 197 q 59 485 28 419 q 143 591 90 550 q 261 651 196 632 q 396 669 326 669 q 542 658 483 669 q 638 633 601 647 q 693 608 674 619 l 763 388 l 735 301 l 332 301 q 372 235 338 263 q 493 208 407 208 q 629 226 575 208 q 707 254 683 244 l 707 40 q 631 13 679 25 q 524 -7 582 0 q 410 -14 467 -14 m 328 392 l 469 418 l 457 463 q 410 474 438 474 q 345 449 364 474 q 328 392 326 424 m 394 733 l 245 882 l 394 1031 l 543 882 l 394 733 z "},"ẹ":{"ha":782,"x_min":28,"x_max":763,"o":"m 410 -14 q 216 17 303 -14 q 78 123 129 49 q 28 328 28 197 q 59 485 28 419 q 143 591 90 550 q 261 651 196 632 q 396 669 326 669 q 542 658 483 669 q 638 633 601 647 q 693 608 674 619 l 763 388 l 735 301 l 332 301 q 372 235 338 263 q 493 208 407 208 q 629 226 575 208 q 707 254 683 244 l 707 40 q 631 13 679 25 q 524 -7 582 0 q 410 -14 467 -14 m 328 392 l 469 418 l 457 463 q 410 474 438 474 q 345 449 364 474 q 328 392 326 424 m 391 -344 l 242 -194 l 391 -45 l 541 -194 l 391 -344 z "},"è":{"ha":782,"x_min":28,"x_max":763,"o":"m 410 -14 q 216 17 303 -14 q 78 123 129 49 q 28 328 28 197 q 59 485 28 419 q 143 591 90 550 q 261 651 196 632 q 396 669 326 669 q 542 658 483 669 q 638 633 601 647 q 693 608 674 619 l 763 388 l 735 301 l 332 301 q 372 235 338 263 q 493 208 407 208 q 629 226 575 208 q 707 254 683 244 l 707 40 q 631 13 679 25 q 524 -7 582 0 q 410 -14 467 -14 m 328 392 l 469 418 l 457 463 q 410 474 438 474 q 345 449 364 474 q 328 392 326 424 m 396 708 l 204 890 l 204 975 l 403 975 l 494 708 l 396 708 z "},"ẻ":{"ha":782,"x_min":28,"x_max":763,"o":"m 410 -14 q 216 17 303 -14 q 78 123 129 49 q 28 328 28 197 q 59 485 28 419 q 143 591 90 550 q 261 651 196 632 q 396 669 326 669 q 542 658 483 669 q 638 633 601 647 q 693 608 674 619 l 763 388 l 735 301 l 332 301 q 372 235 338 263 q 493 208 407 208 q 629 226 575 208 q 707 254 683 244 l 707 40 q 631 13 679 25 q 524 -7 582 0 q 410 -14 467 -14 m 328 392 l 469 418 l 457 463 q 410 474 438 474 q 345 449 364 474 q 328 392 326 424 m 326 708 l 326 722 q 342 780 326 756 q 378 822 357 804 q 414 852 399 839 q 429 878 429 865 q 426 886 429 883 q 411 889 422 889 q 353 871 385 889 q 306 833 322 853 l 243 944 q 311 989 263 964 q 443 1014 360 1014 q 542 987 507 1014 q 576 910 576 960 q 560 842 576 869 q 520 795 543 815 q 481 756 497 775 q 464 708 464 736 l 326 708 z "},"ȇ":{"ha":782,"x_min":28,"x_max":763,"o":"m 410 -14 q 216 17 303 -14 q 78 123 129 49 q 28 328 28 197 q 59 485 28 419 q 143 591 90 550 q 261 651 196 632 q 396 669 326 669 q 542 658 483 669 q 638 633 601 647 q 693 608 674 619 l 763 388 l 735 301 l 332 301 q 372 235 338 263 q 493 208 407 208 q 629 226 575 208 q 707 254 683 244 l 707 40 q 631 13 679 25 q 524 -7 582 0 q 410 -14 467 -14 m 328 392 l 469 418 l 457 463 q 410 474 438 474 q 345 449 364 474 q 328 392 326 424 m 396 975 q 219 920 271 975 q 167 753 167 865 l 276 753 q 282 781 276 765 q 313 810 288 797 q 396 822 338 822 q 478 810 454 822 q 508 781 503 797 q 513 753 513 765 l 625 753 q 573 921 625 867 q 396 975 521 975 z "},"…":{"ha":1278,"x_min":69,"x_max":1208,"o":"m 250 -69 l 69 111 l 250 292 l 431 111 l 250 -69 m 639 -69 l 458 111 l 639 292 l 819 111 l 639 -69 m 1028 -69 l 847 111 l 1028 292 l 1208 111 l 1028 -69 z "},"ē":{"ha":782,"x_min":28,"x_max":763,"o":"m 410 -14 q 216 17 303 -14 q 78 123 129 49 q 28 328 28 197 q 59 485 28 419 q 143 591 90 550 q 261 651 196 632 q 396 669 326 669 q 542 658 483 669 q 638 633 601 647 q 693 608 674 619 l 763 388 l 735 301 l 332 301 q 372 235 338 263 q 493 208 407 208 q 629 226 575 208 q 707 254 683 244 l 707 40 q 631 13 679 25 q 524 -7 582 0 q 410 -14 467 -14 m 328 392 l 469 418 l 457 463 q 410 474 438 474 q 345 449 364 474 q 328 392 326 424 m 146 764 l 146 903 l 646 903 l 646 764 l 146 764 z "},"—":{"ha":1194,"x_min":42,"x_max":1153,"o":"m 42 222 l 42 417 l 1153 417 l 1153 222 l 42 222 z "},"∅":{"ha":1133,"x_min":42,"x_max":1092,"o":"m 567 -14 q 283 55 401 -14 q 103 241 165 124 q 42 504 42 358 q 77 708 42 613 q 180 874 113 803 q 344 986 247 946 q 567 1026 442 1026 q 789 986 692 1026 q 953 874 886 946 q 1056 708 1021 803 q 1092 504 1092 613 q 1030 241 1092 358 q 851 55 968 124 q 567 -14 733 -14 m 567 128 q 768 176 686 128 q 892 310 850 225 q 935 504 935 394 q 892 699 935 613 q 768 835 850 785 q 567 885 686 885 q 367 835 450 885 q 242 699 285 785 q 199 504 199 613 q 242 310 199 394 q 367 176 285 225 q 567 128 450 128 m 151 -43 l 824 1051 l 981 1051 l 308 -43 l 151 -43 z "},"–":{"ha":778,"x_min":42,"x_max":736,"o":"m 42 222 l 42 417 l 736 417 l 736 222 l 42 222 z "},"ŋ":{"ha":847,"x_min":56,"x_max":792,"o":"m 83 0 l 83 418 l 56 571 l 99 656 l 361 656 l 361 596 l 374 588 q 416 620 389 601 q 482 654 443 639 q 569 669 521 669 q 738 599 683 669 q 792 400 792 528 l 792 -18 q 707 -261 792 -183 q 485 -339 622 -339 l 306 -286 l 361 -50 l 428 -68 q 472 -47 460 -68 q 485 14 485 -25 l 485 364 q 469 415 485 400 q 419 429 454 429 l 389 403 l 389 0 l 83 0 z "},"ę":{"ha":782,"x_min":28,"x_max":763,"o":"m 410 -14 q 216 17 303 -14 q 78 123 129 49 q 28 328 28 197 q 59 485 28 419 q 143 591 90 550 q 261 651 196 632 q 396 669 326 669 q 542 658 483 669 q 638 633 601 647 q 693 608 674 619 l 763 388 l 735 301 l 332 301 q 372 235 338 263 q 493 208 407 208 q 629 226 575 208 q 707 254 683 244 l 707 40 q 631 13 679 25 q 524 -7 582 0 q 410 -14 467 -14 m 328 392 l 469 418 l 457 463 q 410 474 438 474 q 345 449 364 474 q 328 392 326 424 m 513 -264 q 397 -224 440 -264 q 353 -121 353 -185 l 417 4 l 556 4 l 526 -75 q 526 -100 521 -89 q 544 -111 531 -111 q 599 -101 569 -111 q 647 -75 628 -92 l 707 -172 q 668 -208 694 -186 q 603 -247 642 -231 q 513 -264 564 -264 z "},"=":{"ha":722,"x_min":69,"x_max":653,"o":"m 69 194 l 69 361 l 653 361 l 653 194 l 69 194 m 69 472 l 69 639 l 653 639 l 653 472 l 69 472 z "},"℮":{"ha":1121,"x_min":42,"x_max":1079,"o":"m 561 0 q 360 37 454 0 q 194 138 265 74 q 83 285 124 200 q 42 467 42 369 q 83 649 42 564 q 194 797 124 733 q 360 897 265 860 q 561 933 454 933 q 763 897 668 933 q 928 797 857 860 q 1038 649 997 733 q 1079 467 1079 564 l 1079 454 l 239 454 q 232 449 232 454 l 232 194 q 244 165 232 181 q 385 65 304 101 q 563 28 467 28 q 748 69 663 28 q 896 182 833 111 l 972 182 q 794 49 901 99 q 561 0 688 0 m 239 481 l 883 481 q 890 488 890 481 l 890 743 q 876 774 890 760 q 734 871 814 836 q 563 906 654 906 q 388 869 467 906 q 246 769 308 832 q 232 738 232 756 l 232 488 q 239 481 232 481 z "},"ð":{"ha":856,"x_min":28,"x_max":786,"o":"m 379 -14 q 205 25 285 -14 q 76 136 125 64 q 28 310 28 208 q 68 488 28 417 q 178 596 108 560 q 336 632 249 632 q 444 613 406 632 q 492 579 483 593 q 426 753 492 689 l 354 679 l 278 754 l 331 807 q 188 826 269 826 l 83 826 l 83 1024 q 136 1038 108 1032 q 206 1047 164 1043 q 315 1050 247 1050 q 522 1003 428 1050 l 590 1071 l 667 996 l 614 942 q 740 764 693 872 q 786 519 786 656 q 735 236 786 356 q 593 51 685 117 q 379 -14 501 -14 m 389 169 q 456 224 435 169 q 478 350 478 278 q 460 421 478 392 q 403 450 443 450 q 342 411 363 450 q 322 282 322 372 q 338 203 322 238 q 389 169 353 169 z "},"ẽ":{"ha":782,"x_min":28,"x_max":763,"o":"m 410 -14 q 216 17 303 -14 q 78 123 129 49 q 28 328 28 197 q 59 485 28 419 q 143 591 90 550 q 261 651 196 632 q 396 669 326 669 q 542 658 483 669 q 638 633 601 647 q 693 608 674 619 l 763 388 l 735 301 l 332 301 q 372 235 338 263 q 493 208 407 208 q 629 226 575 208 q 707 254 683 244 l 707 40 q 631 13 679 25 q 524 -7 582 0 q 410 -14 467 -14 m 328 392 l 469 418 l 457 463 q 410 474 438 474 q 345 449 364 474 q 328 392 326 424 m 507 722 q 423 740 461 722 q 354 774 385 757 q 299 792 324 792 l 258 736 l 146 736 q 159 855 146 801 q 203 940 172 908 q 285 972 233 972 q 367 951 329 972 q 438 910 406 931 q 494 889 469 889 l 535 958 l 647 958 q 617 786 647 850 q 507 722 588 722 z "},"€":{"ha":985,"x_min":56,"x_max":929,"o":"m 56 344 l 56 469 l 167 465 q 167 492 167 478 q 167 529 167 511 l 56 525 l 56 650 l 179 644 q 268 853 204 776 q 427 964 332 931 q 638 997 522 997 q 790 986 733 997 q 879 960 847 975 q 929 932 911 944 l 929 675 q 845 709 911 690 q 693 728 779 728 q 558 705 604 728 q 492 640 513 682 l 753 650 l 754 525 l 472 536 q 471 492 471 517 q 471 458 471 474 l 753 469 l 754 344 l 490 354 q 557 287 510 308 q 694 265 604 265 q 817 269 775 265 q 882 280 858 274 q 929 292 906 286 l 929 28 q 874 10 906 19 q 785 -7 843 0 q 624 -14 728 -14 q 414 20 507 -14 q 260 134 321 54 q 176 350 199 214 l 56 344 z "},"!":{"ha":583,"x_min":111,"x_max":472,"o":"m 261 363 l 139 888 l 306 999 l 471 886 l 344 363 l 261 363 m 292 -69 l 111 111 l 292 292 l 472 111 l 292 -69 z "},"¡":{"ha":500,"x_min":69,"x_max":431,"o":"m 250 514 l 69 694 l 250 875 l 431 694 l 250 514 m 249 -196 l 83 -83 l 210 440 l 293 440 l 415 -85 l 249 -196 z "},"f":{"ha":675,"x_min":22,"x_max":731,"o":"m 96 0 l 96 450 l 22 589 l 96 656 q 85 719 89 679 q 82 783 82 758 q 119 922 82 863 q 221 1016 156 982 q 368 1050 286 1050 q 430 1049 394 1050 q 499 1044 465 1047 q 554 1035 533 1040 l 731 950 l 624 729 l 464 813 q 372 731 372 813 q 382 685 372 704 q 401 656 392 667 l 624 656 l 624 447 l 401 447 l 401 225 l 415 85 l 401 0 l 96 0 z "},"ﬁ":{"ha":997,"x_min":28,"x_max":957,"o":"m 101 0 l 101 450 l 28 589 l 101 656 q 91 719 94 679 q 88 783 88 758 q 124 922 88 863 q 226 1016 161 982 q 374 1050 292 1050 q 435 1049 400 1050 q 505 1044 471 1047 q 560 1035 539 1040 l 646 960 l 751 1050 l 957 874 l 751 696 l 469 813 q 378 731 378 813 q 388 685 378 704 q 407 656 397 667 l 903 656 l 903 0 l 597 0 l 597 447 l 407 447 l 407 225 l 421 85 l 407 0 l 101 0 z "},"ˉ":{"ha":833,"x_min":167,"x_max":667,"o":"z "},"⅝":{"ha":1438,"x_min":28,"x_max":1403,"o":"m 234 396 q 185 397 208 396 q 143 401 163 399 l 28 440 l 63 572 l 220 533 q 269 545 253 533 q 284 578 284 556 q 268 604 284 592 q 214 615 253 615 l 56 615 l 56 894 l 420 894 l 420 777 l 247 784 l 217 784 l 217 731 l 264 731 q 404 690 360 731 q 448 572 448 649 q 394 443 448 490 q 234 396 340 396 m 289 -111 l 961 983 l 1119 983 l 447 -111 l 289 -111 m 1189 -14 q 1110 -7 1151 -14 q 1036 18 1070 1 q 981 64 1002 35 q 960 137 960 93 q 978 207 960 178 q 1028 250 997 235 q 992 295 1003 268 q 981 355 981 322 q 1007 426 981 395 q 1080 474 1033 456 q 1188 492 1127 492 q 1329 456 1276 492 q 1381 355 1381 421 q 1370 293 1381 315 q 1340 251 1358 272 q 1386 207 1371 231 q 1402 137 1402 182 q 1383 65 1402 94 q 1334 19 1365 36 q 1265 -6 1303 1 q 1189 -14 1227 -14 m 1182 289 q 1214 298 1207 289 q 1222 319 1222 308 q 1215 342 1222 331 q 1182 353 1208 353 q 1148 343 1156 353 q 1140 319 1140 333 q 1148 297 1140 306 q 1182 289 1157 289 m 1182 125 q 1231 135 1219 125 q 1242 156 1242 145 q 1228 185 1242 174 q 1189 202 1213 197 q 1135 208 1165 207 q 1127 191 1131 202 q 1123 167 1123 179 q 1134 138 1123 150 q 1182 125 1144 125 z "},"ﬂ":{"ha":1047,"x_min":28,"x_max":964,"o":"m 101 0 l 101 450 l 28 589 l 101 656 q 91 719 94 679 q 88 783 88 758 q 124 922 88 863 q 226 1016 161 982 q 374 1050 292 1050 q 435 1049 400 1050 q 505 1044 471 1047 q 560 1035 539 1040 l 658 982 l 658 983 l 964 983 l 964 0 l 658 0 l 658 743 l 469 813 q 378 731 378 813 q 388 685 378 704 q 407 656 397 667 l 574 656 l 574 447 l 407 447 l 407 225 l 421 85 l 407 0 l 101 0 z "},"ƒ":{"ha":1040,"x_min":28,"x_max":1013,"o":"m 290 -196 l 28 -115 l 83 92 l 233 46 q 280 63 268 46 q 293 125 292 79 l 293 356 l 219 536 l 293 603 l 293 619 q 330 797 293 725 q 425 914 367 869 q 551 978 483 958 q 678 997 618 997 q 760 994 717 997 q 836 982 804 990 l 1013 897 l 919 690 l 746 760 q 641 724 682 760 q 600 603 600 689 l 828 603 l 828 394 l 600 408 l 599 69 q 556 -87 599 -29 q 444 -171 514 -146 q 290 -196 374 -196 z "},"⁴":{"ha":526,"x_min":14,"x_max":513,"o":"m 267 611 l 267 681 l 14 681 l 14 786 l 214 1103 l 422 1103 l 436 1061 l 422 992 l 422 807 l 513 807 l 513 688 l 422 681 l 422 611 l 267 611 m 192 807 l 267 807 l 267 931 l 254 931 l 192 807 z "},"⁄":{"ha":442,"x_min":-194,"x_max":636,"o":"m -194 -111 l 478 983 l 636 983 l -36 -111 l -194 -111 z "},"₣":{"ha":924,"x_min":83,"x_max":979,"o":"m 83 108 l 83 233 l 194 228 l 194 758 l 167 900 l 194 983 l 910 983 l 979 942 l 888 706 l 763 719 l 486 719 l 500 608 l 846 608 l 846 379 l 650 379 l 500 393 l 500 226 l 657 233 l 658 108 l 511 115 l 515 82 l 500 0 l 194 0 l 194 114 l 83 108 z "},"g":{"ha":821,"x_min":28,"x_max":765,"o":"m 376 -337 q 319 -337 354 -337 q 250 -334 283 -336 q 197 -331 217 -332 l 28 -249 l 97 -26 l 343 -97 q 445 -67 418 -97 q 472 15 472 -37 l 472 42 l 458 49 q 405 9 439 29 q 292 -11 371 -11 q 165 22 226 -11 q 66 126 104 54 q 28 314 28 199 q 67 522 28 443 q 166 636 106 600 q 292 672 226 672 q 389 651 349 672 q 444 611 429 631 l 444 657 l 751 657 l 765 574 l 750 490 l 751 1 q 705 -193 751 -118 q 574 -303 658 -268 q 376 -337 490 -337 m 424 217 q 434 217 429 217 q 444 218 439 217 l 444 422 q 433 431 442 426 q 408 435 424 435 q 357 414 381 435 q 333 329 333 393 q 361 244 333 269 q 424 217 389 218 z "},"ğ":{"ha":821,"x_min":28,"x_max":765,"o":"m 376 -337 q 319 -337 354 -337 q 250 -334 283 -336 q 197 -331 217 -332 l 28 -249 l 97 -26 l 343 -97 q 445 -67 418 -97 q 472 15 472 -37 l 472 42 l 458 49 q 405 9 439 29 q 292 -11 371 -11 q 165 22 226 -11 q 66 126 104 54 q 28 314 28 199 q 67 522 28 443 q 166 636 106 600 q 292 672 226 672 q 389 651 349 672 q 444 611 429 631 l 444 657 l 751 657 l 765 574 l 750 490 l 751 1 q 705 -193 751 -118 q 574 -303 658 -268 q 376 -337 490 -337 m 424 217 q 434 217 429 217 q 444 218 439 217 l 444 422 q 433 431 442 426 q 408 435 424 435 q 357 414 381 435 q 333 329 333 393 q 361 244 333 269 q 424 217 389 218 m 428 750 q 251 805 303 750 q 199 972 199 860 l 308 972 q 314 944 308 960 q 344 915 319 928 q 428 903 369 903 q 510 915 486 903 q 540 944 535 928 q 544 972 544 960 l 657 972 q 605 804 657 858 q 428 750 553 750 z "},"ǧ":{"ha":821,"x_min":28,"x_max":765,"o":"m 376 -337 q 319 -337 354 -337 q 250 -334 283 -336 q 197 -331 217 -332 l 28 -249 l 97 -26 l 343 -97 q 445 -67 418 -97 q 472 15 472 -37 l 472 42 l 458 49 q 405 9 439 29 q 292 -11 371 -11 q 165 22 226 -11 q 66 126 104 54 q 28 314 28 199 q 67 522 28 443 q 166 636 106 600 q 292 672 226 672 q 389 651 349 672 q 444 611 429 631 l 444 657 l 751 657 l 765 574 l 750 490 l 751 1 q 705 -193 751 -118 q 574 -303 658 -268 q 376 -337 490 -337 m 424 217 q 434 217 429 217 q 444 218 439 217 l 444 422 q 433 431 442 426 q 408 435 424 435 q 357 414 381 435 q 333 329 333 393 q 361 244 333 269 q 424 217 389 218 z "},"ĝ":{"ha":821,"x_min":28,"x_max":765,"o":"m 376 -337 q 319 -337 354 -337 q 250 -334 283 -336 q 197 -331 217 -332 l 28 -249 l 97 -26 l 343 -97 q 445 -67 418 -97 q 472 15 472 -37 l 472 42 l 458 49 q 405 9 439 29 q 292 -11 371 -11 q 165 22 226 -11 q 66 126 104 54 q 28 314 28 199 q 67 522 28 443 q 166 636 106 600 q 292 672 226 672 q 389 651 349 672 q 444 611 429 631 l 444 657 l 751 657 l 765 574 l 750 490 l 751 1 q 705 -193 751 -118 q 574 -303 658 -268 q 376 -337 490 -337 m 424 217 q 434 217 429 217 q 444 218 439 217 l 444 422 q 433 431 442 426 q 408 435 424 435 q 357 414 381 435 q 333 329 333 393 q 361 244 333 269 q 424 217 389 218 m 199 764 l 350 986 l 490 986 l 640 764 l 500 764 l 421 844 l 338 764 l 199 764 z "},"ģ":{"ha":821,"x_min":28,"x_max":765,"o":"m 376 -337 q 319 -337 354 -337 q 250 -334 283 -336 q 197 -331 217 -332 l 28 -249 l 97 -26 l 343 -97 q 445 -67 418 -97 q 472 15 472 -37 l 472 42 l 458 49 q 405 9 439 29 q 292 -11 371 -11 q 165 22 226 -11 q 66 126 104 54 q 28 314 28 199 q 67 522 28 443 q 166 636 106 600 q 292 672 226 672 q 389 651 349 672 q 444 611 429 631 l 444 657 l 751 657 l 765 574 l 750 490 l 751 1 q 705 -193 751 -118 q 574 -303 658 -268 q 376 -337 490 -337 m 424 217 q 434 217 429 217 q 444 218 439 217 l 444 422 q 433 431 442 426 q 408 435 424 435 q 357 414 381 435 q 333 329 333 393 q 361 244 333 269 q 424 217 389 218 m 508 1318 l 576 1294 l 492 1000 l 617 889 l 446 722 l 256 903 l 508 1318 z "},"ġ":{"ha":821,"x_min":28,"x_max":765,"o":"m 376 -337 q 319 -337 354 -337 q 250 -334 283 -336 q 197 -331 217 -332 l 28 -249 l 97 -26 l 343 -97 q 445 -67 418 -97 q 472 15 472 -37 l 472 42 l 458 49 q 405 9 439 29 q 292 -11 371 -11 q 165 22 226 -11 q 66 126 104 54 q 28 314 28 199 q 67 522 28 443 q 166 636 106 600 q 292 672 226 672 q 389 651 349 672 q 444 611 429 631 l 444 657 l 751 657 l 765 574 l 750 490 l 751 1 q 705 -193 751 -118 q 574 -303 658 -268 q 376 -337 490 -337 m 424 217 q 434 217 429 217 q 444 218 439 217 l 444 422 q 433 431 442 426 q 408 435 424 435 q 357 414 381 435 q 333 329 333 393 q 361 244 333 269 q 424 217 389 218 m 426 747 l 277 896 l 426 1045 l 575 896 l 426 747 z "},"ß":{"ha":1044,"x_min":56,"x_max":1017,"o":"m 56 475 l 56 656 l 149 656 l 149 664 q 235 913 149 829 q 486 997 321 997 q 729 933 650 997 q 808 774 808 869 q 801 710 808 735 q 784 667 793 686 q 767 627 775 649 q 760 574 760 606 q 792 510 760 540 q 878 447 824 479 q 985 353 954 404 q 1017 219 1017 301 q 984 101 1017 154 q 890 17 951 49 q 739 -14 828 -14 q 651 -10 699 -14 q 576 0 604 -6 l 461 99 l 517 268 l 658 215 q 694 226 681 215 q 708 256 708 236 q 679 313 708 290 q 597 375 650 335 q 522 444 546 414 q 499 513 499 474 q 517 588 499 557 q 552 647 535 619 q 569 706 569 674 q 503 774 569 774 q 450 744 471 774 q 429 653 429 714 l 429 0 l 149 0 l 149 475 l 56 475 z "},"`":{"ha":374,"x_min":42,"x_max":332,"o":"m 233 708 l 42 890 l 42 975 l 240 975 l 332 708 l 233 708 z "},"̀":{"ha":0,"x_min":-556,"x_max":-265,"o":"m -364 708 l -556 890 l -556 975 l -357 975 l -265 708 l -364 708 z "},">":{"ha":722,"x_min":69,"x_max":653,"o":"m 69 153 l 69 319 l 492 417 l 69 514 l 69 681 l 653 514 l 653 319 l 69 153 z "},"≥":{"ha":722,"x_min":69,"x_max":653,"o":"m 69 153 l 69 319 l 492 417 l 69 514 l 69 681 l 653 514 l 653 319 l 69 153 m 69 -28 l 69 139 l 653 139 l 653 -28 l 69 -28 z "},"₲":{"ha":1140,"x_min":69,"x_max":1057,"o":"m 503 -83 l 503 -10 q 275 50 372 1 q 124 204 178 99 q 69 492 69 310 q 103 723 69 629 q 197 874 138 817 q 334 959 256 931 q 503 994 413 988 l 503 1069 l 628 1069 l 628 996 q 726 988 681 994 q 810 972 772 981 l 1013 863 l 915 618 l 628 706 l 628 250 q 683 256 660 251 q 721 267 706 260 l 721 315 l 689 507 l 1042 507 l 1057 424 l 1026 308 l 1026 44 q 957 26 1011 39 q 818 0 903 13 q 628 -14 733 -12 l 628 -83 l 503 -83 m 389 490 q 417 329 389 381 q 503 261 446 278 l 503 699 q 421 635 453 682 q 389 490 389 589 z "},"«":{"ha":917,"x_min":56,"x_max":861,"o":"m 486 181 l 306 417 l 486 653 l 236 653 l 56 417 l 236 181 l 486 181 m 861 181 l 681 417 l 861 653 l 611 653 l 431 417 l 611 181 l 861 181 z "},"»":{"ha":917,"x_min":56,"x_max":861,"o":"m 56 181 l 236 417 l 56 653 l 306 653 l 486 417 l 306 181 l 56 181 m 431 181 l 611 417 l 431 653 l 681 653 l 861 417 l 681 181 l 431 181 z "},"‹":{"ha":542,"x_min":56,"x_max":486,"o":"m 486 181 l 306 417 l 486 653 l 236 653 l 56 417 l 236 181 l 486 181 z "},"›":{"ha":542,"x_min":56,"x_max":486,"o":"m 56 181 l 236 417 l 56 653 l 306 653 l 486 417 l 306 181 l 56 181 z "},"h":{"ha":846,"x_min":47,"x_max":813,"o":"m 75 0 l 75 761 l 47 900 l 75 983 l 381 983 l 381 758 l 367 604 l 381 597 q 411 622 388 604 q 474 655 435 639 q 561 671 513 671 q 735 600 686 671 q 783 401 783 529 l 783 221 l 813 85 l 783 0 l 476 0 l 476 351 q 458 415 476 396 q 394 433 440 433 l 381 419 l 381 0 l 75 0 z "},"ħ":{"ha":846,"x_min":-74,"x_max":813,"o":"m 75 0 l 75 761 l 47 900 l 75 983 l 381 983 l 381 758 l 367 604 l 381 597 q 411 622 388 604 q 474 655 435 639 q 561 671 513 671 q 735 600 686 671 q 783 401 783 529 l 783 221 l 813 85 l 783 0 l 476 0 l 476 351 q 458 415 476 396 q 394 433 440 433 l 381 419 l 381 0 l 75 0 m -74 728 l -72 839 l 554 839 l 554 728 l -74 728 z "},"ĥ":{"ha":846,"x_min":-18,"x_max":813,"o":"m 75 0 l 75 761 l 47 900 l 75 983 l 381 983 l 381 758 l 367 604 l 381 597 q 411 622 388 604 q 474 655 435 639 q 561 671 513 671 q 735 600 686 671 q 783 401 783 529 l 783 221 l 813 85 l 783 0 l 476 0 l 476 351 q 458 415 476 396 q 394 433 440 433 l 381 419 l 381 0 l 75 0 m -18 1083 l 133 1306 l 274 1306 l 424 1083 l 283 1083 l 204 1164 l 121 1083 l -18 1083 z "},"̉":{"ha":0,"x_min":-528,"x_max":-194,"o":"m -444 778 l -444 792 q -429 849 -444 825 q -393 891 -414 874 q -357 922 -372 908 q -342 947 -342 935 q -345 956 -342 953 q -360 958 -349 958 q -417 940 -386 958 q -465 903 -449 922 l -528 1014 q -460 1058 -508 1033 q -328 1083 -411 1083 q -229 1056 -264 1083 q -194 979 -194 1029 q -211 912 -194 939 q -251 865 -228 885 q -290 825 -274 844 q -307 778 -307 806 l -444 778 z "},"̛":{"ha":0,"x_min":56,"x_max":322,"o":"m 144 569 q 78 581 101 569 q 56 592 56 592 l 56 667 l 85 667 q 140 694 128 667 q 153 768 153 721 l 153 836 l 322 836 l 322 733 q 297 635 322 671 q 230 585 271 600 q 144 569 189 569 z "},"˝":{"ha":507,"x_min":0,"x_max":568,"o":"z "},"̋":{"ha":0,"x_min":-722,"x_max":-154,"o":"m -444 708 l -353 975 l -154 975 l -154 890 l -346 708 l -444 708 m -722 711 l -631 978 l -432 978 l -432 893 l -624 711 l -722 711 z "},"-":{"ha":583,"x_min":69,"x_max":514,"o":"m 69 222 l 69 417 l 514 417 l 514 222 l 69 222 z "},"‐":{"ha":528,"x_min":69,"x_max":514,"o":"m 69 222 l 69 417 l 514 417 l 514 222 l 69 222 z "},"i":{"ha":432,"x_min":21,"x_max":432,"o":"m 226 696 l 21 874 l 226 1050 l 432 874 l 226 696 m 72 0 l 72 460 l 43 571 l 71 656 l 378 656 l 378 0 l 72 0 z "},"í":{"ha":451,"x_min":56,"x_max":403,"o":"m 85 0 l 85 460 l 56 571 l 83 656 l 390 656 l 390 0 l 85 0 m 113 708 l 204 975 l 403 975 l 403 890 l 211 708 l 113 708 z "},"ĭ":{"ha":451,"x_min":6,"x_max":464,"o":"m 85 0 l 85 460 l 56 571 l 83 656 l 390 656 l 390 0 l 85 0 m 235 736 q 58 791 110 736 q 6 958 6 846 l 115 958 q 121 930 115 946 q 151 901 126 914 q 235 889 176 889 q 317 901 293 889 q 347 930 342 914 q 351 958 351 946 l 464 958 q 412 790 464 844 q 235 736 360 736 z "},"î":{"ha":451,"x_min":6,"x_max":447,"o":"m 85 0 l 85 460 l 56 571 l 83 656 l 390 656 l 390 0 l 85 0 m 6 750 l 157 972 l 297 972 l 447 750 l 307 750 l 228 831 l 144 750 l 6 750 z "},"ȉ":{"ha":451,"x_min":-101,"x_max":467,"o":"m 85 0 l 85 460 l 56 571 l 83 656 l 390 656 l 390 0 l 85 0 z "},"ï":{"ha":451,"x_min":-76,"x_max":554,"o":"m 85 0 l 85 460 l 56 571 l 83 656 l 390 656 l 390 0 l 85 0 m 73 719 l -76 868 l 73 1017 l 223 868 l 73 719 m 405 719 l 256 868 l 405 1017 l 554 868 l 405 719 z "},"ị":{"ha":432,"x_min":21,"x_max":432,"o":"m 226 696 l 21 874 l 226 1050 l 432 874 l 226 696 m 72 0 l 72 460 l 43 571 l 71 656 l 378 656 l 378 0 l 72 0 m 223 -344 l 74 -194 l 223 -45 l 373 -194 l 223 -344 z "},"ı":{"ha":451,"x_min":56,"x_max":390,"o":"m 85 0 l 85 460 l 56 571 l 83 656 l 390 656 l 390 0 l 85 0 z "},"ì":{"ha":451,"x_min":43,"x_max":390,"o":"m 85 0 l 85 460 l 56 571 l 83 656 l 390 656 l 390 0 l 85 0 m 235 708 l 43 890 l 43 975 l 242 975 l 333 708 l 235 708 z "},"ỉ":{"ha":451,"x_min":56,"x_max":415,"o":"m 85 0 l 85 460 l 56 571 l 83 656 l 390 656 l 390 0 l 85 0 m 165 708 l 165 722 q 181 780 165 756 q 217 822 196 804 q 253 852 238 839 q 268 878 268 865 q 265 886 268 883 q 250 889 261 889 q 192 871 224 889 q 144 833 161 853 l 82 944 q 150 989 101 964 q 282 1014 199 1014 q 381 987 346 1014 q 415 910 415 960 q 399 842 415 869 q 359 795 382 815 q 319 756 336 775 q 303 708 303 736 l 165 708 z "},"ȋ":{"ha":451,"x_min":6,"x_max":464,"o":"m 85 0 l 85 460 l 56 571 l 83 656 l 390 656 l 390 0 l 85 0 m 235 975 q 58 920 110 975 q 6 753 6 865 l 115 753 q 121 781 115 765 q 151 810 126 797 q 235 822 176 822 q 317 810 293 822 q 347 781 342 797 q 351 753 351 765 l 464 753 q 412 921 464 867 q 235 975 360 975 z "},"ĳ":{"ha":956,"x_min":21,"x_max":915,"o":"m 226 696 l 21 874 l 226 1050 l 432 874 l 226 696 m 72 0 l 72 460 l 43 571 l 71 656 l 378 656 l 378 0 l 72 0 m 710 697 l 504 875 l 710 1051 l 915 875 l 710 697 m 529 -337 q 485 -336 513 -337 q 431 -332 458 -335 q 388 -325 404 -329 l 321 -257 l 390 -50 l 511 -97 q 555 -74 546 -97 q 557 1 564 -51 l 557 463 l 528 588 l 556 657 l 864 657 l 864 -58 q 821 -217 864 -156 q 703 -308 778 -279 q 529 -337 628 -337 z "},"ī":{"ha":451,"x_min":-15,"x_max":485,"o":"m 85 0 l 85 460 l 56 571 l 83 656 l 390 656 l 390 0 l 85 0 m -15 764 l -15 903 l 485 903 l 485 764 l -15 764 z "},"∞":{"ha":1314,"x_min":69,"x_max":1244,"o":"m 342 139 q 178 177 238 139 q 94 278 119 215 q 69 415 69 340 q 135 612 69 536 q 328 688 201 688 q 473 656 407 688 q 589 583 539 625 q 671 511 639 542 q 706 551 679 522 q 772 610 732 579 q 863 665 813 642 q 968 688 913 688 q 1100 661 1047 688 q 1185 593 1153 635 q 1231 503 1217 551 q 1244 414 1244 456 q 1215 276 1244 339 q 1125 176 1186 214 q 968 139 1064 139 q 863 154 921 139 q 749 201 806 169 q 644 282 692 233 q 513 183 592 226 q 342 139 433 139 m 925 346 q 972 362 953 346 q 992 408 992 378 q 968 468 992 444 q 897 492 944 492 q 823 467 858 492 q 768 424 788 443 q 844 367 806 388 q 925 346 883 346 m 425 332 q 499 346 469 332 q 543 371 529 360 q 481 432 518 400 q 397 464 443 464 q 322 408 322 464 q 348 353 322 374 q 425 332 374 332 z "},"∫":{"ha":1011,"x_min":42,"x_max":969,"o":"m 233 -226 q 91 -181 140 -226 q 42 -62 42 -135 q 76 38 42 0 q 167 75 111 75 q 250 53 221 75 q 289 0 279 32 q 326 21 314 0 q 344 74 339 42 q 349 140 349 106 l 349 604 q 454 931 349 811 q 761 1050 560 1050 q 917 1001 864 1050 q 969 881 969 951 q 934 783 969 819 q 835 747 899 747 q 748 777 779 747 q 717 854 717 807 q 669 806 683 847 q 654 657 654 764 l 653 219 q 617 0 653 86 q 519 -136 581 -86 q 384 -206 458 -186 q 233 -226 310 -226 z "},"į":{"ha":451,"x_min":56,"x_max":447,"o":"m 85 0 l 85 460 l 56 571 l 83 656 l 390 656 l 390 0 l 85 0 m 233 733 l 84 882 l 233 1031 l 382 882 l 233 733 m 253 -264 q 137 -224 181 -264 q 93 -121 93 -185 l 157 4 l 296 4 l 267 -75 q 266 -100 261 -89 q 285 -111 271 -111 q 339 -101 310 -111 q 388 -75 368 -92 l 447 -172 q 408 -208 435 -186 q 343 -247 382 -231 q 253 -264 304 -264 z "},"ĩ":{"ha":451,"x_min":-15,"x_max":486,"o":"m 85 0 l 85 460 l 56 571 l 83 656 l 390 656 l 390 0 l 85 0 m 346 722 q 262 740 300 722 q 193 774 224 757 q 138 792 163 792 l 97 736 l -15 736 q -2 855 -15 801 q 42 940 11 908 q 124 972 72 972 q 206 951 168 972 q 276 910 244 931 q 333 889 308 889 l 374 958 l 486 958 q 456 786 486 850 q 346 722 426 722 z "},"j":{"ha":593,"x_min":-42,"x_max":553,"o":"m 347 697 l 142 875 l 347 1051 l 553 875 l 347 697 m 167 -337 q 123 -336 150 -337 q 69 -332 96 -335 q 25 -325 42 -329 l -42 -257 l 28 -50 l 149 -97 q 192 -74 183 -97 q 194 1 201 -51 l 194 463 l 165 588 l 193 657 l 501 657 l 501 -58 q 458 -217 501 -156 q 340 -308 415 -279 q 167 -337 265 -337 z "},"ĵ":{"ha":542,"x_min":-42,"x_max":610,"o":"m 167 -337 q 123 -336 150 -337 q 69 -332 96 -335 q 25 -325 42 -329 l -42 -257 l 28 -50 l 149 -97 q 192 -74 183 -97 q 194 1 201 -51 l 194 463 l 165 588 l 193 657 l 501 657 l 501 -58 q 458 -217 501 -156 q 340 -308 415 -279 q 167 -337 265 -337 m 168 750 l 319 972 l 460 972 l 610 750 l 469 750 l 390 831 l 307 750 l 168 750 z "},"ȷ":{"ha":542,"x_min":-42,"x_max":501,"o":"m 167 -337 q 123 -336 150 -337 q 69 -332 96 -335 q 25 -325 42 -329 l -42 -257 l 28 -50 l 149 -97 q 192 -74 183 -97 q 194 1 201 -51 l 194 463 l 165 588 l 193 657 l 501 657 l 501 -58 q 458 -217 501 -156 q 340 -308 415 -279 q 167 -337 265 -337 z "},"k":{"ha":914,"x_min":56,"x_max":900,"o":"m 85 0 l 85 761 l 56 900 l 85 983 l 393 983 l 393 761 l 378 401 l 404 401 l 482 656 l 821 656 l 821 572 l 667 361 l 769 222 l 900 82 l 900 0 l 575 0 l 446 229 l 393 215 l 393 0 l 85 0 z "},"ķ":{"ha":914,"x_min":56,"x_max":900,"o":"m 85 0 l 85 761 l 56 900 l 85 983 l 393 983 l 393 761 l 378 401 l 404 401 l 482 656 l 821 656 l 821 572 l 667 361 l 769 222 l 900 82 l 900 0 l 575 0 l 446 229 l 393 215 l 393 0 l 85 0 m 326 -610 l 258 -586 l 343 -292 l 218 -181 l 389 -14 l 579 -194 l 326 -610 z "},"ĸ":{"ha":914,"x_min":56,"x_max":900,"o":"m 85 0 l 85 432 l 56 571 l 85 654 l 393 654 l 393 567 l 378 401 l 404 401 l 482 656 l 821 656 l 821 572 l 667 361 l 769 222 l 900 82 l 900 0 l 575 0 l 446 229 l 393 215 l 393 0 l 85 0 z "},"₭":{"ha":1207,"x_min":56,"x_max":1151,"o":"m 181 0 l 181 444 l 56 442 l 56 567 l 181 564 l 181 756 l 153 896 l 181 983 l 486 983 l 486 817 l 472 596 l 514 596 l 724 983 l 1056 983 l 1056 900 l 815 558 l 1118 567 l 1119 442 l 829 449 l 1014 221 l 1151 83 l 1151 0 l 783 0 l 544 340 l 486 326 l 486 167 l 500 83 l 486 0 l 181 0 z "},"l":{"ha":438,"x_min":47,"x_max":382,"o":"m 76 0 l 76 761 l 47 900 l 76 983 l 382 983 l 382 0 l 76 0 z "},"ĺ":{"ha":438,"x_min":47,"x_max":392,"o":"m 76 0 l 76 761 l 47 900 l 76 983 l 382 983 l 382 0 l 76 0 m 101 1042 l 193 1308 l 392 1308 l 392 1224 l 200 1042 l 101 1042 z "},"ľ":{"ha":438,"x_min":-4,"x_max":438,"o":"m 76 0 l 76 761 l 47 900 l 76 983 l 382 983 l 382 0 l 76 0 z "},"ļ":{"ha":438,"x_min":47,"x_max":424,"o":"m 76 0 l 76 761 l 47 900 l 76 983 l 382 983 l 382 0 l 76 0 m 171 -610 l 103 -586 l 188 -292 l 63 -181 l 233 -14 l 424 -194 l 171 -610 z "},"ŀ":{"ha":847,"x_min":47,"x_max":819,"o":"m 76 0 l 76 761 l 47 900 l 76 983 l 382 983 l 382 0 l 76 0 z "},"⟨":{"ha":469,"x_min":42,"x_max":428,"o":"m 428 -194 l 235 471 l 428 1124 l 233 1124 l 42 471 l 233 -194 l 428 -194 z "},"<":{"ha":611,"x_min":-69,"x_max":514,"o":"m 514 153 l 514 319 l 92 417 l 514 514 l 514 681 l -69 514 l -69 319 l 514 153 z "},"≤":{"ha":722,"x_min":69,"x_max":653,"o":"m 653 153 l 653 319 l 231 417 l 653 514 l 653 681 l 69 514 l 69 319 l 653 153 m 69 -28 l 69 139 l 653 139 l 653 -28 l 69 -28 z "},"₤":{"ha":1097,"x_min":56,"x_max":1069,"o":"m 125 0 l 111 83 l 181 222 l 181 350 l 56 344 l 56 469 l 181 464 l 181 531 l 56 525 l 56 650 l 186 643 q 261 838 201 758 q 408 957 321 917 q 593 997 494 997 q 731 986 664 997 q 829 961 799 975 l 942 863 l 803 647 l 607 756 q 522 730 553 756 q 489 642 492 704 l 694 650 l 696 525 l 489 533 l 489 461 l 694 469 l 696 344 l 489 353 l 489 264 l 821 264 l 919 297 l 1069 89 l 1001 0 l 125 0 z "},"₺":{"ha":1078,"x_min":56,"x_max":1022,"o":"m 56 171 l 56 313 l 197 378 l 197 467 l 56 401 l 56 543 l 197 608 l 197 983 l 503 983 l 531 900 l 503 749 l 660 821 l 660 679 l 503 607 l 503 518 l 660 590 l 660 449 l 503 376 l 503 264 l 717 264 l 717 422 l 1022 394 l 1022 294 q 999 202 1022 243 q 936 122 975 161 l 897 88 q 804 26 861 51 q 682 0 747 0 l 197 0 l 183 83 l 197 222 l 197 236 l 56 171 z "},"ℓ":{"ha":847,"x_min":28,"x_max":806,"o":"m 617 869 q 581 850 593 869 q 569 807 569 831 l 569 615 q 631 709 608 660 q 654 814 654 758 q 617 869 654 869 m 94 149 l 28 274 q 143 331 82 301 q 265 393 204 361 l 265 765 q 298 910 265 846 q 393 1013 331 975 q 547 1051 456 1051 q 675 1017 626 1051 q 746 929 724 983 q 768 814 768 875 q 713 601 768 696 q 569 431 658 507 l 569 279 q 583 230 569 244 q 625 215 596 215 q 692 228 661 215 q 744 254 724 242 q 764 267 764 267 l 806 99 q 751 58 788 78 q 669 22 715 39 q 578 -4 624 6 q 497 -14 533 -14 q 328 41 392 -14 q 265 210 265 96 l 265 233 q 180 190 222 211 q 94 149 138 169 z "},"ǉ":{"ha":1031,"x_min":47,"x_max":990,"o":"m 76 0 l 76 761 l 47 900 l 76 983 l 382 983 l 382 0 l 76 0 m 785 697 l 579 875 l 785 1051 l 990 875 l 785 697 m 604 -337 q 560 -336 588 -337 q 506 -332 533 -335 q 463 -325 479 -329 l 396 -257 l 465 -50 l 586 -97 q 630 -74 621 -97 q 632 1 639 -51 l 632 463 l 603 588 l 631 657 l 939 657 l 939 -58 q 896 -217 939 -156 q 778 -308 853 -279 q 604 -337 703 -337 z "},"¬":{"ha":842,"x_min":69,"x_max":772,"o":"m 632 222 l 632 333 l 69 333 l 69 528 l 772 528 l 772 222 l 632 222 z "},"◊":{"ha":833,"x_min":42,"x_max":792,"o":"m 417 -28 l 42 431 l 417 890 l 792 431 l 417 -28 m 417 269 l 542 431 l 417 593 l 292 431 l 417 269 z "},"ł":{"ha":438,"x_min":-99,"x_max":556,"o":"m 76 0 l 76 761 l 47 900 l 76 983 l 382 983 l 382 0 l 76 0 m -3 236 l -99 371 l 207 535 l 467 781 l 556 644 l 250 479 l -3 236 z "},"m":{"ha":1264,"x_min":56,"x_max":1231,"o":"m 56 571 l 99 656 l 361 656 l 361 596 l 374 588 q 416 620 389 601 q 481 654 443 639 q 569 669 519 669 q 746 586 690 669 q 823 645 776 619 q 938 671 869 671 q 1132 600 1063 671 q 1201 401 1201 529 l 1201 224 l 1231 85 l 1201 0 l 894 0 l 894 350 q 883 413 894 394 q 843 432 871 432 q 804 408 817 432 q 792 349 792 385 l 792 0 l 485 0 l 485 351 q 466 413 485 393 q 403 433 447 433 l 389 419 l 389 0 l 83 0 l 83 418 l 56 571 z "},"¯":{"ha":556,"x_min":28,"x_max":528,"o":"m 28 764 l 28 903 l 528 903 l 528 764 l 28 764 z "},"̱":{"ha":0,"x_min":-667,"x_max":-167,"o":"m -667 -242 l -667 -103 l -167 -103 l -167 -242 l -667 -242 z "},"̄":{"ha":0,"x_min":-667,"x_max":-167,"o":"m -667 764 l -667 903 l -167 903 l -167 764 l -667 764 z "},"₼":{"ha":1106,"x_min":56,"x_max":1050,"o":"m 56 0 l 56 228 q 151 613 56 485 q 457 761 247 740 l 435 988 l 671 988 l 649 761 q 954 615 858 742 q 1050 228 1050 488 l 1050 0 l 738 0 l 738 228 q 734 378 738 313 q 713 490 731 444 q 651 556 694 535 l 671 171 l 435 171 l 454 550 q 397 480 414 526 q 375 369 379 433 q 371 228 371 306 l 371 0 l 56 0 z "},"µ":{"ha":825,"x_min":56,"x_max":793,"o":"m 264 -14 q 231 -12 247 -14 q 264 -80 251 -46 q 276 -153 276 -114 q 242 -237 276 -210 q 165 -264 207 -264 q 84 -230 113 -264 q 56 -137 56 -196 l 56 657 l 363 657 l 363 292 q 370 247 363 268 q 400 226 378 226 q 447 258 438 226 q 456 351 456 290 l 456 657 l 764 657 l 764 224 l 793 85 l 764 0 l 471 0 l 471 68 l 457 75 q 384 17 431 49 q 264 -14 338 -14 z "},"−":{"ha":722,"x_min":69,"x_max":653,"o":"m 69 333 l 69 500 l 653 500 l 653 333 l 69 333 z "},"′":{"ha":375,"x_min":69,"x_max":306,"o":"m 69 681 l 69 1042 l 236 1139 l 306 1042 l 125 681 l 69 681 z "},"μ":{"ha":849,"x_min":56,"x_max":793,"o":"m 56 -278 l 56 657 l 363 657 l 363 292 q 370 247 363 268 q 400 226 378 226 q 447 258 438 226 q 456 351 456 290 l 456 657 l 764 657 l 764 224 l 793 85 l 764 0 l 471 0 l 471 68 l 457 75 q 395 24 433 51 q 299 -11 357 -4 l 338 -194 l 310 -278 l 56 -278 z "},"×":{"ha":711,"x_min":69,"x_max":642,"o":"m 524 111 l 356 281 l 188 113 l 69 231 l 238 397 l 71 565 l 188 683 l 356 515 l 524 683 l 640 565 l 472 397 l 642 229 l 524 111 z "},"n":{"ha":853,"x_min":56,"x_max":819,"o":"m 83 0 l 83 418 l 56 571 l 99 656 l 361 656 l 361 596 l 374 588 q 416 620 389 601 q 482 654 443 639 q 569 669 521 669 q 738 599 683 669 q 792 400 792 528 l 792 222 l 819 83 l 792 0 l 485 0 l 485 351 q 466 413 485 393 q 403 433 447 433 l 389 419 l 389 0 l 83 0 z "},"ń":{"ha":853,"x_min":56,"x_max":819,"o":"m 83 0 l 83 418 l 56 571 l 99 656 l 361 656 l 361 596 l 374 588 q 416 620 389 601 q 482 654 443 639 q 569 669 521 669 q 738 599 683 669 q 792 400 792 528 l 792 222 l 819 83 l 792 0 l 485 0 l 485 351 q 466 413 485 393 q 403 433 447 433 l 389 419 l 389 0 l 83 0 m 292 708 l 383 975 l 582 975 l 582 890 l 390 708 l 292 708 z "},"₦":{"ha":1304,"x_min":56,"x_max":1249,"o":"m 179 0 l 179 350 l 56 343 l 56 468 l 179 461 l 179 531 l 56 524 l 56 649 l 179 642 l 179 760 l 151 899 l 179 982 l 458 982 l 739 632 l 806 517 l 819 517 l 819 982 l 1140 982 l 1140 899 l 1126 760 l 1126 642 l 1247 649 l 1249 524 l 1126 531 l 1126 461 l 1247 468 l 1249 343 l 1126 350 l 1126 0 l 850 0 l 501 475 l 488 475 l 488 392 l 501 0 l 179 0 z "}," ":{"ha":333,"x_min":0,"x_max":0,"o":""},"ň":{"ha":853,"x_min":56,"x_max":819,"o":"m 83 0 l 83 418 l 56 571 l 99 656 l 361 656 l 361 596 l 374 588 q 416 620 389 601 q 482 654 443 639 q 569 669 521 669 q 738 599 683 669 q 792 400 792 528 l 792 222 l 819 83 l 792 0 l 485 0 l 485 351 q 466 413 485 393 q 403 433 447 433 l 389 419 l 389 0 l 83 0 z "},"ņ":{"ha":853,"x_min":56,"x_max":819,"o":"m 83 0 l 83 418 l 56 571 l 99 656 l 361 656 l 361 596 l 374 588 q 416 620 389 601 q 482 654 443 639 q 569 669 521 669 q 738 599 683 669 q 792 400 792 528 l 792 222 l 819 83 l 792 0 l 485 0 l 485 351 q 466 413 485 393 q 403 433 447 433 l 389 419 l 389 0 l 83 0 m 319 -610 l 251 -586 l 336 -292 l 211 -181 l 382 -14 l 572 -194 l 319 -610 z "},"ɲ":{"ha":932,"x_min":-42,"x_max":876,"o":"m 139 -339 l -42 -286 l 14 -35 l 81 -68 q 128 -50 117 -68 q 139 17 139 -32 l 139 418 l 111 571 l 154 656 l 417 656 l 417 596 l 429 588 q 472 620 444 601 q 538 654 499 639 q 625 669 576 669 q 793 599 739 669 q 847 400 847 528 l 847 224 l 876 85 l 847 0 l 540 0 l 540 364 q 525 415 540 400 q 475 429 510 429 l 444 403 l 444 -46 q 405 -213 444 -149 q 297 -308 365 -278 q 139 -339 228 -339 z "},"ǌ":{"ha":1446,"x_min":56,"x_max":1406,"o":"m 83 0 l 83 418 l 56 571 l 99 656 l 361 656 l 361 596 l 374 588 q 416 620 389 601 q 482 654 443 639 q 569 669 521 669 q 738 599 683 669 q 792 400 792 528 l 792 222 l 819 83 l 792 0 l 485 0 l 485 351 q 466 413 485 393 q 403 433 447 433 l 389 419 l 389 0 l 83 0 m 1200 697 l 994 875 l 1200 1051 l 1406 875 l 1200 697 m 1019 -337 q 976 -336 1003 -337 q 922 -332 949 -335 q 878 -325 894 -329 l 811 -257 l 881 -50 l 1001 -97 q 1045 -74 1036 -97 q 1047 1 1054 -51 l 1047 463 l 1018 588 l 1046 657 l 1354 657 l 1354 -58 q 1311 -217 1354 -156 q 1193 -308 1268 -279 q 1019 -337 1118 -337 z "},"≠":{"ha":722,"x_min":69,"x_max":653,"o":"m 167 56 l 211 194 l 69 194 l 69 361 l 264 361 l 300 472 l 69 472 l 69 639 l 353 639 l 393 764 l 553 764 l 513 639 l 653 639 l 653 472 l 460 472 l 424 361 l 653 361 l 653 194 l 371 194 l 326 56 l 167 56 z "},"ñ":{"ha":853,"x_min":56,"x_max":819,"o":"m 83 0 l 83 418 l 56 571 l 99 656 l 361 656 l 361 596 l 374 588 q 416 620 389 601 q 482 654 443 639 q 569 669 521 669 q 738 599 683 669 q 792 400 792 528 l 792 222 l 819 83 l 792 0 l 485 0 l 485 351 q 466 413 485 393 q 403 433 447 433 l 389 419 l 389 0 l 83 0 m 525 722 q 441 740 479 722 q 372 774 403 757 q 317 792 342 792 l 276 736 l 164 736 q 177 855 164 801 q 221 940 190 908 q 303 972 251 972 q 385 951 347 972 q 456 910 424 931 q 513 889 488 889 l 553 958 l 665 958 q 635 786 665 850 q 525 722 606 722 z "},"#":{"ha":1433,"x_min":69,"x_max":1364,"o":"m 194 0 l 194 83 l 243 214 l 69 214 l 69 422 l 319 422 l 344 492 l 361 561 l 153 561 l 153 769 l 408 769 l 458 983 l 772 983 l 772 900 l 728 769 l 869 769 l 929 983 l 1242 983 l 1242 900 l 1193 769 l 1364 769 l 1364 561 l 1114 561 l 1088 492 l 1072 422 l 1281 422 l 1281 214 l 1025 214 l 976 0 l 665 0 l 665 83 l 706 214 l 558 214 l 507 0 l 194 0 m 608 422 l 768 422 l 811 561 l 656 561 l 608 422 z "},"№":{"ha":1735,"x_min":83,"x_max":1651,"o":"m 111 0 l 111 760 l 83 899 l 111 982 l 390 982 l 671 632 l 738 517 l 751 517 l 751 982 l 1072 982 l 1072 899 l 1058 760 l 1058 0 l 782 0 l 433 475 l 419 475 l 419 392 l 433 0 l 111 0 m 1407 240 q 1228 294 1294 240 q 1161 468 1161 347 q 1228 642 1161 589 q 1407 696 1294 696 q 1588 642 1524 696 q 1651 468 1651 589 q 1588 294 1651 347 q 1407 240 1524 240 m 1407 389 q 1436 403 1425 389 q 1447 468 1447 417 q 1436 534 1447 519 q 1407 549 1425 549 q 1377 534 1389 549 q 1365 468 1365 519 q 1378 403 1365 417 q 1407 389 1390 389 m 1150 0 l 1150 139 l 1650 139 l 1650 0 l 1150 0 z "},"o":{"ha":792,"x_min":28,"x_max":764,"o":"m 397 -14 q 128 67 228 -14 q 28 328 28 147 q 128 590 28 510 q 397 669 228 669 q 668 590 572 669 q 764 328 764 510 q 668 67 764 147 q 397 -14 572 -14 m 397 208 q 440 230 424 208 q 457 328 457 251 q 441 426 457 406 q 397 447 425 447 q 353 426 371 447 q 335 328 335 406 q 353 230 335 251 q 397 208 371 208 z "},"ó":{"ha":792,"x_min":28,"x_max":764,"o":"m 397 -14 q 128 67 228 -14 q 28 328 28 147 q 128 590 28 510 q 397 669 228 669 q 668 590 572 669 q 764 328 764 510 q 668 67 764 147 q 397 -14 572 -14 m 397 208 q 440 230 424 208 q 457 328 457 251 q 441 426 457 406 q 397 447 425 447 q 353 426 371 447 q 335 328 335 406 q 353 230 335 251 q 397 208 371 208 m 275 725 l 367 992 l 565 992 l 565 907 l 374 725 l 275 725 z "},"ŏ":{"ha":792,"x_min":28,"x_max":764,"o":"m 397 -14 q 128 67 228 -14 q 28 328 28 147 q 128 590 28 510 q 397 669 228 669 q 668 590 572 669 q 764 328 764 510 q 668 67 764 147 q 397 -14 572 -14 m 397 208 q 440 230 424 208 q 457 328 457 251 q 441 426 457 406 q 397 447 425 447 q 353 426 371 447 q 335 328 335 406 q 353 230 335 251 q 397 208 371 208 m 397 753 q 220 808 272 753 q 168 975 168 863 l 278 975 q 283 947 278 963 q 314 918 289 931 q 397 906 339 906 q 480 918 456 906 q 509 947 504 931 q 514 975 514 963 l 626 975 q 574 807 626 861 q 397 753 522 753 z "},"ô":{"ha":792,"x_min":28,"x_max":764,"o":"m 397 -14 q 128 67 228 -14 q 28 328 28 147 q 128 590 28 510 q 397 669 228 669 q 668 590 572 669 q 764 328 764 510 q 668 67 764 147 q 397 -14 572 -14 m 397 208 q 440 230 424 208 q 457 328 457 251 q 441 426 457 406 q 397 447 425 447 q 353 426 371 447 q 335 328 335 406 q 353 230 335 251 q 397 208 371 208 m 168 767 l 319 989 l 460 989 l 610 767 l 469 767 l 390 847 l 307 767 l 168 767 z "},"ố":{"ha":792,"x_min":28,"x_max":764,"o":"m 397 -14 q 128 67 228 -14 q 28 328 28 147 q 128 590 28 510 q 397 669 228 669 q 668 590 572 669 q 764 328 764 510 q 668 67 764 147 q 397 -14 572 -14 m 397 208 q 440 230 424 208 q 457 328 457 251 q 441 426 457 406 q 397 447 425 447 q 353 426 371 447 q 335 328 335 406 q 353 230 335 251 q 397 208 371 208 m 168 767 l 319 989 l 460 989 l 610 767 l 469 767 l 390 847 l 307 767 l 168 767 m 268 1056 l 360 1322 l 558 1322 l 558 1238 l 367 1056 l 268 1056 z "},"ộ":{"ha":792,"x_min":28,"x_max":764,"o":"m 397 -14 q 128 67 228 -14 q 28 328 28 147 q 128 590 28 510 q 397 669 228 669 q 668 590 572 669 q 764 328 764 510 q 668 67 764 147 q 397 -14 572 -14 m 397 208 q 440 230 424 208 q 457 328 457 251 q 441 426 457 406 q 397 447 425 447 q 353 426 371 447 q 335 328 335 406 q 353 230 335 251 q 397 208 371 208 m 398 -357 l 249 -208 l 398 -59 l 548 -208 l 398 -357 m 168 767 l 319 989 l 460 989 l 610 767 l 469 767 l 390 847 l 307 767 l 168 767 z "},"ồ":{"ha":792,"x_min":28,"x_max":764,"o":"m 397 -14 q 128 67 228 -14 q 28 328 28 147 q 128 590 28 510 q 397 669 228 669 q 668 590 572 669 q 764 328 764 510 q 668 67 764 147 q 397 -14 572 -14 m 397 208 q 440 230 424 208 q 457 328 457 251 q 441 426 457 406 q 397 447 425 447 q 353 426 371 447 q 335 328 335 406 q 353 230 335 251 q 397 208 371 208 m 168 767 l 319 989 l 460 989 l 610 767 l 469 767 l 390 847 l 307 767 l 168 767 m 390 1056 l 199 1238 l 199 1322 l 397 1322 l 489 1056 l 390 1056 z "},"ổ":{"ha":792,"x_min":28,"x_max":764,"o":"m 397 -14 q 128 67 228 -14 q 28 328 28 147 q 128 590 28 510 q 397 669 228 669 q 668 590 572 669 q 764 328 764 510 q 668 67 764 147 q 397 -14 572 -14 m 397 208 q 440 230 424 208 q 457 328 457 251 q 441 426 457 406 q 397 447 425 447 q 353 426 371 447 q 335 328 335 406 q 353 230 335 251 q 397 208 371 208 m 168 767 l 319 989 l 460 989 l 610 767 l 469 767 l 390 847 l 307 767 l 168 767 m 321 1056 l 321 1069 q 336 1127 321 1103 q 372 1169 351 1151 q 408 1199 393 1186 q 424 1225 424 1213 q 420 1233 424 1231 q 406 1236 417 1236 q 348 1218 379 1236 q 300 1181 317 1200 l 238 1292 q 306 1336 257 1311 q 438 1361 354 1361 q 536 1334 501 1361 q 571 1257 571 1307 q 554 1190 571 1217 q 515 1142 538 1163 q 475 1103 492 1122 q 458 1056 458 1083 l 321 1056 z "},"ỗ":{"ha":792,"x_min":28,"x_max":764,"o":"m 397 -14 q 128 67 228 -14 q 28 328 28 147 q 128 590 28 510 q 397 669 228 669 q 668 590 572 669 q 764 328 764 510 q 668 67 764 147 q 397 -14 572 -14 m 397 208 q 440 230 424 208 q 457 328 457 251 q 441 426 457 406 q 397 447 425 447 q 353 426 371 447 q 335 328 335 406 q 353 230 335 251 q 397 208 371 208 m 168 767 l 319 989 l 460 989 l 610 767 l 469 767 l 390 847 l 307 767 l 168 767 m 501 1069 q 417 1087 456 1069 q 349 1122 379 1104 q 293 1139 318 1139 l 253 1083 l 140 1083 q 153 1202 140 1149 q 197 1288 167 1256 q 279 1319 228 1319 q 362 1299 324 1319 q 432 1257 400 1278 q 489 1236 464 1236 l 529 1306 l 642 1306 q 612 1133 642 1197 q 501 1069 582 1069 z "},"ȍ":{"ha":792,"x_min":28,"x_max":764,"o":"m 397 -14 q 128 67 228 -14 q 28 328 28 147 q 128 590 28 510 q 397 669 228 669 q 668 590 572 669 q 764 328 764 510 q 668 67 764 147 q 397 -14 572 -14 m 397 208 q 440 230 424 208 q 457 328 457 251 q 441 426 457 406 q 397 447 425 447 q 353 426 371 447 q 335 328 335 406 q 353 230 335 251 q 397 208 371 208 z "},"ö":{"ha":792,"x_min":28,"x_max":764,"o":"m 397 -14 q 128 67 228 -14 q 28 328 28 147 q 128 590 28 510 q 397 669 228 669 q 668 590 572 669 q 764 328 764 510 q 668 67 764 147 q 397 -14 572 -14 m 397 208 q 440 230 424 208 q 457 328 457 251 q 441 426 457 406 q 397 447 425 447 q 353 426 371 447 q 335 328 335 406 q 353 230 335 251 q 397 208 371 208 m 236 736 l 87 885 l 236 1034 l 385 885 l 236 736 m 568 736 l 419 885 l 568 1034 l 717 885 l 568 736 z "},"ȫ":{"ha":792,"x_min":28,"x_max":764,"o":"m 397 -14 q 128 67 228 -14 q 28 328 28 147 q 128 590 28 510 q 397 669 228 669 q 668 590 572 669 q 764 328 764 510 q 668 67 764 147 q 397 -14 572 -14 m 397 208 q 440 230 424 208 q 457 328 457 251 q 441 426 457 406 q 397 447 425 447 q 353 426 371 447 q 335 328 335 406 q 353 230 335 251 q 397 208 371 208 m 236 736 l 87 885 l 236 1034 l 385 885 l 236 736 m 568 736 l 419 885 l 568 1034 l 717 885 l 568 736 m 151 1124 l 151 1263 l 651 1263 l 651 1124 l 151 1124 z "},"ȱ":{"ha":792,"x_min":28,"x_max":764,"o":"m 397 -14 q 128 67 228 -14 q 28 328 28 147 q 128 590 28 510 q 397 669 228 669 q 668 590 572 669 q 764 328 764 510 q 668 67 764 147 q 397 -14 572 -14 m 397 208 q 440 230 424 208 q 457 328 457 251 q 441 426 457 406 q 397 447 425 447 q 353 426 371 447 q 335 328 335 406 q 353 230 335 251 q 397 208 371 208 m 396 750 l 246 899 l 396 1048 l 545 899 l 396 750 m 147 1124 l 147 1263 l 647 1263 l 647 1124 l 147 1124 z "},"ọ":{"ha":792,"x_min":28,"x_max":764,"o":"m 397 -14 q 128 67 228 -14 q 28 328 28 147 q 128 590 28 510 q 397 669 228 669 q 668 590 572 669 q 764 328 764 510 q 668 67 764 147 q 397 -14 572 -14 m 397 208 q 440 230 424 208 q 457 328 457 251 q 441 426 457 406 q 397 447 425 447 q 353 426 371 447 q 335 328 335 406 q 353 230 335 251 q 397 208 371 208 m 398 -357 l 249 -208 l 398 -59 l 548 -208 l 398 -357 z "},"œ":{"ha":1256,"x_min":28,"x_max":1200,"o":"m 397 -14 q 128 67 228 -14 q 28 328 28 147 q 128 590 28 510 q 397 669 228 669 q 668 590 572 669 q 764 328 764 510 q 668 67 764 147 q 397 -14 572 -14 m 397 208 q 440 230 424 208 q 457 328 457 251 q 441 426 457 406 q 397 447 425 447 q 353 426 371 447 q 335 328 335 406 q 353 230 335 251 q 397 208 371 208 m 847 -14 q 653 17 740 -14 q 516 123 567 49 q 465 328 465 197 q 497 485 465 419 q 581 591 528 550 q 699 651 633 632 q 833 669 764 669 q 980 658 921 669 q 1075 633 1039 647 q 1131 608 1111 619 l 1200 388 l 1172 301 l 769 301 q 810 235 775 263 q 931 208 844 208 q 1067 226 1013 208 q 1144 254 1121 244 l 1144 40 q 1068 13 1117 25 q 962 -7 1019 0 q 847 -14 904 -14 m 765 392 l 907 418 l 894 463 q 847 474 875 474 q 783 449 801 474 q 765 392 764 424 z "},"˛":{"ha":342,"x_min":24,"x_max":378,"o":"m 183 -264 q 67 -224 111 -264 q 24 -121 24 -185 l 88 4 l 226 4 l 197 -75 q 197 -100 192 -89 q 215 -111 201 -111 q 269 -101 240 -111 q 318 -75 299 -92 l 378 -172 q 339 -208 365 -186 q 274 -247 313 -231 q 183 -264 235 -264 z "},"̨":{"ha":0,"x_min":-458,"x_max":-104,"o":"m -299 -264 q -415 -224 -371 -264 q -458 -121 -458 -185 l -394 4 l -256 4 l -285 -75 q -285 -100 -290 -89 q -267 -111 -281 -111 q -212 -101 -242 -111 q -164 -75 -183 -92 l -104 -172 q -143 -208 -117 -186 q -208 -247 -169 -231 q -299 -264 -247 -264 z "},"ò":{"ha":792,"x_min":28,"x_max":764,"o":"m 397 -14 q 128 67 228 -14 q 28 328 28 147 q 128 590 28 510 q 397 669 228 669 q 668 590 572 669 q 764 328 764 510 q 668 67 764 147 q 397 -14 572 -14 m 397 208 q 440 230 424 208 q 457 328 457 251 q 441 426 457 406 q 397 447 425 447 q 353 426 371 447 q 335 328 335 406 q 353 230 335 251 q 397 208 371 208 m 397 725 l 206 907 l 206 992 l 404 992 l 496 725 l 397 725 z "},"ỏ":{"ha":792,"x_min":28,"x_max":764,"o":"m 397 -14 q 128 67 228 -14 q 28 328 28 147 q 128 590 28 510 q 397 669 228 669 q 668 590 572 669 q 764 328 764 510 q 668 67 764 147 q 397 -14 572 -14 m 397 208 q 440 230 424 208 q 457 328 457 251 q 441 426 457 406 q 397 447 425 447 q 353 426 371 447 q 335 328 335 406 q 353 230 335 251 q 397 208 371 208 m 328 725 l 328 739 q 343 797 328 772 q 379 838 358 821 q 415 869 400 856 q 431 894 431 882 q 427 903 431 900 q 413 906 424 906 q 355 888 386 906 q 307 850 324 869 l 244 961 q 313 1006 264 981 q 444 1031 361 1031 q 543 1003 508 1031 q 578 926 578 976 q 561 859 578 886 q 522 812 544 832 q 482 772 499 792 q 465 725 465 753 l 328 725 z "},"ơ":{"ha":792,"x_min":28,"x_max":836,"o":"m 397 -14 q 128 67 228 -14 q 28 328 28 147 q 128 590 28 510 q 397 669 228 669 q 668 590 572 669 q 764 328 764 510 q 668 67 764 147 q 397 -14 572 -14 m 397 208 q 440 230 424 208 q 457 328 457 251 q 441 426 457 406 q 397 447 425 447 q 353 426 371 447 q 335 328 335 406 q 353 230 335 251 q 397 208 371 208 m 658 524 q 592 535 615 524 q 569 546 569 546 l 569 621 l 599 621 q 654 648 642 621 q 667 722 667 675 l 667 790 l 836 790 l 836 688 q 810 590 836 625 q 744 539 785 554 q 658 524 703 524 z "},"ớ":{"ha":792,"x_min":28,"x_max":836,"o":"m 397 -14 q 128 67 228 -14 q 28 328 28 147 q 128 590 28 510 q 397 669 228 669 q 668 590 572 669 q 764 328 764 510 q 668 67 764 147 q 397 -14 572 -14 m 397 208 q 440 230 424 208 q 457 328 457 251 q 441 426 457 406 q 397 447 425 447 q 353 426 371 447 q 335 328 335 406 q 353 230 335 251 q 397 208 371 208 m 658 524 q 592 535 615 524 q 569 546 569 546 l 569 621 l 599 621 q 654 648 642 621 q 667 722 667 675 l 667 790 l 836 790 l 836 688 q 810 590 836 625 q 744 539 785 554 q 658 524 703 524 m 275 725 l 367 992 l 565 992 l 565 907 l 374 725 l 275 725 z "},"ợ":{"ha":792,"x_min":28,"x_max":836,"o":"m 397 -14 q 128 67 228 -14 q 28 328 28 147 q 128 590 28 510 q 397 669 228 669 q 668 590 572 669 q 764 328 764 510 q 668 67 764 147 q 397 -14 572 -14 m 397 208 q 440 230 424 208 q 457 328 457 251 q 441 426 457 406 q 397 447 425 447 q 353 426 371 447 q 335 328 335 406 q 353 230 335 251 q 397 208 371 208 m 658 524 q 592 535 615 524 q 569 546 569 546 l 569 621 l 599 621 q 654 648 642 621 q 667 722 667 675 l 667 790 l 836 790 l 836 688 q 810 590 836 625 q 744 539 785 554 q 658 524 703 524 m 398 -357 l 249 -208 l 398 -59 l 548 -208 l 398 -357 z "},"ờ":{"ha":792,"x_min":28,"x_max":836,"o":"m 397 -14 q 128 67 228 -14 q 28 328 28 147 q 128 590 28 510 q 397 669 228 669 q 668 590 572 669 q 764 328 764 510 q 668 67 764 147 q 397 -14 572 -14 m 397 208 q 440 230 424 208 q 457 328 457 251 q 441 426 457 406 q 397 447 425 447 q 353 426 371 447 q 335 328 335 406 q 353 230 335 251 q 397 208 371 208 m 658 524 q 592 535 615 524 q 569 546 569 546 l 569 621 l 599 621 q 654 648 642 621 q 667 722 667 675 l 667 790 l 836 790 l 836 688 q 810 590 836 625 q 744 539 785 554 q 658 524 703 524 m 397 725 l 206 907 l 206 992 l 404 992 l 496 725 l 397 725 z "},"ở":{"ha":792,"x_min":28,"x_max":836,"o":"m 397 -14 q 128 67 228 -14 q 28 328 28 147 q 128 590 28 510 q 397 669 228 669 q 668 590 572 669 q 764 328 764 510 q 668 67 764 147 q 397 -14 572 -14 m 397 208 q 440 230 424 208 q 457 328 457 251 q 441 426 457 406 q 397 447 425 447 q 353 426 371 447 q 335 328 335 406 q 353 230 335 251 q 397 208 371 208 m 658 524 q 592 535 615 524 q 569 546 569 546 l 569 621 l 599 621 q 654 648 642 621 q 667 722 667 675 l 667 790 l 836 790 l 836 688 q 810 590 836 625 q 744 539 785 554 q 658 524 703 524 m 328 725 l 328 739 q 343 797 328 772 q 379 838 358 821 q 415 869 400 856 q 431 894 431 882 q 427 903 431 900 q 413 906 424 906 q 355 888 386 906 q 307 850 324 869 l 244 961 q 313 1006 264 981 q 444 1031 361 1031 q 543 1003 508 1031 q 578 926 578 976 q 561 859 578 886 q 522 812 544 832 q 482 772 499 792 q 465 725 465 753 l 328 725 z "},"ỡ":{"ha":792,"x_min":28,"x_max":836,"o":"m 397 -14 q 128 67 228 -14 q 28 328 28 147 q 128 590 28 510 q 397 669 228 669 q 668 590 572 669 q 764 328 764 510 q 668 67 764 147 q 397 -14 572 -14 m 397 208 q 440 230 424 208 q 457 328 457 251 q 441 426 457 406 q 397 447 425 447 q 353 426 371 447 q 335 328 335 406 q 353 230 335 251 q 397 208 371 208 m 658 524 q 592 535 615 524 q 569 546 569 546 l 569 621 l 599 621 q 654 648 642 621 q 667 722 667 675 l 667 790 l 836 790 l 836 688 q 810 590 836 625 q 744 539 785 554 q 658 524 703 524 m 508 739 q 424 756 463 739 q 356 791 386 774 q 300 808 325 808 l 260 753 l 147 753 q 160 872 147 818 q 204 957 174 925 q 286 989 235 989 q 369 968 331 989 q 439 926 407 947 q 496 906 471 906 l 536 975 l 649 975 q 619 803 649 867 q 508 739 589 739 z "},"ő":{"ha":792,"x_min":28,"x_max":764,"o":"m 397 -14 q 128 67 228 -14 q 28 328 28 147 q 128 590 28 510 q 397 669 228 669 q 668 590 572 669 q 764 328 764 510 q 668 67 764 147 q 397 -14 572 -14 m 397 208 q 440 230 424 208 q 457 328 457 251 q 441 426 457 406 q 397 447 425 447 q 353 426 371 447 q 335 328 335 406 q 353 230 335 251 q 397 208 371 208 m 421 725 l 513 992 l 711 992 l 711 907 l 519 725 l 421 725 m 143 728 l 235 994 l 433 994 l 433 910 l 242 728 l 143 728 z "},"ȏ":{"ha":792,"x_min":28,"x_max":764,"o":"m 397 -14 q 128 67 228 -14 q 28 328 28 147 q 128 590 28 510 q 397 669 228 669 q 668 590 572 669 q 764 328 764 510 q 668 67 764 147 q 397 -14 572 -14 m 397 208 q 440 230 424 208 q 457 328 457 251 q 441 426 457 406 q 397 447 425 447 q 353 426 371 447 q 335 328 335 406 q 353 230 335 251 q 397 208 371 208 m 397 992 q 220 937 272 992 q 168 769 168 882 l 278 769 q 283 798 278 782 q 314 826 289 814 q 397 839 339 839 q 480 826 456 839 q 509 798 504 814 q 514 769 514 782 l 626 769 q 574 938 626 883 q 397 992 522 992 z "},"ō":{"ha":792,"x_min":28,"x_max":764,"o":"m 397 -14 q 128 67 228 -14 q 28 328 28 147 q 128 590 28 510 q 397 669 228 669 q 668 590 572 669 q 764 328 764 510 q 668 67 764 147 q 397 -14 572 -14 m 397 208 q 440 230 424 208 q 457 328 457 251 q 441 426 457 406 q 397 447 425 447 q 353 426 371 447 q 335 328 335 406 q 353 230 335 251 q 397 208 371 208 m 147 781 l 147 919 l 647 919 l 647 781 l 147 781 z "},"⅛":{"ha":1263,"x_min":42,"x_max":1228,"o":"m 125 396 l 125 728 l 42 728 l 42 860 l 281 888 l 288 846 l 281 776 l 281 396 l 125 396 m 114 -111 l 786 983 l 944 983 l 272 -111 l 114 -111 m 1014 -14 q 935 -7 976 -14 q 861 18 895 1 q 806 64 827 35 q 785 137 785 93 q 803 207 785 178 q 853 250 822 235 q 817 295 828 268 q 806 355 806 322 q 832 426 806 395 q 905 474 858 456 q 1013 492 952 492 q 1154 456 1101 492 q 1206 355 1206 421 q 1195 293 1206 315 q 1165 251 1183 272 q 1211 207 1196 231 q 1227 137 1227 182 q 1208 65 1227 94 q 1159 19 1190 36 q 1090 -6 1128 1 q 1014 -14 1052 -14 m 1007 289 q 1039 298 1032 289 q 1047 319 1047 308 q 1040 342 1047 331 q 1007 353 1033 353 q 973 343 981 353 q 965 319 965 333 q 973 297 965 306 q 1007 289 982 289 m 1007 125 q 1056 135 1044 125 q 1067 156 1067 145 q 1053 185 1067 174 q 1014 202 1038 197 q 960 208 990 207 q 952 191 956 202 q 948 167 948 179 q 959 138 948 150 q 1007 125 969 125 z "},"½":{"ha":1201,"x_min":42,"x_max":1174,"o":"m 125 396 l 125 728 l 42 728 l 42 860 l 281 888 l 288 846 l 281 776 l 281 396 l 125 396 m 114 -111 l 786 983 l 944 983 l 272 -111 l 114 -111 m 778 0 l 778 104 q 816 129 778 104 q 908 194 854 154 q 987 264 964 236 q 1010 322 1010 292 q 997 352 1010 344 q 958 360 983 360 q 866 346 914 360 q 793 319 818 332 l 793 458 q 866 484 810 471 q 993 497 922 497 q 1174 351 1174 497 q 1152 271 1174 306 q 1097 212 1131 236 q 1030 172 1064 188 q 971 146 996 156 l 974 132 l 1174 146 l 1174 0 l 778 0 z "},"¼":{"ha":1275,"x_min":42,"x_max":1263,"o":"m 125 396 l 125 728 l 42 728 l 42 860 l 281 888 l 288 846 l 281 776 l 281 396 l 125 396 m 114 -111 l 786 983 l 944 983 l 272 -111 l 114 -111 m 1017 0 l 1017 69 l 764 69 l 764 175 l 964 492 l 1172 492 l 1186 450 l 1172 381 l 1172 196 l 1263 196 l 1263 76 l 1172 69 l 1172 0 l 1017 0 m 942 196 l 1017 196 l 1017 319 l 1004 319 l 942 196 z "},"¹":{"ha":308,"x_min":42,"x_max":288,"o":"m 125 618 l 125 951 l 42 951 l 42 1082 l 281 1110 l 288 1068 l 281 999 l 281 618 l 125 618 z "},"ǫ":{"ha":792,"x_min":28,"x_max":764,"o":"m 397 -14 q 128 67 228 -14 q 28 328 28 147 q 128 590 28 510 q 397 669 228 669 q 668 590 572 669 q 764 328 764 510 q 668 67 764 147 q 397 -14 572 -14 m 397 208 q 440 230 424 208 q 457 328 457 251 q 441 426 457 406 q 397 447 425 447 q 353 426 371 447 q 335 328 335 406 q 353 230 335 251 q 397 208 371 208 m 433 -264 q 317 -224 361 -264 q 274 -121 274 -185 l 338 4 l 476 4 l 447 -75 q 447 -100 442 -89 q 465 -111 451 -111 q 519 -101 490 -111 q 568 -75 549 -92 l 628 -172 q 589 -208 615 -186 q 524 -247 563 -231 q 433 -264 485 -264 z "},"ª":{"ha":474,"x_min":42,"x_max":418,"o":"m 146 660 q 71 681 100 660 q 42 758 42 703 q 76 835 42 810 q 167 861 110 861 q 217 856 199 861 q 246 844 236 850 l 250 847 q 242 880 250 869 q 206 890 235 890 q 127 879 167 890 q 63 856 88 868 l 63 981 q 125 993 79 985 q 229 1001 171 1001 q 366 966 328 1001 q 404 869 404 931 l 404 778 l 418 707 l 404 667 l 257 667 l 257 700 l 250 704 q 213 674 240 688 q 146 660 186 660 m 225 751 q 242 754 236 751 q 250 758 249 757 l 250 774 q 244 792 250 785 q 225 800 238 800 q 205 794 215 800 q 194 774 194 789 q 225 751 194 751 z "},"º":{"ha":424,"x_min":28,"x_max":396,"o":"m 213 660 q 78 700 128 660 q 28 831 28 740 q 78 961 28 921 q 213 1001 128 1001 q 348 961 300 1001 q 396 831 396 921 q 348 700 396 740 q 213 660 300 660 m 213 771 q 235 781 226 771 q 243 831 243 792 q 235 880 243 869 q 213 890 226 890 q 190 880 199 890 q 182 831 182 869 q 191 781 182 792 q 213 771 200 771 z "},"ø":{"ha":792,"x_min":28,"x_max":764,"o":"m 397 -14 q 128 67 228 -14 q 28 328 28 147 q 128 590 28 510 q 397 669 228 669 q 668 590 572 669 q 764 328 764 510 q 668 67 764 147 q 397 -14 572 -14 m 397 208 q 440 230 424 208 q 457 328 457 251 q 441 426 457 406 q 397 447 425 447 q 353 426 371 447 q 335 328 335 406 q 353 230 335 251 q 397 208 371 208 m 160 56 l 64 190 l 369 354 l 629 600 l 718 464 l 413 299 l 160 56 z "},"ǿ":{"ha":792,"x_min":28,"x_max":764,"o":"m 397 -14 q 128 67 228 -14 q 28 328 28 147 q 128 590 28 510 q 397 669 228 669 q 668 590 572 669 q 764 328 764 510 q 668 67 764 147 q 397 -14 572 -14 m 397 208 q 440 230 424 208 q 457 328 457 251 q 441 426 457 406 q 397 447 425 447 q 353 426 371 447 q 335 328 335 406 q 353 230 335 251 q 397 208 371 208 m 160 56 l 64 190 l 369 354 l 629 600 l 718 464 l 413 299 l 160 56 m 275 725 l 367 992 l 565 992 l 565 907 l 374 725 l 275 725 z "},"õ":{"ha":792,"x_min":28,"x_max":764,"o":"m 397 -14 q 128 67 228 -14 q 28 328 28 147 q 128 590 28 510 q 397 669 228 669 q 668 590 572 669 q 764 328 764 510 q 668 67 764 147 q 397 -14 572 -14 m 397 208 q 440 230 424 208 q 457 328 457 251 q 441 426 457 406 q 397 447 425 447 q 353 426 371 447 q 335 328 335 406 q 353 230 335 251 q 397 208 371 208 m 508 739 q 424 756 463 739 q 356 791 386 774 q 300 808 325 808 l 260 753 l 147 753 q 160 872 147 818 q 204 957 174 925 q 286 989 235 989 q 369 968 331 989 q 439 926 407 947 q 496 906 471 906 l 536 975 l 649 975 q 619 803 649 867 q 508 739 589 739 z "},"ȭ":{"ha":792,"x_min":28,"x_max":764,"o":"m 397 -14 q 128 67 228 -14 q 28 328 28 147 q 128 590 28 510 q 397 669 228 669 q 668 590 572 669 q 764 328 764 510 q 668 67 764 147 q 397 -14 572 -14 m 397 208 q 440 230 424 208 q 457 328 457 251 q 441 426 457 406 q 397 447 425 447 q 353 426 371 447 q 335 328 335 406 q 353 230 335 251 q 397 208 371 208 m 508 739 q 424 756 463 739 q 356 791 386 774 q 300 808 325 808 l 260 753 l 147 753 q 160 872 147 818 q 204 957 174 925 q 286 989 235 989 q 369 968 331 989 q 439 926 407 947 q 496 906 471 906 l 536 975 l 649 975 q 619 803 649 867 q 508 739 589 739 m 147 1056 l 147 1194 l 647 1194 l 647 1056 l 147 1056 z "}}}
